{"glyphs":{"0":{"ha":949,"x_min":39,"x_max":932,"o":"m 708 -14 q 678 1 694 -14 q 653 15 661 15 q 602 -1 636 15 q 550 -17 568 -17 q 524 -4 535 -17 q 488 -33 508 -33 q 461 -13 467 -33 q 451 25 456 7 q 439 21 447 19 q 436 7 436 21 q 410 -33 436 -33 q 381 -25 399 -33 q 354 -17 364 -17 q 325 -27 344 -17 q 296 -37 306 -37 q 267 -4 267 -37 q 275 15 267 1 q 283 36 283 28 q 260 67 283 44 q 221 26 244 26 q 201 35 211 26 q 174 83 188 47 q 150 132 161 119 q 111 150 144 139 q 88 182 88 158 q 109 210 88 196 q 131 251 131 224 q 121 278 131 268 q 82 251 104 251 q 56 276 56 251 q 61 323 56 292 q 67 369 67 354 q 53 408 67 390 q 39 431 39 425 q 58 464 39 453 q 69 461 64 461 q 75 464 69 461 q 86 494 86 474 q 86 508 86 499 q 85 522 85 517 l 75 542 l 75 557 q 138 683 138 672 q 123 710 138 693 q 108 736 108 726 q 121 763 108 749 q 139 765 128 765 q 156 764 144 765 q 175 763 168 763 q 232 821 197 763 q 289 879 267 879 q 316 850 304 879 q 335 821 328 821 q 376 882 374 821 q 411 943 379 943 q 451 899 431 943 q 485 843 476 849 l 508 843 q 557 843 526 844 q 606 840 592 840 q 642 844 618 840 q 678 847 667 847 q 692 843 686 847 q 714 815 706 815 q 726 817 718 815 q 738 819 733 819 q 755 812 746 819 q 760 797 764 804 q 764 782 761 792 q 735 749 753 772 l 740 743 q 776 760 749 760 q 799 743 790 760 q 803 722 799 729 l 801 707 q 831 676 801 690 q 860 642 860 661 q 841 617 860 626 q 822 603 822 607 q 808 542 822 561 q 807 536 807 539 q 813 525 807 525 q 824 531 813 525 q 846 536 836 536 q 874 506 874 536 q 864 375 874 503 q 908 357 885 367 q 932 326 932 347 q 901 292 932 304 q 861 265 867 279 q 851 188 849 240 q 844 115 853 136 q 829 107 842 110 q 815 100 817 104 q 796 71 810 78 q 768 63 796 71 q 744 47 749 57 q 737 7 740 28 q 708 -14 733 -14 m 725 797 q 713 801 719 801 q 699 799 707 801 q 686 797 690 797 q 669 810 675 797 q 660 831 663 828 q 650 797 660 817 q 614 788 638 797 q 633 776 624 782 q 643 757 643 769 q 633 729 643 747 l 640 726 q 668 749 663 749 q 688 738 675 749 q 701 726 701 726 q 708 729 704 726 q 692 768 692 751 q 725 797 692 774 m 818 654 q 774 683 801 661 q 764 714 767 694 q 757 743 761 733 q 719 708 732 708 q 703 714 713 708 q 688 719 694 719 q 683 715 683 719 q 690 697 683 713 q 696 669 696 682 q 685 624 696 651 q 669 576 671 590 q 710 594 686 576 q 747 613 735 613 q 768 598 756 613 q 783 583 781 583 q 786 586 785 583 q 779 629 779 600 q 798 643 779 633 q 818 654 817 653 m 764 551 q 767 556 767 553 q 764 560 767 558 q 757 565 761 561 q 751 568 753 568 q 747 564 749 568 q 757 551 750 554 l 760 554 l 764 551 m 672 697 q 638 706 665 701 q 606 718 611 710 q 599 746 600 726 q 594 775 599 765 q 583 743 589 760 q 563 721 574 721 q 548 724 558 721 q 532 728 538 728 q 524 726 532 728 q 553 675 553 696 q 536 635 553 668 q 542 635 539 635 q 557 641 547 635 q 572 647 567 647 q 593 629 581 647 q 611 603 610 603 q 613 621 613 611 q 607 664 613 638 q 615 667 611 664 q 621 671 618 671 q 672 697 640 671 m 672 642 q 672 644 672 644 q 667 642 671 644 q 660 642 663 639 q 647 632 656 635 q 657 586 647 615 q 672 642 672 626 m 621 821 q 535 828 590 829 q 449 831 472 826 q 400 921 433 861 q 392 870 394 908 q 378 821 390 832 q 353 812 374 817 q 332 801 332 807 q 344 775 332 790 q 417 746 369 746 q 451 739 436 744 q 464 721 463 735 q 470 704 465 707 q 499 685 475 701 q 529 674 515 674 l 533 674 q 494 743 522 699 q 558 783 514 760 q 621 821 603 807 m 735 536 q 718 547 721 536 q 696 535 710 544 q 699 525 696 529 q 657 489 683 514 q 682 483 663 483 q 704 467 697 483 q 715 440 714 442 q 726 463 721 451 q 740 481 736 481 q 748 479 743 481 q 754 478 753 478 q 760 479 758 478 q 750 497 750 485 q 758 513 750 503 q 767 528 767 524 q 735 536 767 536 m 893 336 q 822 369 869 347 q 831 483 831 497 q 828 518 831 501 q 744 404 801 479 q 650 447 696 424 q 672 396 653 426 q 699 346 693 360 q 601 214 665 303 l 604 207 q 738 265 693 240 q 774 208 756 247 q 806 149 796 163 q 817 224 815 178 q 818 301 818 263 q 893 336 844 311 m 426 722 q 318 733 425 724 q 274 863 306 776 q 231 792 253 826 q 175 742 199 742 q 156 744 169 742 q 136 746 143 747 l 128 746 q 146 724 128 743 q 160 700 160 708 q 131 631 160 678 q 99 561 103 583 q 240 632 169 594 q 342 590 274 614 q 328 674 329 647 q 426 722 361 689 m 783 139 q 764 174 778 151 q 756 156 756 167 q 764 142 756 150 q 778 135 772 135 q 783 139 782 136 m 676 333 q 651 383 674 349 q 629 432 629 414 q 643 460 629 447 q 638 475 638 468 q 657 506 638 489 q 676 529 676 524 q 667 534 676 531 q 657 542 658 538 q 650 567 650 553 q 646 571 647 571 q 638 566 644 571 q 625 561 632 561 q 597 575 607 561 q 578 603 588 589 q 549 593 572 593 q 517 635 522 593 q 485 658 515 646 q 456 674 454 671 q 371 632 410 640 q 379 581 379 594 q 354 547 379 547 q 302 565 336 547 q 254 583 268 583 q 244 563 244 583 q 267 539 244 553 q 289 513 289 525 q 269 486 289 492 q 231 476 249 481 q 258 444 258 458 q 235 404 258 429 q 246 394 242 394 q 259 401 244 394 q 283 408 274 408 q 310 382 310 408 q 301 357 310 372 q 293 333 293 342 q 308 309 293 328 q 318 278 322 290 q 349 249 349 272 q 340 219 349 233 q 332 201 332 206 q 360 184 332 193 q 393 167 388 175 q 413 142 399 160 q 418 122 417 139 q 426 106 419 106 q 463 142 451 106 q 490 178 474 178 q 515 170 497 178 q 547 163 533 163 q 585 178 572 163 q 578 197 579 190 q 624 268 592 228 q 676 333 650 300 m 774 110 q 715 144 743 133 q 725 207 715 167 l 718 207 q 683 197 704 208 q 650 181 653 182 q 624 161 642 172 q 529 144 593 158 q 565 124 547 135 q 583 94 583 113 q 564 56 583 79 q 543 18 544 33 q 647 58 621 58 q 674 46 658 58 q 696 25 685 35 q 702 53 701 33 q 709 82 703 72 q 738 97 715 92 q 774 110 768 107 m 247 522 q 199 547 229 528 q 200 557 200 554 q 199 561 200 563 q 140 532 169 551 q 179 479 158 506 q 187 494 186 479 q 192 513 188 510 q 221 518 201 517 q 247 522 240 519 m 247 343 q 256 363 247 350 q 264 382 264 375 q 264 389 264 386 q 228 369 244 369 q 196 404 222 369 l 189 399 q 196 354 196 383 q 176 331 196 350 q 199 321 186 326 q 211 278 199 304 q 238 308 222 308 q 253 303 243 308 q 271 297 264 297 q 278 301 278 297 q 263 317 278 301 q 247 343 247 332 m 533 100 q 500 129 529 115 q 485 158 496 140 q 471 122 481 146 q 449 103 467 113 q 426 86 432 93 q 456 74 438 85 q 463 68 457 69 q 468 64 468 67 q 478 8 468 33 q 507 54 488 24 q 529 44 515 53 q 532 51 532 47 q 527 63 532 56 q 522 76 522 71 q 528 88 522 81 q 533 99 533 94 l 533 100 m 211 450 q 201 456 211 456 q 181 452 194 456 q 163 449 168 449 q 129 476 143 449 q 108 518 113 514 q 97 483 97 508 q 89 450 96 458 q 63 443 79 450 l 63 442 q 74 424 63 435 q 85 404 85 413 q 75 314 85 403 q 71 296 71 304 q 71 294 71 294 q 103 321 79 294 q 133 356 118 339 q 153 333 136 351 l 160 336 q 156 354 156 344 q 183 414 156 388 q 211 450 211 440 m 358 161 q 276 194 331 171 q 294 225 278 196 q 306 258 306 243 q 206 246 272 254 l 201 243 q 147 307 183 264 q 146 249 146 303 q 133 212 146 221 q 104 194 119 203 q 133 181 111 186 q 163 164 156 175 q 211 71 176 132 q 257 154 226 99 q 358 161 325 154 m 426 60 q 419 67 426 64 q 383 104 383 67 q 378 119 383 115 l 361 119 q 349 103 357 117 q 329 94 342 94 q 282 107 308 94 q 275 96 275 107 q 276 93 275 94 q 292 75 278 86 q 306 53 306 64 q 286 8 306 35 l 296 6 q 349 25 328 25 q 371 17 356 25 q 393 6 393 6 l 394 11 q 393 24 394 15 q 392 36 392 32 q 409 53 392 49 q 426 60 426 58 z "},"1":{"ha":622,"x_min":46,"x_max":583,"o":"m 583 469 q 578 446 579 449 q 563 429 574 433 q 531 414 551 425 q 523 398 528 411 q 501 385 518 385 q 483 388 496 385 q 465 392 471 392 q 447 385 447 392 q 472 300 447 342 q 490 308 481 308 q 519 281 519 308 q 510 238 519 267 q 501 196 501 210 q 518 115 501 168 q 535 36 535 63 q 508 14 535 14 q 464 34 492 14 q 432 54 436 54 q 414 42 425 54 q 397 24 400 25 q 424 -19 424 -14 q 400 -49 424 -49 q 353 -35 383 -49 q 307 -21 324 -21 q 295 -40 304 -21 q 268 -58 286 -58 q 240 -36 247 -58 q 236 1 239 -32 q 211 24 235 13 q 188 53 188 35 q 204 78 188 65 q 221 111 221 90 q 218 138 221 121 q 215 164 215 156 q 244 193 215 193 q 261 190 253 193 q 271 203 265 199 q 263 216 267 206 q 254 226 258 226 q 249 225 253 226 q 222 217 236 217 q 193 242 193 217 q 206 275 193 257 q 219 297 219 293 q 211 315 219 303 q 203 332 203 328 q 236 365 203 365 q 261 351 247 365 l 268 358 q 232 399 232 376 q 264 434 232 415 q 296 461 296 453 q 251 488 296 483 q 207 515 207 492 q 217 547 207 524 l 207 557 q 196 542 204 556 q 168 533 190 533 q 144 638 135 550 q 88 657 140 640 q 46 688 46 669 q 83 731 46 715 q 142 754 113 743 q 136 813 136 806 q 164 864 136 864 q 210 838 188 864 q 246 793 228 815 q 286 811 247 794 q 329 822 311 822 q 353 807 342 822 q 354 854 354 811 q 381 890 354 890 q 418 871 394 890 q 450 851 442 851 q 494 868 465 851 q 531 885 522 885 q 563 853 563 885 q 547 819 563 840 q 531 790 531 799 q 542 780 531 788 q 554 768 553 772 q 557 744 557 754 q 538 724 557 725 q 479 713 518 722 q 492 671 489 701 q 496 660 493 665 q 527 650 511 656 q 543 624 543 644 q 528 597 543 607 q 501 579 504 583 q 501 572 501 576 q 516 537 501 553 q 531 521 531 521 q 531 515 532 518 q 529 508 529 510 q 551 494 529 501 q 579 475 574 486 l 576 472 l 583 469 m 521 861 q 477 844 506 860 q 433 829 449 829 q 375 871 425 829 q 375 810 375 868 q 356 765 375 779 q 324 735 329 744 l 326 729 q 372 739 331 731 q 379 647 372 647 q 416 695 383 647 q 455 750 449 743 q 483 758 461 757 q 515 764 506 758 q 497 778 513 767 q 482 793 482 789 q 499 828 482 804 q 521 861 510 844 m 501 631 q 477 642 496 639 q 457 654 458 646 q 450 700 456 669 q 421 644 443 678 q 392 631 410 643 q 407 604 407 621 q 385 563 407 586 l 392 560 q 432 583 422 583 q 444 574 438 583 q 453 565 450 565 q 463 572 458 565 q 463 583 463 576 q 463 593 463 589 q 501 631 463 611 m 358 690 q 349 694 354 694 q 339 690 344 694 q 349 676 342 685 l 356 681 l 356 686 l 358 690 m 499 485 q 486 494 493 488 q 453 436 472 475 q 458 432 456 432 q 468 438 468 438 q 478 431 472 438 q 486 424 485 424 q 488 436 488 425 q 513 456 488 447 q 538 472 538 464 q 524 482 538 481 q 499 485 510 483 m 365 618 q 265 725 311 682 q 292 764 269 735 q 310 807 308 786 q 226 771 281 796 q 158 846 204 797 q 154 836 154 846 q 158 744 154 774 q 64 706 125 733 q 161 674 96 693 l 160 625 q 164 576 160 599 q 222 657 181 606 q 358 611 268 644 l 365 618 m 290 563 l 292 567 q 283 575 292 574 q 271 579 271 579 q 271 594 271 586 q 265 606 269 606 q 254 596 257 606 q 249 586 251 586 q 229 589 236 586 q 222 581 222 582 q 228 574 222 582 q 233 558 233 565 q 226 533 233 550 l 236 531 q 247 538 242 538 q 268 518 253 538 q 274 543 271 531 q 290 563 276 556 m 467 547 q 460 554 464 550 q 418 526 458 554 q 372 492 378 497 q 310 606 354 531 q 307 596 307 606 q 308 522 307 571 q 310 450 310 474 q 251 407 271 424 q 310 371 272 396 q 316 325 317 356 q 319 281 315 294 q 356 346 329 303 q 428 300 381 331 q 394 421 425 329 q 467 547 415 464 m 346 229 q 333 240 346 240 q 319 235 326 240 q 322 232 322 235 q 321 228 322 231 q 319 224 319 225 q 332 218 319 217 l 343 219 q 346 229 344 224 m 492 53 q 476 128 490 78 q 463 206 463 178 q 471 244 463 218 q 479 278 479 271 q 476 290 479 285 q 453 265 471 279 q 431 239 435 250 q 375 288 414 254 q 360 253 360 275 q 363 228 360 244 q 365 203 365 211 q 285 196 338 204 q 310 181 294 181 q 329 181 310 181 q 358 144 358 181 q 365 138 358 142 q 350 93 350 94 q 367 63 350 63 q 414 106 372 63 q 492 53 440 88 m 300 293 q 293 339 293 317 q 286 349 293 349 q 270 339 276 349 q 261 329 264 329 q 229 346 246 329 l 222 342 q 240 307 240 307 q 226 280 240 296 q 213 263 213 264 q 217 258 213 260 q 233 265 221 258 q 251 272 246 272 q 268 260 263 272 q 278 239 274 249 q 283 265 283 246 q 290 290 282 283 l 300 293 m 382 -6 q 335 49 358 22 q 300 104 300 90 q 308 133 300 113 q 317 164 317 153 q 275 131 283 131 q 254 153 272 131 q 236 176 236 176 q 233 163 233 171 q 237 138 233 154 q 240 111 240 121 q 225 81 240 93 q 210 63 210 69 q 226 53 210 58 q 247 42 242 47 q 253 15 251 36 q 258 -15 254 -7 q 275 33 265 1 q 382 -6 308 17 z "},"2":{"ha":858,"x_min":44,"x_max":818,"o":"m 753 21 q 731 32 743 21 q 713 43 719 43 q 676 27 703 43 q 632 11 649 11 q 608 39 608 11 q 625 86 608 57 q 611 89 618 89 q 574 45 592 89 q 531 1 556 1 q 497 31 511 1 q 476 76 486 53 q 463 47 474 64 q 435 17 453 42 q 406 -7 417 -7 q 374 22 378 -7 q 360 51 369 51 q 346 47 354 51 q 351 33 351 40 q 326 3 351 3 q 226 43 288 3 q 149 6 208 38 q 67 -21 101 -21 q 44 4 44 -21 q 74 73 44 19 q 110 144 104 126 q 79 193 79 169 q 114 222 79 222 q 131 221 119 222 q 147 219 142 219 q 199 253 167 219 q 243 303 221 278 q 199 326 221 314 q 176 360 176 338 q 217 393 176 385 q 278 404 247 399 q 274 421 274 410 q 291 452 274 447 q 312 464 308 457 q 322 481 315 471 q 363 492 329 492 q 373 517 367 504 q 396 531 379 531 q 431 501 421 531 q 439 504 433 504 q 448 502 442 504 q 457 500 454 500 q 460 501 460 500 q 480 547 472 513 q 501 592 488 581 q 476 632 490 604 q 453 669 463 660 q 288 638 379 649 q 268 575 286 636 q 233 531 254 531 q 194 567 206 531 q 174 621 179 617 q 115 633 164 633 q 86 638 97 633 l 76 647 q 74 663 74 656 q 103 703 74 683 q 144 735 140 729 q 128 796 128 788 q 157 824 128 824 q 193 813 169 824 q 229 803 217 803 q 271 829 242 803 q 319 856 300 856 q 346 836 346 856 q 339 806 346 825 q 332 776 332 786 q 342 758 332 758 q 367 769 349 758 q 392 781 386 779 q 370 813 382 796 q 358 846 358 831 q 382 875 358 875 q 430 858 397 875 q 469 842 463 842 q 488 860 476 842 q 515 879 500 879 q 557 826 536 879 q 567 822 561 822 q 576 829 576 822 q 575 839 576 832 q 574 849 574 846 q 603 879 574 879 q 632 865 614 879 q 658 851 650 851 q 678 856 665 851 q 699 860 692 860 q 726 831 726 860 q 719 813 726 821 q 756 774 756 799 q 732 744 756 756 q 739 722 742 728 q 742 690 740 711 q 739 678 739 683 q 778 655 739 668 q 818 614 818 642 q 790 585 818 592 q 746 579 768 582 q 742 575 742 579 l 739 569 q 743 554 743 563 q 729 514 743 521 q 747 496 743 510 q 751 469 750 482 q 767 447 754 465 q 776 424 776 435 q 761 406 776 411 q 732 397 746 401 q 720 383 728 396 q 700 371 713 371 q 687 374 696 371 q 674 378 678 378 q 661 374 668 378 q 651 365 653 365 q 624 367 642 365 q 594 367 604 367 q 538 342 550 367 q 506 293 517 301 q 496 293 499 289 l 492 288 q 554 239 525 239 q 594 245 568 239 q 635 251 621 251 q 658 230 646 251 q 685 208 671 208 q 703 224 685 208 q 733 239 721 239 q 751 225 744 239 q 768 171 756 206 q 799 149 772 163 q 818 118 818 138 q 800 97 818 107 q 781 82 782 86 q 778 42 781 63 q 753 21 776 21 m 713 788 q 678 810 700 793 l 676 813 q 679 823 676 817 q 682 833 682 829 q 680 838 682 835 q 674 840 678 840 q 659 835 668 840 q 644 831 650 831 q 639 832 644 831 q 593 861 622 840 q 592 856 592 858 q 598 841 592 850 q 606 828 604 832 l 603 822 q 578 812 596 817 q 554 803 560 807 q 592 789 565 794 q 629 778 619 783 q 640 757 635 774 q 654 735 646 740 q 671 781 657 754 q 713 788 685 781 m 778 628 q 728 647 753 638 q 699 685 699 661 q 700 700 699 690 q 700 714 700 708 q 697 735 700 726 q 643 689 651 689 q 628 694 638 689 q 611 700 618 700 q 604 692 604 700 q 607 678 604 688 q 610 663 610 668 q 613 657 610 658 q 544 589 583 618 q 558 586 550 586 q 590 592 568 586 q 622 597 611 597 q 665 581 647 597 q 700 550 683 565 q 700 611 706 581 q 778 628 726 614 m 635 729 q 588 753 624 738 q 544 781 557 765 q 523 819 535 792 q 501 858 511 847 q 486 836 501 858 q 469 819 475 819 q 424 834 449 819 q 379 861 400 849 q 397 815 381 840 q 424 774 410 794 q 365 751 396 764 q 414 735 372 747 q 457 710 444 726 q 508 625 476 682 q 542 696 515 653 q 588 715 553 707 q 635 729 624 722 m 574 667 q 565 649 572 663 q 558 628 558 636 q 561 621 558 628 q 594 656 594 654 q 574 667 594 663 m 651 531 q 635 549 647 533 q 610 556 631 556 q 575 538 575 556 q 600 531 575 531 q 613 521 610 521 q 617 524 614 521 q 622 528 619 528 l 638 526 q 651 531 644 526 m 736 443 q 716 456 725 450 q 707 482 707 463 q 703 489 707 489 q 676 466 700 479 q 651 438 651 453 q 678 433 651 433 q 681 417 681 432 q 683 415 682 415 q 688 419 686 415 q 693 424 690 424 q 692 426 692 425 q 693 436 692 439 q 706 435 700 435 q 736 443 721 435 m 661 508 l 654 514 q 561 501 590 501 q 506 576 542 525 q 488 524 496 561 q 469 472 481 488 q 447 453 463 463 q 421 436 424 439 q 463 411 436 431 q 474 374 471 400 q 482 332 478 343 q 525 404 497 365 q 546 403 524 403 q 560 405 550 403 q 576 407 571 407 q 602 406 585 407 q 629 404 619 404 l 632 411 q 590 465 617 428 q 661 508 614 479 m 424 706 q 282 758 360 732 q 307 836 289 783 l 301 839 q 263 804 282 822 q 218 783 238 783 q 149 810 185 783 l 147 803 q 156 768 147 789 q 168 735 167 740 q 93 674 93 679 q 96 669 93 671 q 183 669 183 669 q 217 569 193 636 q 236 622 226 586 q 256 674 246 657 q 424 706 389 689 m 428 489 q 394 485 418 485 q 396 492 396 488 q 389 504 396 504 q 382 497 383 504 q 379 482 381 489 q 365 478 375 482 q 350 479 358 475 q 338 476 349 476 q 333 472 333 476 q 355 454 333 463 q 376 435 376 446 q 372 414 376 429 q 378 410 374 410 q 379 411 378 410 q 411 446 390 422 q 408 453 411 449 q 419 467 410 458 q 429 483 429 476 q 428 489 429 483 m 778 132 q 725 176 725 164 q 725 182 725 178 q 725 190 725 186 q 717 222 725 203 q 678 186 689 186 q 661 194 672 186 q 644 203 650 201 l 642 193 q 661 144 650 178 q 623 155 647 144 q 586 167 599 165 q 622 229 597 189 q 615 235 619 235 q 563 227 599 235 q 508 219 526 219 q 506 225 506 222 q 490 253 506 240 q 460 278 474 267 q 454 256 454 268 q 456 235 454 249 q 458 214 458 221 q 457 200 458 206 q 444 189 456 194 q 433 181 433 183 q 436 160 433 164 q 453 150 439 156 q 469 142 467 144 q 497 93 483 125 q 522 43 515 54 q 567 128 536 72 l 579 128 q 642 132 600 131 l 654 132 q 625 53 654 131 q 667 71 642 53 q 707 89 692 89 q 725 76 713 89 q 742 60 742 60 l 743 65 q 740 83 743 71 q 738 100 738 94 q 751 120 738 114 q 778 132 765 126 m 457 339 q 403 379 403 367 q 406 390 403 383 q 410 400 410 397 q 399 406 410 406 q 382 403 393 406 q 365 400 371 400 q 328 415 356 400 q 294 440 301 431 l 293 432 q 296 415 293 426 q 299 399 299 404 q 254 379 299 385 q 197 368 203 371 q 294 322 228 350 q 321 281 314 317 q 333 215 322 258 q 363 290 350 244 q 404 321 369 314 q 457 339 446 329 m 440 203 q 438 288 440 258 q 411 278 429 283 q 375 203 404 276 q 428 193 393 201 q 440 203 440 196 m 443 132 l 440 142 q 385 125 424 142 q 342 94 342 107 q 362 88 342 90 q 389 86 382 85 q 392 38 388 69 q 418 82 400 53 q 426 78 422 78 q 433 82 429 78 q 426 96 426 88 q 435 116 426 103 q 443 132 443 129 m 394 181 q 288 190 394 181 q 265 310 285 231 q 147 199 172 199 q 123 202 139 199 q 100 206 107 206 q 115 180 101 194 q 129 157 129 165 q 101 89 129 132 q 67 18 71 40 q 142 53 92 25 q 217 86 188 79 q 307 43 233 76 q 308 58 308 50 q 303 95 308 71 q 297 132 297 119 q 394 181 346 151 z "},"3":{"ha":786,"x_min":42,"x_max":749,"o":"m 749 240 q 728 211 749 221 q 707 200 707 201 q 697 164 707 178 q 681 158 693 158 q 665 154 669 157 q 690 118 690 143 q 667 90 690 100 q 629 79 649 85 q 619 63 626 74 q 592 11 619 11 q 558 26 578 11 q 535 42 539 42 q 490 23 531 42 q 442 4 450 4 q 408 38 408 4 q 418 60 408 47 q 428 83 428 72 l 428 86 q 389 24 397 76 q 361 -24 381 -24 q 330 -15 350 -24 q 300 -7 310 -7 q 264 -26 288 -7 q 224 -44 240 -44 q 197 -18 197 -44 q 205 12 197 -6 q 213 29 213 29 q 151 57 213 33 q 90 113 90 81 q 93 131 90 119 q 96 149 96 142 q 69 177 96 161 q 42 213 42 193 q 68 238 42 229 q 107 251 88 244 q 119 289 114 256 q 149 318 125 318 q 178 294 163 318 q 218 269 194 269 q 237 272 224 269 q 256 274 250 274 q 265 268 260 274 q 272 261 271 263 l 269 258 l 275 254 q 274 249 274 251 q 275 242 274 246 q 275 235 275 238 q 261 213 274 231 q 253 190 253 200 q 269 161 253 179 q 329 221 292 169 q 379 268 364 268 q 411 231 411 268 q 410 212 411 225 q 408 190 408 199 l 408 183 q 458 189 446 186 q 504 201 488 193 q 538 234 521 210 q 554 274 554 258 q 543 288 554 282 q 524 294 532 294 q 508 292 518 294 q 493 289 497 289 q 467 315 467 289 q 469 327 467 319 q 471 338 471 335 q 467 342 471 342 q 417 363 449 344 q 369 382 385 382 q 312 353 347 382 q 269 325 276 325 q 236 349 249 325 q 244 397 236 365 q 253 443 253 428 q 235 461 253 453 q 217 494 217 469 q 235 515 217 508 q 263 526 249 519 q 292 572 276 532 q 322 607 304 607 q 369 576 342 607 q 413 546 396 546 q 464 560 461 546 q 477 585 465 568 q 489 613 489 603 q 474 635 489 625 q 429 674 451 654 q 372 696 403 696 q 333 676 361 696 l 318 676 l 308 667 q 315 649 315 661 q 311 631 315 638 q 288 618 299 625 q 256 618 289 618 q 233 616 249 618 q 208 614 217 614 q 192 629 201 614 q 178 647 182 644 q 146 654 167 647 q 132 674 142 657 q 114 686 125 686 q 100 683 108 686 q 86 681 92 681 q 57 714 57 681 q 65 732 57 721 q 74 751 74 743 q 64 772 74 760 q 54 796 54 783 q 82 828 54 828 q 108 819 92 828 q 132 810 124 810 q 153 816 140 810 q 174 822 165 822 q 197 796 192 822 q 218 769 203 769 q 240 778 229 769 l 256 774 q 299 810 275 783 q 314 890 311 861 q 342 913 317 913 q 374 883 361 913 q 415 854 386 854 q 453 857 428 854 q 492 860 478 860 q 521 854 515 860 q 532 829 526 842 q 546 836 536 836 q 578 819 569 836 q 581 800 581 813 q 582 797 581 799 q 588 800 583 797 q 593 803 592 803 q 633 767 629 803 q 651 719 639 725 q 703 710 676 715 q 731 682 731 706 q 701 646 731 660 q 671 615 671 632 q 681 553 671 594 q 692 492 692 513 q 661 465 692 465 q 636 482 644 465 q 619 476 628 479 q 611 447 611 472 q 656 397 611 410 q 701 365 701 383 q 697 351 701 361 q 665 329 697 336 q 679 323 668 324 q 697 318 690 322 q 706 300 703 314 q 710 278 710 281 q 732 268 711 275 q 749 240 749 263 m 554 781 q 547 787 554 783 q 539 793 539 790 q 535 819 540 801 q 464 768 494 794 q 496 764 469 764 q 515 756 510 764 q 525 739 519 747 l 532 744 q 535 768 532 761 q 544 773 535 771 q 554 781 554 775 m 690 690 q 617 706 663 692 q 599 742 603 715 q 590 783 594 776 q 569 740 585 778 q 533 714 558 714 q 495 719 519 714 q 458 725 471 725 q 444 715 444 725 q 472 669 444 697 q 515 631 494 650 q 483 569 511 626 q 515 585 496 569 q 543 600 533 600 q 593 560 550 600 q 649 508 643 511 q 656 514 656 511 q 650 532 653 522 q 622 650 640 572 l 690 690 m 486 839 l 481 846 q 436 839 469 844 q 393 835 410 835 q 353 853 364 835 q 331 894 342 872 q 319 840 322 881 q 301 793 317 807 q 263 764 301 793 q 286 753 269 756 q 308 744 303 751 q 314 715 308 735 q 353 736 335 736 q 379 731 363 736 q 406 725 396 725 q 397 749 406 735 q 386 771 386 769 q 486 839 418 794 m 600 514 q 542 524 581 524 q 530 531 536 524 q 519 538 524 538 q 513 528 515 538 q 515 514 515 521 q 490 479 515 497 q 454 453 457 456 l 461 446 q 494 463 493 463 q 522 440 507 463 q 535 450 526 446 q 533 460 533 456 q 560 493 533 481 q 600 514 599 513 m 658 375 q 581 407 628 382 q 575 469 576 411 q 542 440 569 469 q 493 410 515 410 q 476 414 485 410 l 476 407 q 483 383 475 399 q 490 363 490 367 q 488 350 490 358 q 485 339 485 342 q 494 332 485 332 q 508 335 499 332 q 522 338 517 338 q 549 320 532 338 q 574 303 565 303 q 581 324 581 303 q 583 349 582 346 q 618 364 592 357 q 658 375 651 371 m 289 715 q 275 719 289 713 q 246 729 265 721 q 217 708 242 718 q 192 688 192 697 q 204 669 192 679 q 204 665 204 668 q 201 657 204 660 l 207 654 l 217 664 q 238 661 224 664 q 260 658 253 658 q 275 664 275 658 q 269 676 275 667 q 264 689 264 685 q 276 701 264 694 q 289 715 289 708 m 707 254 q 665 264 668 264 q 668 283 668 278 q 661 300 668 293 q 644 246 644 282 q 661 203 644 203 l 664 203 q 668 219 668 203 l 665 222 l 668 225 l 665 229 q 707 254 681 235 m 204 749 q 167 764 185 756 q 158 794 158 769 q 156 807 158 801 q 122 786 142 786 q 102 795 115 786 q 81 804 89 804 q 74 803 78 804 q 97 765 97 768 q 88 744 97 757 q 79 725 79 732 q 81 719 79 725 q 113 728 99 728 q 135 715 125 728 q 151 690 144 701 q 154 718 154 694 q 172 740 154 735 q 204 749 204 749 m 474 521 q 431 528 467 528 q 361 542 382 528 q 311 592 336 567 q 279 514 303 563 q 236 499 264 511 q 260 486 240 494 q 269 461 269 483 q 253 371 269 433 l 260 368 q 347 433 290 388 q 396 410 365 429 q 444 388 426 392 q 426 431 442 403 q 408 475 411 460 q 441 498 419 482 q 474 521 463 514 m 649 132 q 611 151 644 136 q 594 190 594 160 q 607 281 594 207 q 610 296 607 285 q 614 314 614 307 q 610 329 614 322 q 565 257 588 293 q 513 190 538 214 q 468 175 499 178 q 418 167 429 171 q 476 125 438 150 q 428 53 461 100 l 431 47 q 481 67 438 49 q 532 79 510 79 q 554 69 543 79 q 574 53 574 54 l 581 57 q 582 76 581 63 q 583 96 583 89 q 649 132 583 108 m 408 135 q 390 148 408 144 q 370 156 372 151 q 368 226 368 160 q 367 249 368 239 q 313 186 339 217 q 275 118 275 139 q 250 106 275 106 q 222 111 240 106 q 193 117 203 117 q 149 96 169 117 q 199 76 174 86 q 236 49 236 61 q 226 27 236 43 q 217 1 217 11 l 224 -1 q 288 38 271 38 q 343 14 297 38 q 360 92 347 44 q 386 111 364 99 q 408 135 408 124 m 240 147 q 207 201 207 189 q 219 227 207 211 q 231 253 231 243 q 231 258 231 256 q 201 251 221 251 q 175 244 182 250 q 139 300 171 251 q 122 239 138 275 q 93 228 117 232 q 61 219 69 225 q 115 172 115 192 q 111 152 115 165 q 107 133 107 139 q 110 121 107 126 q 176 158 147 158 q 208 153 188 158 q 240 147 229 147 z "},"4":{"ha":894,"x_min":22,"x_max":869,"o":"m 869 300 q 842 266 869 289 q 814 233 814 243 q 823 215 814 228 q 832 193 832 201 q 804 164 832 164 q 776 174 793 164 q 750 183 760 183 q 733 172 733 183 q 735 164 733 171 q 738 153 738 157 q 727 121 738 142 q 717 89 717 100 q 734 53 717 79 q 751 13 751 26 q 721 -17 751 -17 q 696 -8 711 -17 q 672 1 681 1 q 655 -5 667 1 q 636 -11 643 -11 q 610 24 619 -11 q 594 -6 606 11 q 568 -11 585 -4 q 531 -39 544 -39 q 509 -25 515 -39 q 497 1 503 -11 q 471 11 496 4 q 446 42 446 18 q 460 67 446 56 q 474 82 474 78 q 471 102 474 89 q 468 121 468 115 q 458 225 468 165 q 438 242 456 242 q 419 226 422 242 q 419 199 419 226 q 392 175 419 175 q 369 183 379 175 q 329 160 353 160 q 304 200 304 160 q 290 219 304 214 q 269 232 272 228 q 258 228 268 231 q 247 219 247 226 q 251 194 247 211 q 256 168 256 178 q 224 139 256 139 q 188 161 207 139 q 158 196 174 179 q 51 151 68 151 q 22 176 22 151 q 45 233 22 194 q 68 293 68 272 q 50 321 68 304 q 32 349 32 338 q 85 381 32 381 l 97 381 q 128 385 118 381 q 151 415 138 389 q 173 447 165 440 q 199 453 181 453 q 208 465 203 453 q 218 479 214 476 q 243 485 226 478 q 226 514 226 499 q 264 545 226 540 q 301 561 301 550 q 299 576 301 569 q 331 678 299 678 q 364 654 356 678 q 406 681 376 688 q 438 706 413 699 q 481 713 440 707 q 503 846 486 757 q 529 864 508 864 q 557 847 547 864 q 575 813 567 829 q 590 829 581 818 q 589 846 590 835 q 588 864 588 857 q 610 890 588 890 q 633 881 619 890 q 654 871 646 871 q 671 876 660 871 q 689 881 682 881 q 710 856 710 881 q 706 835 710 849 q 701 815 701 822 q 723 787 701 807 q 744 754 744 767 q 711 699 744 733 q 663 647 686 672 q 701 571 667 638 q 733 501 733 511 q 721 479 733 492 q 733 460 724 472 l 731 453 l 733 446 q 694 414 729 435 q 726 382 711 407 q 757 346 744 353 q 808 333 772 335 q 864 319 843 331 q 869 300 869 307 m 656 822 q 661 838 656 826 q 667 854 667 849 q 665 861 667 858 q 638 844 640 844 q 617 857 625 844 q 608 869 610 869 q 604 865 606 868 q 608 849 604 860 q 611 832 611 838 q 601 817 611 822 q 590 807 590 813 q 603 798 590 801 q 617 793 615 794 q 626 758 617 764 q 636 783 636 786 q 688 764 642 783 q 699 767 699 765 q 677 792 699 769 q 656 822 656 815 m 688 514 q 617 657 676 554 q 685 742 640 685 l 682 749 q 581 725 649 739 q 519 846 560 765 q 507 772 511 821 q 497 703 503 724 q 458 694 461 696 q 425 681 431 688 q 490 640 447 667 q 482 578 489 624 q 475 515 475 539 q 478 492 475 503 q 519 544 490 510 q 561 596 549 578 q 688 514 604 568 m 583 543 q 556 518 581 543 q 569 515 561 515 q 592 529 592 515 q 583 543 592 543 m 694 463 q 629 499 685 471 q 620 513 624 501 q 610 525 617 525 l 607 524 q 596 509 600 514 q 554 497 592 504 q 524 478 524 493 q 540 452 524 471 q 557 426 557 433 q 551 408 557 419 q 544 390 544 396 q 551 383 544 383 q 565 391 556 383 q 582 399 575 399 q 607 378 586 399 q 628 379 610 379 q 638 392 638 382 q 635 405 638 396 q 633 418 633 414 q 694 463 633 432 m 451 625 q 424 646 450 629 q 392 663 397 663 q 383 660 388 663 q 401 628 401 647 q 389 599 401 613 q 396 597 393 597 q 406 601 400 597 q 415 606 413 606 q 428 594 422 606 q 436 582 435 582 q 442 586 439 582 q 438 618 438 596 q 444 621 438 622 l 451 625 m 828 313 q 728 329 793 314 q 703 357 714 335 q 685 390 689 386 q 672 317 685 363 q 651 308 668 311 q 626 303 629 304 q 656 288 642 296 q 671 257 671 279 q 666 231 671 249 q 661 204 661 213 q 672 183 661 183 q 706 210 682 188 q 740 232 729 232 q 782 206 747 232 l 789 210 q 763 251 782 224 q 828 313 786 271 m 474 453 l 468 460 l 464 453 q 476 442 467 444 q 495 435 492 438 q 511 415 499 433 q 532 397 524 397 q 538 406 538 397 q 524 434 538 415 q 500 453 510 453 l 474 453 m 653 249 q 642 258 653 254 q 629 264 631 263 q 626 258 626 261 q 646 225 633 247 q 653 249 653 232 m 444 557 l 442 563 q 379 550 421 561 q 321 660 361 588 q 311 538 321 619 q 247 524 292 538 q 290 504 247 524 q 315 465 315 492 q 314 447 315 460 q 313 428 313 435 q 315 411 313 418 q 369 460 351 460 q 401 447 381 460 q 435 433 422 433 l 438 433 q 399 504 426 458 q 444 557 413 518 m 633 171 q 599 238 628 188 q 571 300 571 282 q 588 331 571 311 q 604 365 604 350 q 532 342 579 358 q 468 421 513 369 q 465 404 465 414 q 468 376 465 394 q 471 347 471 357 q 444 317 471 322 q 399 300 407 307 q 461 268 457 271 q 481 206 481 250 q 488 164 481 178 q 535 226 522 226 q 583 201 540 226 q 633 171 626 176 m 714 28 q 675 107 675 82 q 685 128 675 114 q 694 154 696 143 l 694 157 q 674 142 692 156 q 651 129 656 129 q 636 135 646 129 q 621 140 626 140 q 614 138 621 140 l 613 136 q 615 131 613 135 q 618 124 618 126 l 617 121 l 617 111 q 575 86 603 104 q 599 73 581 78 q 624 60 618 68 q 633 31 625 50 q 639 41 635 32 q 646 50 643 50 q 679 39 657 50 q 714 28 701 28 m 453 346 q 451 365 453 353 q 449 386 449 378 l 444 390 q 416 403 435 392 q 388 415 397 415 q 350 386 364 415 q 335 346 343 365 q 313 338 329 339 q 297 328 297 336 q 310 315 297 321 q 325 307 324 308 q 360 333 333 333 q 378 325 369 333 q 389 317 386 317 q 428 326 404 317 q 453 346 453 335 m 571 167 l 565 171 q 551 181 557 171 q 526 138 540 167 q 531 133 528 133 q 551 149 533 133 q 571 167 568 165 m 299 375 q 301 375 300 375 q 299 385 301 386 q 275 419 275 400 q 278 440 275 426 q 282 460 282 453 q 278 464 281 464 q 269 451 276 464 q 250 439 261 439 q 237 450 244 439 q 228 463 229 461 q 224 451 224 457 q 227 435 224 446 q 231 417 231 424 q 226 408 231 414 q 222 399 222 403 q 240 375 222 388 q 246 360 243 372 q 254 349 249 349 q 263 363 263 349 q 276 378 263 378 q 288 376 281 378 q 299 375 294 375 m 354 283 q 357 290 357 286 q 353 299 357 293 q 349 308 350 306 q 344 311 347 311 q 340 310 342 311 q 342 301 343 308 q 347 293 340 293 q 354 283 354 293 m 372 282 q 350 254 360 282 q 339 247 349 250 q 328 239 329 244 q 318 206 324 224 q 325 200 318 203 q 338 214 326 201 q 354 226 350 226 q 364 222 358 226 q 374 217 369 217 q 378 225 378 217 q 375 235 378 229 q 372 246 372 242 q 379 258 372 250 q 386 272 386 267 q 372 282 386 282 m 561 144 q 519 111 528 111 q 509 117 517 111 q 500 125 501 124 q 488 118 488 125 q 492 103 488 113 q 496 89 496 94 q 464 53 496 85 q 510 40 483 51 q 522 4 511 28 q 532 38 532 19 q 550 32 540 32 q 563 42 563 32 q 554 60 563 49 q 546 79 546 72 q 554 106 546 86 q 563 135 563 125 q 561 144 563 135 m 315 283 q 260 317 315 288 q 199 356 204 346 q 187 396 189 369 q 179 433 185 422 q 139 376 158 404 q 74 365 126 365 q 49 361 58 365 q 75 339 61 350 q 90 310 90 322 q 71 253 90 288 q 42 196 46 207 q 100 217 65 200 q 156 242 143 238 q 214 179 200 179 q 218 183 217 181 q 204 251 204 229 q 221 264 204 257 q 311 281 296 272 q 315 283 314 281 z "},"5":{"ha":833,"x_min":36,"x_max":819,"o":"m 757 268 q 765 233 757 257 q 772 197 772 210 q 740 171 772 171 q 728 174 733 171 q 724 165 724 169 q 749 158 724 163 q 774 128 774 154 q 753 100 774 108 q 724 83 726 89 q 718 58 721 71 q 689 42 713 42 q 663 60 669 42 q 650 53 658 56 q 667 14 667 33 q 640 -11 667 -8 q 596 -11 642 -11 q 561 -35 572 -11 q 532 -60 550 -60 q 526 -60 531 -60 q 521 -58 522 -58 q 490 -28 511 -54 q 443 -8 475 -8 q 392 -14 394 -8 q 393 -22 393 -18 q 382 -40 393 -32 q 361 -49 371 -49 q 340 -37 353 -49 q 321 -26 326 -26 q 307 -33 317 -26 q 290 -40 297 -40 q 258 -12 258 -40 q 264 11 258 -3 q 269 26 269 25 q 251 51 269 24 q 225 40 238 46 q 221 10 221 38 q 194 -22 221 -22 q 176 -15 185 -22 q 137 24 161 -6 q 96 65 113 54 q 58 78 96 67 q 36 104 36 83 q 56 135 36 125 q 76 175 76 146 q 111 204 76 204 q 125 197 115 204 q 139 189 135 189 q 151 194 143 189 q 163 201 158 200 q 177 206 168 201 q 192 218 186 211 q 229 225 199 225 q 246 226 235 225 q 261 229 257 228 q 278 251 265 231 q 303 265 285 265 q 333 247 322 265 l 331 244 l 335 243 q 335 232 335 239 q 333 221 333 224 q 338 208 333 213 q 411 161 367 171 q 499 143 456 151 q 572 189 524 158 q 542 221 542 199 q 581 294 542 229 q 539 329 561 311 q 517 368 517 347 q 518 382 517 375 q 446 374 492 382 q 392 336 433 369 q 326 311 361 311 q 297 326 304 311 q 267 308 289 308 q 193 335 261 308 q 106 276 129 276 q 76 310 76 276 q 91 347 76 319 q 106 390 106 374 q 92 427 106 404 q 79 463 79 450 q 108 490 79 490 q 118 488 114 490 q 122 492 122 490 q 121 508 122 497 q 119 524 119 518 q 125 550 119 533 q 131 574 131 567 l 138 639 q 94 663 115 650 q 65 694 65 678 q 96 736 65 715 q 146 764 121 750 q 151 832 149 799 q 186 878 157 878 q 218 854 203 878 q 239 818 228 836 q 283 846 261 832 q 329 861 319 867 q 336 890 332 876 q 363 910 340 910 q 397 885 385 910 q 415 890 406 890 q 447 858 447 890 q 442 838 447 853 q 436 821 436 824 q 443 813 436 825 q 479 840 451 835 q 526 847 503 844 q 541 892 533 869 q 571 915 549 915 q 602 890 590 915 q 626 864 614 864 q 643 866 632 864 q 660 868 654 868 q 675 863 669 868 q 685 850 682 851 q 715 865 689 865 q 744 838 744 865 q 733 783 744 811 q 756 749 756 771 q 740 724 756 731 q 724 714 725 717 q 715 674 719 694 q 686 653 710 653 q 650 694 657 653 q 626 689 638 689 q 601 700 607 689 q 592 722 596 711 q 557 685 574 704 q 518 658 531 658 q 494 668 508 658 q 472 678 479 678 q 445 669 463 678 q 418 660 428 660 q 397 674 400 660 q 392 703 393 689 q 376 701 383 701 q 350 722 361 701 q 331 743 339 743 q 317 724 322 743 q 307 697 311 710 q 364 603 332 651 q 379 606 371 606 q 415 586 396 606 q 447 557 446 558 q 476 574 450 558 q 508 585 496 585 q 539 554 539 585 q 529 507 539 544 q 564 499 542 506 q 574 526 568 513 q 599 539 581 539 q 625 520 618 539 q 639 483 632 501 q 659 473 642 481 q 676 451 676 465 q 674 436 676 446 q 693 436 672 436 q 719 406 714 436 q 738 363 726 371 q 788 350 740 363 q 819 321 819 342 q 788 283 819 297 q 757 268 757 269 m 710 764 q 701 774 710 768 q 693 785 693 781 q 697 814 693 794 q 701 842 701 833 q 701 843 701 843 q 669 808 700 843 q 658 817 665 808 q 646 828 650 826 l 643 822 q 647 803 644 821 q 651 796 649 800 q 653 788 653 792 q 613 733 653 774 q 619 732 617 732 q 641 738 628 732 q 661 744 654 743 q 671 699 664 728 q 674 697 672 697 q 678 701 676 697 l 678 708 q 686 750 676 719 q 699 757 688 756 q 710 764 710 758 m 643 847 q 636 849 640 849 q 616 845 629 849 q 597 842 603 842 q 592 842 593 842 q 560 894 592 843 q 550 865 554 888 q 535 835 546 842 q 500 825 525 828 q 464 818 475 822 q 529 789 485 807 l 526 781 q 546 742 536 778 q 565 765 553 750 q 579 772 578 772 q 590 770 582 772 q 603 768 599 768 q 628 776 628 768 q 620 793 628 782 q 613 810 613 804 q 636 842 613 824 l 643 847 m 435 789 q 408 803 421 796 q 390 824 390 813 q 396 847 390 832 q 401 871 401 863 q 369 847 392 864 q 354 889 365 861 q 347 864 347 879 q 350 849 347 858 q 353 833 353 839 q 340 788 353 817 q 356 768 350 783 q 365 744 363 749 q 374 765 371 750 q 381 785 378 781 q 435 789 399 785 m 503 764 q 487 765 500 765 q 469 777 474 765 q 463 789 465 789 q 449 777 458 789 q 425 765 439 765 q 408 768 417 765 q 400 764 406 764 q 413 755 401 761 q 424 746 424 749 q 417 724 424 739 q 411 703 411 708 q 413 703 411 703 q 435 714 417 703 q 463 725 453 725 q 493 707 464 725 l 494 714 q 483 742 483 736 q 503 764 483 744 m 632 458 q 604 468 622 460 q 588 518 599 488 q 576 475 583 504 q 526 488 560 479 l 525 483 q 581 429 551 460 q 585 417 581 425 q 622 385 596 404 l 624 393 q 613 432 613 419 q 619 448 613 443 q 632 458 625 453 m 775 331 q 741 340 774 332 q 699 349 708 347 q 675 419 694 372 q 639 361 665 400 q 536 374 536 374 q 608 311 560 353 q 564 233 590 288 q 651 275 594 246 q 729 213 678 254 q 708 296 726 247 q 775 331 740 311 m 342 561 q 304 636 331 592 q 263 707 268 696 q 311 839 296 775 l 306 842 q 215 788 275 822 q 174 858 189 835 q 165 760 165 815 q 83 710 138 744 q 154 669 131 685 q 149 583 154 640 q 143 497 143 525 q 144 496 144 496 q 149 499 146 496 q 228 628 175 542 q 342 561 267 607 m 542 428 q 479 486 521 447 q 497 564 488 511 q 461 548 483 561 q 431 531 439 535 q 369 588 392 569 q 357 501 365 558 q 278 490 329 501 q 350 440 350 453 q 346 400 350 426 q 340 358 340 369 l 344 357 q 419 417 371 375 q 542 428 461 418 m 732 139 q 679 150 714 143 q 682 158 683 153 l 682 167 l 678 169 q 643 100 663 147 q 656 104 649 103 q 678 85 664 97 l 682 88 q 679 94 679 90 q 679 115 679 115 q 732 139 697 124 m 326 531 q 300 547 326 531 q 265 551 290 551 q 258 556 263 551 q 250 560 253 560 q 244 557 247 560 q 267 521 267 539 q 260 505 267 515 q 254 488 254 494 q 275 510 260 497 q 326 531 306 514 m 243 510 q 236 525 243 515 q 228 540 229 535 q 204 503 221 526 q 210 496 208 501 q 219 490 213 490 q 243 510 243 490 m 329 401 q 318 408 324 413 q 311 429 321 417 q 300 419 307 419 q 283 425 294 419 q 265 431 272 431 l 263 429 q 283 397 265 425 q 274 385 283 392 q 267 371 265 378 l 267 369 q 288 378 282 378 q 302 369 297 378 q 311 353 307 360 q 315 375 313 354 q 326 393 317 389 l 326 397 l 329 401 m 650 219 q 494 124 599 189 q 445 134 479 125 q 392 142 411 143 l 381 142 q 431 85 396 122 l 346 33 q 474 32 403 28 q 518 -18 479 26 q 544 29 528 -3 q 583 28 557 29 q 622 28 608 28 l 624 32 q 575 79 607 47 q 650 219 650 211 m 258 478 l 256 482 q 189 464 232 478 l 185 471 q 154 451 174 451 q 136 461 146 451 q 119 471 126 471 q 103 472 113 471 q 96 468 101 468 q 117 440 107 454 q 129 407 129 422 q 115 364 129 393 q 96 322 106 343 q 138 349 114 331 q 176 381 171 376 q 256 350 204 372 q 219 419 240 372 l 258 478 m 392 79 q 365 107 392 107 q 364 106 364 107 q 365 100 364 104 q 365 94 368 96 q 369 85 368 89 q 389 76 374 76 q 392 79 392 76 m 357 154 q 321 183 356 156 q 292 210 292 206 q 293 220 292 214 q 294 229 294 226 q 290 243 294 238 q 268 213 285 231 q 204 206 254 206 l 196 201 l 235 150 q 193 75 218 126 q 222 89 199 76 q 251 99 239 99 q 269 90 260 99 q 286 75 278 82 l 292 76 q 292 90 292 83 q 292 108 292 97 q 292 124 292 119 q 357 154 314 133 m 358 60 q 339 67 347 67 q 335 65 336 67 q 303 34 324 36 q 278 6 282 32 q 298 14 286 6 q 315 22 310 22 q 325 19 321 21 l 329 22 q 344 48 329 39 q 358 60 358 57 m 161 185 q 122 163 133 163 q 96 185 118 163 q 94 156 94 181 q 81 132 94 140 q 56 118 57 119 q 100 104 71 115 q 142 63 118 93 q 181 22 165 33 l 178 32 q 176 66 179 39 q 172 100 172 93 q 186 113 172 110 q 200 119 200 117 q 186 130 200 128 q 169 138 172 132 q 161 185 169 153 z "},"6":{"ha":871,"x_min":35,"x_max":840,"o":"m 840 261 q 822 238 840 249 q 801 222 804 228 q 794 186 801 210 q 779 176 790 178 q 758 172 768 174 q 790 139 790 154 q 764 107 790 118 q 728 82 733 92 q 722 43 728 82 q 696 19 718 19 q 671 28 685 19 q 644 46 657 38 q 544 0 544 0 q 511 29 511 0 q 522 58 511 40 q 532 86 532 76 q 497 54 517 76 q 493 -3 494 26 q 460 -39 488 -39 q 429 -31 449 -39 q 403 -21 410 -22 q 332 -72 344 -72 q 311 -64 322 -72 q 300 -44 300 -56 q 314 4 300 -35 q 233 31 274 18 q 181 85 181 53 q 183 102 181 90 q 185 119 185 114 q 182 124 185 122 q 179 128 179 125 l 176 125 q 175 129 175 125 q 149 142 175 129 q 124 178 124 156 q 144 207 124 197 q 136 249 136 215 q 138 256 138 251 q 94 267 138 263 q 51 303 51 272 q 83 338 51 322 q 133 358 108 347 q 135 388 135 354 q 110 410 135 410 q 86 436 86 410 q 104 569 86 450 q 61 590 82 579 q 35 624 35 604 q 64 658 35 649 q 114 668 89 663 q 124 724 114 668 q 156 758 129 758 q 181 750 169 758 l 185 754 q 178 781 178 767 q 206 810 178 810 q 243 797 210 810 l 253 801 q 263 824 257 814 q 285 835 268 835 q 324 824 301 835 l 328 828 q 324 840 324 833 q 365 872 324 863 q 426 881 396 876 q 446 933 428 883 q 485 967 458 967 q 547 879 507 967 q 571 875 556 879 q 594 871 586 871 q 611 892 606 871 q 640 914 617 914 q 664 900 654 914 q 681 879 674 882 q 728 861 697 879 q 728 856 732 857 l 732 853 q 731 829 733 846 q 722 821 729 826 q 715 810 715 815 q 719 799 715 806 q 722 789 722 792 q 699 758 722 763 q 657 758 697 758 q 634 751 650 758 q 618 739 618 744 q 624 728 618 736 q 629 718 629 721 q 600 678 629 678 q 472 742 585 678 q 422 719 458 731 q 388 708 406 714 q 376 681 382 704 q 353 657 369 658 q 282 579 331 631 q 308 539 290 565 q 401 554 339 546 q 429 596 415 575 q 471 619 449 619 q 509 576 492 619 q 554 533 526 533 q 571 555 567 533 q 597 576 575 576 q 626 560 615 576 q 650 567 638 567 q 679 538 679 567 q 672 513 679 531 l 676 511 q 701 522 686 522 q 732 493 724 522 q 751 453 742 458 q 804 443 778 447 q 838 408 838 436 q 815 379 838 394 q 779 360 797 369 q 801 300 786 335 q 824 293 813 296 q 840 261 840 286 m 689 853 q 660 860 683 857 q 638 876 642 863 q 629 894 635 885 q 621 869 621 883 q 626 854 621 865 q 631 836 631 843 q 606 804 631 821 q 606 789 610 799 q 628 799 615 796 q 651 799 638 800 q 676 797 672 797 l 676 799 q 669 815 676 806 q 663 829 663 824 q 672 840 663 833 q 689 853 682 847 m 590 849 q 517 864 543 861 q 472 946 503 892 q 455 906 464 935 q 440 870 446 878 q 394 857 433 863 q 344 849 350 851 q 418 806 371 838 q 399 758 411 790 q 431 769 413 760 q 461 786 457 785 q 583 719 543 743 l 586 726 q 536 821 569 758 q 590 849 554 829 m 622 517 l 625 524 q 638 543 628 531 l 633 547 q 611 536 610 536 q 588 558 600 536 q 586 549 586 554 q 588 538 586 544 q 589 528 589 531 q 588 521 589 528 q 582 519 582 521 q 594 472 586 504 q 601 483 596 474 q 610 493 607 493 q 638 488 629 493 q 643 489 639 489 q 646 488 646 488 q 622 517 646 493 m 386 763 q 367 774 376 768 q 358 789 358 779 q 360 799 358 793 q 344 808 354 808 q 332 797 335 808 l 276 817 l 274 813 q 306 774 308 799 l 310 771 q 331 743 331 771 q 324 722 331 729 q 329 719 326 719 q 344 731 342 719 q 349 746 347 743 q 376 751 357 751 q 381 756 379 751 q 386 763 383 761 m 794 422 q 711 438 767 426 q 688 501 706 460 q 669 462 678 482 q 631 442 660 442 q 601 444 621 442 q 571 447 581 447 q 558 446 564 447 l 560 444 l 558 442 q 629 388 583 426 q 608 351 624 386 q 590 308 592 317 q 706 365 676 365 q 736 319 736 365 q 747 309 736 315 q 758 301 757 303 q 731 386 749 329 q 794 422 751 397 m 769 258 q 736 278 746 267 q 732 260 732 271 q 756 218 732 236 l 760 219 q 758 229 761 222 q 756 236 756 232 q 756 250 756 250 q 769 258 764 254 m 285 754 q 274 759 282 757 q 265 771 265 761 q 258 789 265 789 q 246 783 254 789 q 232 778 238 778 q 217 783 228 778 q 199 789 207 789 l 196 789 q 211 767 211 768 q 188 736 211 761 q 190 734 189 738 q 192 731 190 731 q 209 732 197 731 q 228 733 221 733 q 247 725 242 733 q 258 707 253 717 q 263 742 260 718 q 275 745 265 743 q 285 754 285 747 m 543 515 q 500 524 526 515 q 476 560 486 535 q 461 599 467 592 q 458 601 460 600 q 406 543 438 575 q 353 528 389 532 q 301 517 317 524 q 371 476 325 504 q 343 379 358 444 q 433 440 372 401 q 536 382 465 417 q 508 489 508 457 q 524 503 508 494 q 543 515 533 510 m 747 149 q 688 179 726 158 q 693 329 693 228 q 694 335 694 332 q 693 340 694 339 q 649 267 674 314 q 607 190 617 204 q 513 163 575 185 q 574 128 532 150 q 532 42 556 100 q 633 90 565 60 q 683 61 650 82 q 685 117 685 81 q 747 149 707 126 m 332 703 q 188 669 326 701 q 147 739 174 693 q 132 657 143 711 q 51 636 104 651 q 125 594 125 603 q 117 524 125 571 q 106 450 107 472 q 158 510 132 481 q 210 560 203 560 q 238 546 215 560 q 271 532 260 532 q 235 594 258 553 q 332 703 268 631 m 640 285 q 599 267 614 267 q 569 294 569 267 q 585 333 569 307 q 601 368 601 360 q 578 388 601 371 q 576 383 576 386 q 578 375 576 381 q 579 367 579 369 q 550 338 579 338 q 496 361 533 338 q 442 392 449 389 q 399 360 431 382 q 353 336 363 336 q 347 339 351 336 q 340 342 343 342 q 313 322 335 342 q 290 293 290 301 q 293 281 290 289 q 296 268 296 272 q 281 246 296 257 l 283 246 q 306 251 292 244 q 328 257 321 257 q 360 225 360 257 q 350 200 360 217 q 340 174 340 183 q 364 138 340 168 q 410 207 388 172 q 461 260 446 260 q 485 254 469 260 l 482 253 q 497 214 497 243 q 501 175 496 185 q 549 192 519 186 q 599 203 574 197 q 640 285 615 229 m 310 410 l 311 414 q 301 435 311 422 q 290 454 290 447 q 296 465 290 458 q 301 475 301 471 q 274 492 301 481 q 239 504 247 504 q 233 495 236 504 q 228 484 231 486 q 200 476 225 482 q 176 458 183 471 q 224 438 194 454 q 239 392 226 422 q 272 424 258 424 q 291 417 278 424 q 310 410 304 410 m 301 372 q 290 372 294 374 q 215 364 286 371 q 153 421 194 383 q 149 415 149 418 q 153 349 149 393 q 71 313 125 339 q 156 297 100 310 q 154 279 154 289 q 154 260 154 272 q 156 242 156 247 l 160 239 q 188 268 174 254 q 218 289 207 289 q 231 288 222 289 q 244 286 239 286 q 250 290 250 286 q 248 304 250 294 q 246 319 246 314 q 272 344 246 324 q 301 372 297 364 m 535 147 l 521 147 q 458 140 504 149 q 460 151 460 146 q 457 193 460 164 q 454 238 454 222 q 410 179 433 218 q 368 119 376 129 q 219 76 269 93 q 343 35 261 64 q 319 -24 335 15 l 324 -28 q 383 24 344 -11 q 449 3 406 18 q 451 42 451 10 q 457 81 451 74 q 535 147 476 107 m 328 129 q 308 155 325 138 q 292 183 292 172 q 304 208 292 188 q 317 232 317 229 q 311 235 317 235 q 288 229 303 235 q 264 224 272 224 q 238 243 253 224 q 215 272 226 257 q 210 207 215 271 q 142 188 186 203 q 204 151 163 175 q 199 93 204 150 q 229 117 208 96 q 258 133 249 133 q 291 130 269 133 q 322 126 313 126 l 328 129 z "},"7":{"ha":886,"x_min":47,"x_max":867,"o":"m 867 761 q 840 735 867 738 q 794 735 817 735 l 789 735 q 773 705 786 719 q 747 678 760 690 q 785 543 785 547 q 758 515 785 515 q 741 521 751 515 q 731 526 731 526 q 726 524 728 526 q 743 489 743 501 q 728 466 743 469 q 699 461 713 463 q 722 433 722 451 q 681 367 722 421 q 626 299 654 333 q 638 260 628 289 q 644 221 644 236 q 615 193 644 193 q 579 213 599 193 q 549 243 564 228 q 547 229 549 239 q 513 180 543 213 q 481 138 482 147 q 510 125 481 125 q 547 99 547 125 q 545 92 547 96 q 543 85 543 88 q 559 66 543 82 q 575 35 575 50 q 532 0 575 0 q 513 3 522 0 q 475 -24 499 -29 q 443 -53 456 -53 q 403 -19 424 -53 q 374 31 388 6 q 322 -12 347 10 q 271 -43 283 -43 q 250 -32 256 -43 q 232 -39 243 -39 q 210 -25 215 -39 q 201 3 206 -11 q 185 11 200 6 q 169 35 169 17 q 184 61 169 53 q 199 74 199 69 q 228 118 204 118 q 254 104 247 118 q 275 113 263 113 q 297 103 289 113 q 310 131 310 133 q 279 186 310 131 l 279 201 q 300 222 279 217 q 332 232 329 229 l 331 238 q 311 235 321 235 q 278 265 278 235 q 292 292 278 278 q 315 311 304 301 q 307 351 307 342 q 336 385 307 385 q 360 372 350 385 q 375 360 369 360 q 387 368 378 360 q 401 376 396 376 q 414 392 401 376 q 431 397 417 394 q 444 407 444 400 q 440 411 443 410 q 417 401 432 411 q 393 392 401 392 q 365 419 365 392 q 384 463 365 436 q 403 500 403 490 q 396 522 403 508 q 389 544 389 536 q 447 569 389 575 q 467 603 457 586 q 493 625 481 625 q 506 624 497 625 q 518 622 514 622 q 524 634 521 622 q 528 647 528 646 q 499 664 519 656 q 462 625 489 661 q 424 582 435 589 l 414 582 q 358 601 400 582 q 299 631 304 628 q 242 567 260 567 q 228 565 238 565 q 208 582 211 565 q 203 614 206 599 q 168 610 197 610 q 148 599 154 610 q 126 588 142 588 q 99 610 101 588 q 47 640 47 615 q 60 663 47 650 q 72 683 72 676 q 69 695 72 688 q 67 706 67 703 q 96 736 67 736 q 111 731 101 736 q 125 726 121 726 q 133 736 133 726 q 117 761 133 761 q 100 760 111 761 q 83 758 89 758 q 54 788 54 758 q 67 811 54 800 q 81 831 79 822 q 84 853 82 840 q 94 869 86 865 q 119 874 103 869 q 138 892 126 876 q 163 907 149 907 q 189 890 183 907 q 190 857 190 883 q 208 830 190 839 q 228 813 225 821 q 235 860 232 835 q 265 885 239 885 q 301 854 283 885 q 328 808 315 831 q 394 829 367 829 q 424 808 415 829 q 432 858 428 833 q 463 889 438 889 q 492 873 478 889 q 518 843 506 857 q 601 865 581 867 q 619 871 611 871 q 653 849 636 871 q 676 813 664 831 q 670 835 676 821 q 664 857 664 850 q 693 889 664 889 q 721 875 706 889 q 744 861 736 861 q 771 877 750 861 q 803 893 792 893 q 828 864 828 893 q 820 838 828 854 q 811 817 813 821 q 847 792 828 806 q 867 761 867 778 m 825 775 q 765 817 806 789 q 786 869 774 833 l 782 872 q 742 833 756 846 q 682 868 724 849 q 704 806 704 801 q 698 794 704 800 q 692 786 692 789 q 696 783 692 786 q 694 779 697 782 q 717 778 704 775 q 725 761 717 761 q 732 763 728 761 q 739 763 736 764 q 744 768 742 763 q 749 774 746 774 q 779 775 753 775 q 824 771 801 775 l 825 775 m 747 744 q 736 747 742 747 q 711 745 728 747 q 686 743 694 743 q 646 796 667 763 q 610 853 628 825 q 569 731 597 813 l 558 731 q 513 728 549 732 q 469 721 476 724 q 551 667 497 706 q 522 585 543 639 l 526 582 q 622 628 560 596 q 742 557 700 579 q 746 561 743 558 l 704 696 l 747 744 m 578 847 l 571 849 q 497 821 547 840 q 453 869 482 836 q 439 786 449 860 q 388 743 422 778 q 394 740 390 740 q 413 742 400 740 q 432 743 426 743 q 419 656 428 714 l 426 649 q 454 690 454 689 q 453 703 454 694 q 451 715 451 711 q 496 740 451 740 q 524 750 497 747 q 560 753 542 751 q 528 786 550 765 q 578 847 544 807 m 703 504 q 690 519 700 508 q 679 538 679 531 q 686 550 679 544 l 678 557 q 657 551 665 551 q 640 558 647 551 q 639 545 639 557 q 625 518 639 533 q 630 499 631 514 q 633 479 629 485 q 665 506 653 506 q 700 500 674 506 l 703 504 m 410 690 q 410 700 410 689 q 401 703 410 703 l 396 697 q 401 686 396 692 q 406 679 401 679 q 408 685 408 681 l 410 690 m 622 446 q 613 483 618 454 q 600 492 608 486 q 599 486 599 489 q 606 464 599 483 q 617 442 614 444 q 622 446 617 446 m 404 622 q 332 739 379 661 q 385 808 342 756 q 344 799 369 808 q 303 786 311 788 l 254 865 q 240 765 250 822 q 154 739 211 756 q 233 697 182 728 q 222 608 233 693 l 225 606 q 281 678 244 629 q 376 632 314 663 q 397 621 399 621 q 404 622 401 621 m 599 554 q 575 557 589 557 q 483 553 503 557 l 483 558 q 485 577 483 565 q 486 594 486 589 q 486 606 486 600 q 465 569 475 588 q 429 550 451 550 q 410 553 419 550 l 410 550 q 417 530 410 543 q 425 510 425 517 q 407 474 425 499 q 385 433 388 443 l 443 467 q 465 415 450 450 q 475 481 467 438 q 599 554 528 513 m 224 776 q 225 777 224 776 q 226 781 226 778 q 225 785 226 783 q 206 774 221 785 q 210 771 207 771 q 217 773 213 771 q 224 776 221 775 m 189 814 q 163 826 176 819 q 150 849 150 832 q 151 864 150 854 q 153 879 153 874 q 151 888 153 879 q 115 849 142 872 q 101 856 106 851 q 100 851 100 853 q 103 844 100 849 q 106 838 106 840 q 74 800 106 838 q 78 796 75 799 q 125 804 89 796 q 149 768 132 792 q 149 792 149 771 q 163 810 149 808 q 189 814 176 813 m 679 438 l 678 442 q 586 419 596 429 q 560 483 579 442 q 535 467 549 478 q 529 437 533 465 q 525 406 525 408 l 522 406 q 501 390 511 406 q 479 375 492 375 q 459 381 469 375 q 444 388 449 388 q 422 379 436 388 q 497 344 449 369 q 454 267 476 314 l 458 260 q 540 289 486 271 q 601 233 561 269 q 583 315 600 263 q 679 438 615 356 m 210 658 q 213 667 213 663 q 198 679 213 671 q 179 688 183 688 q 176 686 176 688 q 210 658 176 685 m 176 651 q 151 668 175 653 q 135 690 135 679 q 138 699 135 693 q 140 710 140 706 q 136 717 140 717 q 126 708 133 717 q 113 700 118 700 q 103 706 110 700 q 94 712 96 711 q 91 715 93 713 q 88 717 89 717 q 86 714 86 717 q 90 699 86 708 q 94 683 94 689 q 85 668 94 676 q 67 653 75 660 q 85 651 72 651 l 88 651 q 107 649 100 651 q 117 629 114 629 q 119 631 118 629 l 118 633 q 124 649 118 646 q 139 650 129 651 q 157 649 154 649 q 176 651 167 649 m 465 319 q 452 329 465 325 q 436 336 439 333 q 432 328 432 332 q 442 315 432 324 q 454 301 453 306 q 465 319 465 317 m 397 353 l 393 356 q 378 344 392 356 q 361 332 364 332 q 344 344 357 332 q 328 363 328 363 l 324 358 q 333 319 333 333 q 316 292 333 304 q 299 276 299 281 q 301 275 299 275 q 307 276 303 275 q 340 282 331 276 q 354 233 342 265 q 379 286 358 254 q 393 294 385 289 q 383 313 383 301 q 397 353 383 307 m 536 43 q 517 66 533 49 q 500 88 500 83 q 506 104 500 86 l 500 107 q 488 96 494 104 q 465 117 479 103 l 465 76 q 471 18 465 44 q 476 36 472 21 q 488 46 479 46 q 506 42 494 46 q 524 39 518 39 q 536 43 532 39 m 508 243 q 464 238 493 243 q 419 232 435 232 q 417 238 417 232 q 417 260 418 244 q 415 286 415 276 q 413 303 415 296 q 369 219 400 274 q 297 203 344 217 q 335 143 303 196 q 294 69 321 122 q 264 -1 264 8 q 371 86 300 26 q 428 -10 379 68 l 432 -8 q 422 138 431 40 q 508 243 428 146 m 254 68 q 264 90 254 69 l 263 94 q 238 82 238 82 q 227 91 233 82 q 219 100 221 100 q 219 78 219 99 q 208 60 219 65 q 189 47 189 47 q 210 42 192 44 q 221 25 221 39 q 219 8 221 18 l 224 4 q 233 28 225 7 q 258 35 236 35 q 268 44 268 35 q 261 54 268 49 q 254 68 254 60 z "},"8":{"ha":969,"x_min":57,"x_max":947,"o":"m 876 194 q 878 160 876 182 q 879 128 879 138 q 849 68 879 68 q 799 104 836 68 q 750 153 774 129 q 729 78 746 143 q 760 43 760 56 q 740 13 760 15 q 707 6 708 7 q 681 -42 697 -1 q 646 -75 665 -75 q 608 -47 631 -75 q 576 -7 592 -26 q 529 2 563 -6 q 486 10 496 10 q 472 -22 481 10 q 439 -53 463 -53 q 408 -26 418 -53 q 394 14 401 -7 q 372 18 392 18 q 275 31 304 18 q 261 63 261 36 q 282 86 261 78 q 226 122 264 99 q 147 68 165 68 q 119 93 119 68 q 126 138 119 110 q 136 182 135 172 q 89 213 113 197 q 57 251 57 235 q 97 283 57 278 q 161 290 129 288 q 196 454 169 349 q 222 468 201 468 q 239 463 233 468 l 243 467 q 244 479 243 471 q 246 492 246 488 q 208 520 246 503 q 169 556 169 538 q 197 586 169 583 q 225 597 225 589 q 207 596 225 596 q 175 628 175 596 q 182 650 175 639 q 142 688 142 660 q 166 715 142 708 q 194 732 190 722 q 210 761 197 742 q 224 764 215 764 q 257 742 246 764 l 265 749 q 240 771 264 750 q 225 801 225 783 q 254 829 225 821 q 300 839 276 833 q 312 876 306 857 q 339 894 318 894 q 365 881 353 894 q 390 854 378 867 q 503 874 428 861 q 511 885 504 874 q 529 896 518 896 q 576 881 544 896 q 625 865 608 865 q 663 880 639 865 q 700 894 686 894 q 730 869 724 894 q 740 819 736 843 q 789 803 764 811 q 822 768 822 790 q 800 740 822 746 q 758 731 778 735 q 781 632 782 650 l 781 625 l 775 614 q 747 572 758 600 q 728 525 731 529 q 764 497 756 497 q 770 499 765 497 q 776 501 775 501 q 804 460 804 501 q 801 424 804 456 q 843 399 835 404 q 868 360 867 381 q 872 281 874 294 q 922 269 896 275 q 947 240 947 264 q 923 210 947 218 q 876 194 899 201 m 781 781 q 703 811 754 790 q 690 875 697 833 q 656 859 679 874 q 621 844 633 844 q 574 856 600 844 q 525 878 549 867 l 521 874 q 564 815 535 857 q 482 761 536 799 q 629 749 483 761 q 738 642 667 714 q 714 767 738 646 q 781 781 736 768 m 699 640 q 675 663 692 649 q 639 617 639 657 q 642 606 639 611 q 699 640 661 617 m 532 817 q 526 826 532 819 q 519 835 519 832 q 465 775 508 817 q 472 772 468 772 q 506 791 479 772 q 532 817 532 810 m 639 696 q 617 696 636 696 q 600 705 603 696 q 578 714 597 714 q 564 699 569 714 q 539 700 564 700 q 526 696 532 700 q 543 685 529 693 q 551 671 551 681 q 535 624 551 650 l 538 618 q 576 649 551 626 l 589 618 q 600 624 594 619 q 607 667 600 639 q 639 696 618 676 m 733 481 q 682 528 717 496 q 728 636 696 564 q 673 608 715 632 q 626 583 631 583 q 610 594 619 583 q 599 606 601 604 l 594 603 q 603 568 596 592 q 546 533 583 557 q 615 494 569 522 q 633 407 619 465 q 664 482 653 444 q 693 479 674 482 q 722 476 713 476 q 733 481 729 476 m 815 386 q 760 425 760 424 q 761 430 760 426 q 763 436 763 433 q 744 438 761 438 q 729 439 739 438 q 715 440 719 440 q 695 440 699 440 q 681 408 692 439 q 658 369 669 376 q 686 361 669 369 q 696 342 693 356 q 701 318 700 321 q 706 310 704 310 q 707 311 707 310 q 742 365 726 328 q 815 386 767 369 m 478 854 q 368 835 451 856 q 329 875 354 847 q 310 822 326 872 q 243 808 288 819 q 292 767 260 794 q 264 683 289 756 q 244 607 243 621 l 244 603 q 265 640 251 615 q 288 656 268 644 q 329 692 307 667 q 368 733 349 713 q 406 732 379 733 q 444 732 431 731 l 464 732 l 465 736 q 417 788 435 764 q 478 854 456 824 m 576 568 q 579 575 579 568 q 574 586 579 581 q 543 579 554 579 q 517 604 517 579 q 523 627 517 613 q 529 650 529 642 q 517 663 529 654 q 506 688 506 671 q 529 715 506 704 q 517 719 524 719 q 502 708 507 719 q 494 696 497 697 q 419 694 490 694 q 390 693 403 694 q 326 628 349 649 q 349 601 346 603 q 382 600 353 600 q 411 569 411 600 q 403 544 411 556 q 433 513 411 532 l 435 519 q 429 543 429 531 q 458 574 429 574 q 487 565 468 574 q 515 556 506 556 q 534 565 521 556 q 556 574 547 574 q 565 571 558 574 q 576 568 572 568 m 906 251 q 836 268 882 254 q 826 372 835 303 q 733 283 796 342 q 647 300 681 300 q 646 299 646 300 q 678 265 646 293 q 711 228 711 236 q 705 215 711 224 q 699 200 699 206 l 699 196 q 724 206 710 206 q 836 108 750 206 q 838 114 838 108 q 836 222 840 186 q 871 239 846 233 q 906 251 896 244 m 556 490 q 528 522 528 504 q 546 551 528 540 q 542 553 543 553 q 523 543 538 553 q 504 533 508 533 q 449 556 500 533 q 449 549 449 553 q 453 526 449 540 q 457 506 457 513 q 411 478 442 496 q 419 478 415 478 q 440 480 426 478 q 461 482 454 482 q 488 470 478 482 q 508 446 499 458 q 525 485 511 461 q 556 490 536 485 m 265 726 l 263 731 q 233 721 242 721 q 224 729 228 721 q 217 744 219 738 q 206 715 214 733 q 185 704 200 708 q 161 697 165 700 l 201 679 q 194 643 194 664 q 196 642 194 642 q 211 654 204 642 q 222 667 218 667 q 232 665 226 667 q 240 663 238 663 q 249 674 249 663 q 247 685 249 678 q 244 697 244 693 q 265 726 244 700 m 511 403 q 463 440 488 440 q 443 435 451 440 l 446 428 q 428 419 440 424 q 413 411 417 415 q 443 400 428 406 q 454 382 453 393 q 464 357 456 371 q 478 388 471 372 q 511 403 486 403 m 413 493 q 361 553 361 539 q 365 564 361 556 q 369 575 369 572 q 339 581 369 581 q 307 603 325 581 q 279 636 282 633 q 271 575 275 615 q 189 568 244 575 q 265 525 215 554 q 257 458 263 503 l 261 456 q 329 507 285 472 q 404 489 369 489 q 413 493 408 489 m 671 206 q 650 213 661 213 q 643 213 646 217 q 639 239 644 221 q 633 228 639 238 q 625 218 628 218 q 590 226 615 218 l 589 222 q 611 194 611 194 q 599 171 611 196 l 604 169 q 625 182 613 172 q 642 161 629 174 l 646 165 q 644 174 646 168 q 644 182 644 179 q 656 197 644 192 q 671 206 668 203 m 678 315 q 681 318 681 315 q 676 326 681 322 q 627 335 653 331 q 601 367 601 339 q 615 390 601 381 q 600 454 613 413 q 574 451 594 451 q 554 438 554 451 q 565 422 554 432 q 575 399 575 413 q 570 380 575 389 q 545 368 565 371 q 519 362 525 365 q 501 335 513 358 q 474 317 492 317 q 446 340 453 317 q 438 364 439 363 q 425 369 432 364 l 421 365 q 424 356 424 361 q 392 329 424 329 q 376 333 386 329 q 360 336 365 336 q 344 324 351 336 q 333 308 338 311 q 340 306 336 306 q 359 308 346 306 q 379 310 372 310 q 407 282 407 310 q 382 244 407 267 q 343 214 363 229 q 364 169 349 199 q 386 188 369 188 q 419 178 400 188 q 450 169 439 169 q 468 175 456 169 q 488 181 481 181 q 499 178 493 181 q 531 207 507 207 q 582 175 539 207 l 589 179 q 569 217 569 201 q 586 240 569 236 q 617 240 590 240 q 633 248 625 240 q 646 257 642 256 q 625 288 625 269 q 633 308 625 297 q 650 318 640 318 q 664 317 654 318 q 678 315 674 315 m 383 369 q 353 415 374 385 q 382 456 361 429 l 379 460 q 331 447 364 454 q 308 482 328 458 q 300 456 306 479 q 286 435 294 438 q 258 424 258 428 q 272 401 258 410 q 290 393 282 397 q 306 343 294 375 q 319 367 308 344 q 338 381 328 381 q 359 375 346 381 q 379 369 372 369 l 383 369 m 721 51 q 685 78 708 58 q 713 181 713 153 q 711 188 713 181 q 608 126 678 167 q 524 186 589 142 l 519 183 q 547 92 529 153 q 478 49 524 78 q 565 33 521 40 q 633 -33 590 26 q 653 4 643 -22 q 675 40 664 31 q 699 48 682 47 q 721 51 717 49 m 521 110 q 472 132 503 115 l 471 136 q 473 147 471 139 q 475 157 475 154 q 472 161 475 161 q 457 155 468 161 q 438 149 446 149 q 382 171 419 149 l 382 168 q 385 146 381 160 q 390 125 390 132 l 383 117 q 426 -11 399 74 q 446 42 442 15 q 457 71 449 63 q 521 110 471 85 m 368 290 q 350 292 360 292 q 315 289 338 292 q 279 283 288 285 q 214 446 258 338 q 213 447 213 447 q 171 272 194 371 q 76 261 139 271 q 158 204 106 244 q 136 110 153 172 l 140 108 q 214 169 165 128 q 356 75 292 115 q 361 75 358 75 q 299 235 321 182 q 368 290 318 253 m 310 65 q 293 74 301 74 q 279 67 289 74 q 296 64 288 64 l 299 64 q 310 65 304 64 z "},"9":{"ha":846,"x_min":58,"x_max":814,"o":"m 814 265 q 774 233 814 242 q 733 219 735 224 q 725 169 729 196 q 696 138 721 143 q 699 128 699 132 q 674 99 699 111 q 640 74 644 82 q 640 33 640 74 l 642 32 q 613 7 642 7 q 578 28 600 7 q 533 49 557 49 q 489 39 513 49 q 521 -19 493 33 l 521 -32 q 512 -49 521 -40 q 494 -58 503 -58 q 433 -33 478 -58 q 369 0 381 -4 q 308 -24 319 -24 q 291 -14 299 -24 q 283 4 283 -4 q 289 22 283 11 q 294 39 294 32 q 290 47 294 44 q 283 51 285 50 q 268 42 276 50 q 229 -10 256 -10 q 194 26 215 -10 q 144 51 144 26 q 147 74 144 68 q 156 81 149 75 q 163 89 163 86 q 160 100 163 92 q 158 113 158 108 q 178 139 158 135 q 215 139 179 139 q 238 145 226 139 q 250 151 250 151 q 279 139 269 151 q 293 126 289 126 q 307 130 297 126 q 322 133 317 133 q 350 175 336 133 q 388 217 364 217 q 422 183 408 217 q 449 137 440 143 q 492 125 458 131 q 484 151 492 135 q 476 175 476 167 q 492 201 476 192 q 489 207 489 204 q 529 258 489 214 q 579 311 554 285 q 572 324 578 313 q 563 336 565 336 q 489 310 518 336 q 451 263 476 300 q 417 236 433 236 q 381 269 401 236 q 349 303 360 303 q 339 301 346 303 q 328 300 332 300 q 299 319 314 300 q 283 313 292 313 q 253 328 268 313 q 236 321 244 321 q 201 346 217 321 q 185 340 194 340 q 153 374 164 340 q 140 410 143 408 q 90 415 115 413 q 58 447 58 419 q 79 478 58 465 q 115 496 97 486 q 93 553 111 515 q 74 560 83 557 q 60 588 60 567 q 80 614 60 601 q 100 649 100 626 q 128 671 100 671 q 158 661 136 671 q 167 675 167 661 q 140 697 167 685 q 113 731 113 710 q 136 761 113 747 q 175 778 156 769 l 175 794 q 204 840 174 840 q 253 817 215 840 q 303 842 257 818 q 350 860 342 860 q 376 846 365 860 q 449 882 426 846 q 488 918 471 918 q 518 900 501 918 q 540 872 529 886 q 573 877 550 872 q 608 882 596 882 q 638 854 638 882 q 604 811 638 835 l 600 808 q 668 731 628 764 q 696 703 696 726 q 693 689 696 699 q 690 674 690 679 q 697 672 690 672 q 714 669 703 672 q 729 649 728 661 q 728 624 728 656 q 768 604 728 608 q 808 574 808 600 q 776 538 808 554 q 726 518 751 528 q 726 486 726 501 q 749 469 728 469 q 769 449 769 469 q 750 318 769 403 q 792 297 769 308 q 814 265 814 286 m 669 656 q 642 685 656 671 q 601 699 629 700 l 594 699 q 586 682 594 685 q 569 675 572 678 q 589 667 574 672 q 592 636 592 665 l 596 632 q 628 658 615 658 q 644 656 633 658 q 660 654 654 654 q 669 656 664 654 m 622 731 q 588 776 615 747 q 547 821 553 814 q 574 840 560 831 q 594 861 594 857 q 593 864 594 863 q 521 851 561 864 q 475 900 492 883 q 432 838 461 879 q 336 818 400 833 q 400 790 358 810 q 354 708 392 778 q 422 737 379 715 q 488 765 465 758 q 622 731 533 751 m 765 583 q 688 600 739 586 q 689 615 688 606 q 689 632 689 626 q 686 656 689 644 q 628 606 647 606 q 613 609 622 606 q 599 613 603 613 q 596 608 596 613 l 596 604 q 604 578 597 594 q 544 528 585 561 q 556 528 550 528 q 584 531 565 528 q 613 535 603 535 q 651 515 629 535 q 686 483 668 499 l 690 485 q 689 532 689 471 q 690 549 689 542 q 765 583 715 560 m 569 704 q 504 721 536 721 q 506 706 506 721 q 469 679 506 704 q 510 669 486 678 q 518 646 515 664 q 525 622 521 628 q 569 704 539 653 m 361 753 q 368 763 368 753 q 356 772 368 772 q 349 765 349 772 q 360 753 349 753 l 361 753 m 683 439 q 621 465 660 444 q 612 488 614 471 q 606 510 610 504 q 592 490 600 500 q 575 479 585 479 q 536 493 563 479 l 536 489 q 544 469 536 482 q 553 447 553 456 q 541 428 553 439 q 529 414 529 418 q 542 408 531 408 q 574 415 553 408 q 593 392 581 393 l 600 396 q 614 422 604 407 q 683 439 639 425 m 581 588 q 574 622 581 604 q 558 595 567 608 q 533 582 550 582 q 507 601 513 582 q 497 636 501 619 q 451 671 451 636 q 464 693 451 685 q 486 708 483 706 q 483 713 485 710 q 482 717 482 717 q 426 690 476 717 q 367 664 375 664 q 342 675 353 664 l 331 676 q 271 638 296 678 q 236 567 254 603 q 232 561 232 561 q 257 572 238 561 q 286 583 276 583 q 314 554 314 583 q 301 519 314 539 q 283 488 285 492 q 293 478 283 486 q 324 489 301 489 q 371 472 332 489 q 415 454 410 454 q 451 488 419 454 q 497 521 483 521 q 526 506 519 521 q 528 521 528 508 q 554 553 528 533 q 581 588 581 572 m 533 443 q 526 454 533 449 q 522 443 524 454 q 518 431 519 432 l 522 428 q 533 443 531 436 m 774 279 q 708 314 708 311 q 733 450 717 368 l 729 453 q 631 350 699 417 q 571 379 603 361 q 604 318 582 358 q 508 215 572 283 l 513 211 q 644 244 567 226 q 683 178 657 222 q 699 258 688 192 q 774 279 725 261 m 350 729 q 297 761 332 739 q 309 787 299 771 q 319 821 319 803 q 332 835 319 826 q 242 794 310 828 q 194 822 226 804 q 186 772 196 804 q 160 753 179 761 q 129 739 135 742 q 164 724 147 732 q 186 699 186 714 q 182 629 186 674 q 175 561 175 579 l 179 558 q 263 703 206 607 q 350 729 293 707 m 664 164 q 640 201 654 181 l 633 197 l 633 192 q 635 171 633 178 q 661 160 644 168 l 664 164 m 544 379 q 508 395 540 386 q 475 414 475 404 q 482 456 475 428 q 489 500 489 485 q 488 501 489 501 q 451 469 486 501 q 408 432 417 436 q 306 469 375 447 q 346 375 346 388 q 333 358 346 368 q 318 342 319 349 q 326 340 322 340 q 340 342 331 340 q 353 343 349 343 q 408 276 368 343 q 454 344 419 303 q 544 379 485 356 m 163 649 q 139 635 133 635 l 136 635 q 119 653 131 640 l 115 651 q 118 633 118 639 q 104 613 118 621 q 78 597 90 604 q 113 590 82 596 q 150 583 144 583 q 160 596 160 583 q 158 608 160 600 q 156 619 156 615 q 159 632 156 624 q 163 644 163 640 q 163 649 163 647 m 660 139 q 596 158 631 151 l 596 164 q 596 186 596 192 l 589 188 q 551 171 561 189 q 514 172 547 172 q 500 181 515 172 l 497 175 q 517 132 497 175 q 510 121 514 124 q 524 101 518 117 q 533 86 529 86 q 541 88 536 86 q 549 89 546 89 q 556 86 550 88 q 600 47 557 85 q 601 58 601 53 q 600 74 601 64 q 599 89 599 83 q 622 119 599 106 q 660 139 640 129 m 306 436 q 233 488 292 449 q 272 565 250 511 q 197 524 246 553 q 190 519 194 522 q 117 571 181 519 l 113 569 q 138 492 122 543 q 74 457 115 481 q 150 446 99 451 q 175 381 157 424 q 207 439 185 400 q 247 436 221 439 q 288 433 274 433 q 306 436 306 433 m 289 393 q 236 400 279 400 q 233 396 233 399 q 238 389 233 392 q 224 365 232 381 l 229 363 q 250 375 238 365 q 268 353 257 368 q 271 360 271 356 q 269 369 271 363 q 268 378 268 375 q 289 393 268 386 m 486 104 q 450 115 479 108 q 415 119 421 121 q 376 199 403 146 q 344 124 361 161 q 300 113 335 117 q 253 104 258 107 q 322 65 276 93 q 301 17 314 50 q 363 46 311 19 q 478 -18 400 22 l 479 -11 q 435 78 465 19 q 486 104 453 85 m 246 126 q 243 129 244 129 q 228 126 239 129 q 210 124 217 124 l 188 124 l 176 124 q 190 90 176 126 q 163 69 182 83 q 179 64 171 64 q 186 65 182 64 q 192 65 190 65 q 219 31 206 65 q 233 76 222 47 l 240 78 q 236 92 236 85 q 241 109 236 97 q 246 126 246 121 z "}," ":{"ha":347,"x_min":0,"x_max":0,"o":""},"!":{"ha":510,"x_min":53,"x_max":469,"o":"m 469 779 q 447 751 469 761 q 419 739 421 742 q 415 688 415 731 q 388 651 415 651 q 357 667 368 651 q 349 649 349 660 q 365 625 349 628 q 396 625 358 625 q 422 611 418 625 q 429 599 426 608 q 422 582 428 593 q 405 569 419 579 q 390 553 390 558 q 394 534 390 547 q 399 515 399 521 q 369 489 399 489 q 350 488 350 489 q 353 482 350 486 q 357 475 357 478 l 357 450 l 357 447 q 374 442 357 450 q 390 421 390 435 q 385 401 390 414 q 381 388 381 389 q 383 372 381 382 q 386 356 386 361 q 356 329 386 329 q 338 336 346 329 q 304 314 325 314 q 286 322 293 314 q 279 288 285 319 q 260 261 275 267 q 231 268 238 261 q 204 318 219 279 q 182 375 186 367 q 143 356 174 372 q 101 342 118 342 q 68 375 68 342 q 105 434 68 385 q 147 494 142 483 q 121 599 133 528 q 113 606 115 606 q 107 602 113 606 q 94 599 101 599 q 65 629 65 599 q 77 672 65 643 q 89 708 89 700 q 71 771 89 708 q 53 858 53 833 q 81 883 53 883 q 132 853 96 883 q 183 822 168 822 q 225 846 193 822 q 201 886 201 868 q 229 918 201 918 q 288 893 239 918 q 351 861 349 863 q 394 896 368 896 q 424 865 424 896 q 422 851 424 861 q 421 838 421 842 q 445 811 421 828 q 469 779 469 794 m 390 75 q 404 39 390 64 q 418 -1 418 14 q 393 -25 418 -25 q 353 -17 379 -25 q 313 -8 326 -8 q 273 -28 296 -8 q 233 -47 250 -47 q 210 -18 210 -47 q 218 18 210 -1 q 157 33 188 25 q 117 71 117 44 q 153 106 117 94 q 131 115 150 108 q 118 136 118 121 q 122 154 118 142 q 126 174 126 167 q 119 188 126 176 q 113 207 113 199 q 131 233 113 228 q 163 235 135 235 q 180 242 168 235 q 196 249 192 249 q 226 225 213 249 q 265 201 240 201 q 283 207 272 201 q 300 213 294 213 q 324 198 317 213 q 338 171 332 183 q 369 181 349 171 q 403 190 390 190 q 429 164 429 190 q 410 121 429 149 q 390 75 390 93 m 426 793 q 386 815 406 804 q 382 864 382 819 q 381 878 382 872 q 363 853 372 867 q 343 839 354 839 q 332 844 339 839 q 321 849 325 849 q 308 826 318 849 q 299 797 299 803 q 304 787 299 794 q 310 778 310 779 q 308 769 310 775 q 297 756 306 764 q 289 742 289 747 q 297 732 289 732 q 312 738 301 732 q 328 743 322 743 q 356 717 340 743 q 372 692 371 692 q 376 696 375 693 q 375 725 375 711 q 392 776 375 771 q 426 793 421 788 m 274 871 q 251 885 268 874 q 222 894 233 896 l 218 894 q 233 875 222 892 q 251 858 244 858 q 274 871 267 858 m 383 610 q 374 611 382 611 q 357 608 368 611 q 339 604 346 604 q 322 621 325 604 q 310 638 318 638 q 306 621 308 638 q 299 557 304 600 l 306 543 q 319 551 313 551 q 338 542 328 551 q 354 528 353 529 q 356 535 356 531 q 350 552 356 540 q 344 569 344 564 q 364 593 344 579 q 383 610 383 607 m 315 683 q 228 760 228 744 q 249 801 228 761 q 274 856 271 842 l 167 797 q 72 865 133 818 q 89 793 74 842 q 104 719 104 744 q 96 681 104 703 q 82 644 83 651 q 110 658 93 644 q 133 671 126 671 q 179 639 150 671 q 218 592 199 615 q 219 618 219 604 q 217 651 219 629 q 215 683 215 672 q 221 696 215 696 q 261 689 235 696 q 301 682 288 682 q 315 683 308 682 m 296 640 q 267 649 292 649 l 260 650 q 257 642 257 647 q 264 628 257 632 l 289 628 q 292 634 292 628 q 296 640 293 640 m 347 421 l 344 426 l 340 428 q 332 426 338 428 q 324 424 326 424 q 315 431 318 424 q 288 406 288 411 q 292 392 288 399 q 297 383 297 386 q 295 374 297 381 q 293 364 293 368 q 296 356 293 360 q 321 381 315 381 q 330 376 324 381 q 342 371 336 371 q 344 379 344 375 q 338 390 344 383 q 332 400 332 396 q 347 421 332 404 m 318 475 q 281 504 300 490 q 257 543 257 522 q 264 560 257 553 q 257 569 257 560 q 229 554 246 554 q 185 581 219 554 q 140 615 163 597 q 133 608 133 611 l 143 575 q 167 494 150 549 q 88 388 142 458 l 92 381 q 189 424 124 396 q 238 303 193 411 q 247 390 247 308 q 251 421 247 396 q 250 450 254 438 q 318 475 297 461 m 244 183 q 189 206 225 190 q 190 218 190 213 q 185 226 190 224 q 177 219 181 226 q 171 213 174 213 l 169 213 q 136 219 156 213 q 136 213 136 215 q 144 196 136 206 q 153 183 153 186 q 147 170 153 178 q 140 157 140 163 q 144 151 140 151 q 153 153 147 151 q 164 156 160 156 q 169 154 165 156 q 186 128 174 144 q 188 156 188 131 l 189 161 q 244 183 211 167 m 390 167 l 386 174 q 353 160 379 172 q 318 150 332 150 q 299 167 306 150 q 286 193 289 190 q 276 162 282 186 q 262 132 271 138 q 136 82 253 126 q 190 65 153 72 q 244 47 228 57 q 231 4 231 24 l 231 -6 q 265 21 247 7 q 299 35 282 35 q 336 26 314 35 q 374 14 367 17 q 358 52 374 29 q 343 88 343 75 q 390 167 343 113 z "},"\"":{"ha":725,"x_min":49,"x_max":676,"o":"m 203 844 q 154 874 185 853 q 142 906 149 881 q 126 942 136 931 q 121 907 124 938 q 106 885 119 885 q 93 886 101 885 q 82 886 86 886 q 68 883 74 886 q 90 865 79 874 q 107 844 107 853 q 101 801 107 815 l 106 800 q 127 808 114 800 q 146 817 140 817 q 179 792 154 817 q 182 800 182 796 q 178 811 182 804 q 174 822 174 818 q 174 825 174 824 q 188 837 174 831 q 203 844 201 843 m 333 767 q 321 796 321 774 q 326 844 321 813 q 331 892 331 876 q 328 913 331 903 q 275 840 310 889 q 193 922 249 868 q 183 913 183 917 q 213 867 183 889 q 242 831 242 846 q 217 801 242 810 q 222 781 222 792 q 208 749 222 763 q 213 733 213 743 q 121 569 183 678 q 190 604 144 574 q 256 632 231 632 q 274 603 263 632 q 290 565 282 583 q 300 621 300 579 q 320 671 300 658 q 381 710 340 683 q 333 767 350 735 m 676 949 q 638 863 638 872 q 656 820 638 847 q 675 776 675 793 q 647 751 675 754 q 604 751 651 751 q 541 673 572 751 q 486 594 510 594 q 457 649 457 594 q 458 678 457 660 q 460 703 460 697 q 410 763 460 763 q 371 760 411 763 q 404 726 388 744 q 421 688 421 708 q 387 661 421 675 q 347 632 353 647 q 335 563 347 632 q 306 519 328 519 q 274 549 282 519 q 251 579 265 579 q 194 553 232 579 q 135 528 156 528 q 104 557 104 528 q 147 640 104 564 q 199 733 172 688 q 180 758 199 744 q 151 772 161 772 q 117 758 144 772 q 86 790 86 758 q 89 806 86 796 q 92 821 92 815 q 70 842 88 831 q 49 864 53 854 q 56 896 49 890 q 90 901 63 901 q 109 932 103 901 q 139 963 115 963 q 174 926 167 963 q 197 938 186 938 q 243 908 215 938 q 285 878 271 878 q 307 903 293 878 q 343 929 321 929 q 372 901 372 929 q 368 868 372 889 q 364 835 365 842 q 450 881 393 850 q 417 929 417 888 q 408 935 417 932 q 397 939 399 938 q 383 963 383 951 q 392 983 383 972 q 401 1001 401 993 l 401 1031 q 429 1051 401 1051 q 457 1034 444 1051 q 474 1017 469 1017 q 494 1031 482 1017 q 521 1046 507 1046 q 562 1003 546 1046 q 596 961 578 961 q 619 972 601 961 q 647 983 636 983 q 676 949 676 983 m 485 1000 q 471 1006 485 1006 q 454 996 461 996 q 428 1025 446 996 l 418 1015 q 422 986 422 1006 q 413 981 422 981 q 403 976 403 981 q 414 966 403 972 q 426 950 425 960 q 438 924 428 940 q 447 935 442 924 q 461 947 453 947 q 466 942 464 947 q 471 938 468 938 q 481 947 471 938 q 469 967 469 956 q 485 1000 469 979 m 631 967 q 572 932 585 932 q 536 971 556 932 q 510 1025 511 1022 q 499 958 503 1003 q 489 892 496 914 q 471 879 488 892 q 363 817 435 858 l 363 799 q 471 793 399 799 q 469 763 469 779 q 471 653 469 664 q 481 643 471 651 q 519 729 500 686 q 572 793 550 793 q 592 790 579 793 q 611 788 604 788 q 631 804 631 788 q 613 834 631 813 q 596 871 596 856 q 613 914 596 888 q 631 957 631 940 q 631 967 631 960 z "},"$":{"ha":772,"x_min":38,"x_max":744,"o":"m 665 174 q 669 135 665 161 q 674 97 674 110 q 644 42 674 42 q 617 60 635 42 q 596 78 599 78 q 583 67 590 78 q 588 40 588 51 q 558 13 588 13 l 514 14 q 494 25 507 14 q 461 36 482 36 q 415 -20 428 36 q 374 -76 401 -76 q 338 -38 350 -76 q 314 4 326 0 q 279 7 308 6 q 246 18 258 7 q 250 24 250 21 q 248 29 250 25 q 246 36 246 33 q 281 82 246 47 q 169 131 194 131 q 118 115 150 131 q 81 100 86 100 q 53 128 53 100 q 70 164 53 142 q 88 197 88 186 q 63 228 88 203 q 38 269 38 254 q 72 299 38 299 q 103 293 82 299 q 135 288 124 288 q 188 321 168 288 q 231 354 208 354 q 261 321 249 354 q 285 274 275 282 q 344 261 294 267 q 383 232 383 256 q 360 199 383 207 q 314 182 336 190 q 371 161 335 161 q 423 180 392 161 q 468 201 454 199 q 479 213 479 211 q 455 246 479 218 q 431 290 431 274 q 444 318 431 304 q 458 322 458 317 q 428 340 458 340 q 387 333 414 340 q 347 326 360 326 q 338 328 347 326 q 308 358 338 328 q 271 376 292 376 q 224 368 254 376 q 178 360 193 360 q 154 388 154 360 q 169 418 154 403 q 165 424 165 421 q 168 429 165 425 q 171 436 171 433 q 133 449 171 439 q 96 479 96 458 q 113 513 96 490 q 101 525 113 514 q 61 533 82 529 q 38 563 38 543 q 68 597 38 582 q 50 629 50 611 q 58 646 50 639 q 146 728 89 669 q 160 774 149 732 q 186 803 167 803 q 204 799 192 803 q 221 794 217 794 q 244 810 228 794 q 265 828 260 826 q 298 836 282 832 q 318 857 314 840 q 322 879 322 869 q 317 915 322 892 q 313 951 313 939 q 343 983 313 983 q 375 953 358 983 q 406 924 392 924 q 422 935 413 924 q 439 949 439 949 q 449 944 444 949 q 458 949 451 947 q 476 922 476 939 q 467 888 476 910 q 457 856 457 867 q 484 826 457 840 q 526 811 511 811 q 553 821 538 811 q 578 831 568 831 q 608 801 608 831 q 605 785 608 796 q 601 768 601 774 q 625 738 601 751 q 651 713 649 725 q 653 674 653 711 q 672 647 653 660 q 692 621 692 633 q 661 592 692 599 q 651 570 654 590 q 626 550 647 550 q 589 574 611 550 q 579 567 586 567 q 569 568 579 567 q 517 597 550 576 q 502 624 510 603 q 481 656 494 646 q 404 674 467 665 q 343 708 353 681 q 293 676 318 692 q 265 628 265 656 q 274 616 265 618 q 285 611 282 614 q 313 575 299 600 q 333 535 322 554 q 351 545 338 540 q 367 558 365 550 q 386 588 371 572 l 392 588 q 435 558 404 588 q 451 558 440 558 q 469 560 464 560 q 481 550 474 560 q 492 539 489 540 q 526 535 504 539 q 539 510 536 529 q 546 492 542 492 q 588 494 560 492 q 631 496 615 496 q 654 468 654 496 q 646 453 654 458 q 678 404 678 442 q 674 367 678 392 q 669 331 669 343 q 707 303 669 307 q 744 281 744 300 q 705 232 744 256 q 665 174 665 208 m 651 636 q 629 647 647 639 q 618 665 618 651 q 613 669 618 669 q 583 664 593 669 q 578 661 578 665 q 581 653 578 660 q 585 643 585 647 q 575 627 585 640 q 564 611 565 614 q 574 610 568 610 q 585 613 578 610 q 596 615 592 615 q 608 601 604 615 q 626 622 614 615 q 651 636 650 635 m 439 925 q 432 932 439 932 q 415 914 432 932 q 386 896 397 896 q 356 924 371 896 q 333 964 344 943 q 332 950 332 957 q 335 908 332 936 q 338 867 338 881 q 340 860 338 865 q 343 853 343 856 q 328 847 342 851 q 304 824 314 843 q 321 801 304 808 q 347 790 333 796 q 355 763 354 785 q 363 732 356 740 q 382 769 367 736 q 407 796 393 796 q 425 790 414 796 q 428 801 428 796 q 421 828 428 811 q 414 856 414 846 q 439 925 414 863 m 618 713 q 582 735 600 724 q 558 763 558 750 q 562 785 558 771 q 565 806 565 799 q 564 814 565 806 q 507 785 543 807 q 481 808 497 797 q 449 828 464 818 q 446 817 446 824 q 453 796 446 808 q 461 778 461 783 l 458 771 q 413 742 443 756 q 363 718 365 719 q 424 708 382 710 q 488 699 467 707 q 511 665 504 692 q 526 626 518 635 q 550 699 531 656 q 584 708 558 706 q 618 713 610 710 m 454 539 q 438 544 446 544 q 422 542 432 544 q 406 539 411 539 l 400 539 q 386 568 400 539 q 382 535 381 563 q 372 536 378 536 q 347 529 361 536 q 383 503 354 524 q 415 482 411 482 q 421 485 421 482 q 417 493 421 488 q 414 503 414 499 q 433 522 414 508 q 454 539 451 535 m 294 735 q 269 740 294 740 q 256 742 261 740 l 256 756 q 263 783 256 765 q 271 810 271 800 q 238 786 256 807 q 213 765 221 765 q 179 790 203 765 q 164 738 169 776 q 142 699 161 714 q 107 669 111 675 q 121 660 110 661 q 140 660 126 658 q 158 663 156 663 q 194 647 183 663 q 218 617 206 632 q 246 693 224 643 q 275 714 250 697 q 294 735 294 726 m 613 476 q 589 479 601 479 q 552 475 576 479 q 515 471 528 471 q 501 472 508 471 q 506 483 506 476 q 503 498 506 488 q 501 515 500 508 q 460 485 483 513 q 415 457 438 457 q 411 458 414 458 q 400 443 400 458 q 410 428 400 439 q 378 390 378 396 q 408 376 378 379 q 449 371 446 372 q 472 345 458 365 q 497 318 486 325 q 507 317 513 317 q 517 332 517 317 q 515 349 517 338 q 513 367 513 361 q 554 425 513 385 q 613 476 583 450 m 710 283 q 672 294 708 293 q 628 293 640 297 q 633 347 628 311 q 639 400 639 382 q 636 428 639 415 q 576 349 607 389 q 496 300 533 300 q 454 308 474 300 q 449 299 451 304 q 476 263 463 281 q 493 222 493 240 q 482 181 493 208 q 472 138 471 154 l 472 129 q 503 153 488 140 q 535 168 525 168 q 588 126 550 168 q 635 85 625 85 q 636 89 636 86 q 634 100 636 93 q 632 110 632 107 q 628 211 632 183 q 625 224 625 225 q 628 231 625 224 q 667 258 640 243 q 710 283 699 275 m 367 482 q 340 498 367 492 q 308 515 314 504 q 256 601 300 538 q 218 510 232 554 q 211 511 215 511 l 131 500 q 121 492 129 500 q 199 467 147 483 q 169 404 190 444 q 186 401 178 401 q 226 412 200 401 q 265 422 251 422 q 307 401 288 422 q 338 365 322 383 q 342 386 342 374 q 340 408 342 393 q 338 432 338 424 q 352 464 338 453 q 367 482 367 475 m 193 544 q 168 576 168 569 q 178 590 168 581 q 189 606 189 600 q 183 617 189 611 l 179 617 q 162 611 172 617 q 144 606 151 606 q 72 646 125 606 q 71 638 71 642 q 81 616 71 629 q 90 596 90 603 q 76 582 90 588 q 54 574 57 576 q 111 558 75 571 q 122 540 117 556 q 136 525 128 525 l 138 524 q 147 535 142 524 q 154 549 151 547 q 169 544 160 549 q 182 540 178 540 q 193 544 188 540 m 564 110 q 546 115 556 115 q 492 90 525 115 q 504 69 501 85 q 510 53 507 53 q 521 67 514 67 q 533 62 526 67 q 543 57 540 57 q 546 57 544 57 l 550 60 q 540 76 540 69 q 564 110 540 86 m 472 82 q 449 92 469 85 q 429 110 429 100 q 447 147 429 124 q 465 183 465 171 q 464 192 465 183 q 410 162 456 185 q 358 139 365 139 q 341 145 351 139 q 326 151 331 151 q 324 149 325 150 q 317 136 317 144 q 320 120 317 131 q 324 104 324 110 q 308 83 324 89 q 290 76 300 81 q 265 47 282 67 q 271 38 265 38 q 289 42 276 38 q 307 47 301 47 q 342 14 325 47 q 363 -35 351 -10 q 382 15 371 -22 q 406 63 393 49 q 437 70 411 69 q 472 82 463 71 m 343 240 q 298 248 329 247 q 251 259 267 249 q 229 297 236 269 q 218 342 221 336 q 185 296 201 318 q 138 271 164 271 q 113 272 129 271 q 88 274 96 274 q 65 279 75 279 q 58 278 58 279 q 85 244 58 267 q 113 210 113 221 q 96 181 113 200 q 72 154 85 167 q 78 144 72 144 q 117 158 85 144 q 164 172 149 172 q 281 115 199 172 q 283 129 283 121 q 274 160 283 140 q 264 190 264 181 q 296 222 264 208 q 343 240 319 231 z "},"%":{"ha":918,"x_min":33,"x_max":885,"o":"m 686 975 l 678 965 q 572 1013 628 1007 q 408 1074 508 1058 l 410 1086 q 578 1025 508 1071 q 686 975 635 1018 m 740 919 l 733 910 q 344 1061 574 1017 l 347 1072 q 740 919 575 1029 m 789 857 l 782 847 q 561 969 685 915 q 319 1036 421 1029 l 319 1049 q 789 857 532 1036 m 819 808 l 813 799 q 553 943 700 882 q 267 1014 389 1010 l 267 1026 q 557 956 397 1022 q 819 808 697 897 m 849 731 l 843 719 q 746 793 821 729 l 719 796 q 592 869 685 829 q 449 919 514 903 q 199 957 304 957 l 199 969 q 451 932 321 969 q 725 807 654 872 l 731 807 q 638 874 703 838 q 247 990 492 953 l 249 1003 q 722 832 578 953 q 751 804 731 822 l 786 800 q 836 771 803 792 l 828 761 q 782 788 814 772 l 769 790 q 849 731 794 767 m 847 675 l 842 664 q 742 726 806 682 q 646 788 679 769 q 289 903 492 869 l 290 915 q 651 799 496 882 q 750 736 685 781 q 847 675 811 693 m 871 682 l 863 672 q 550 857 732 783 q 197 929 354 935 l 196 942 l 210 943 q 663 819 419 949 q 871 682 785 754 m 876 568 l 867 561 q 761 672 821 621 l 758 672 l 757 675 q 371 850 558 847 l 369 849 l 365 850 l 364 850 q 297 864 347 868 l 296 876 q 321 876 308 878 q 292 879 304 882 l 289 892 q 299 893 294 893 q 369 863 328 893 q 764 686 563 863 q 768 688 765 686 q 854 638 804 688 l 846 628 q 776 675 804 671 q 876 568 838 619 m 885 515 l 874 508 q 626 740 781 646 q 304 836 460 842 l 303 849 l 310 849 q 722 689 522 854 q 885 515 822 606 m 883 375 l 872 371 l 861 401 l 874 406 l 883 375 m 878 490 l 868 483 q 574 751 706 697 q 871 454 731 664 l 860 447 q 704 635 794 549 q 504 768 597 738 l 504 769 q 313 810 413 807 l 313 822 q 513 779 418 819 q 610 747 551 779 q 878 490 733 681 m 861 299 l 849 294 l 839 328 l 851 332 l 861 299 m 269 888 q 247 879 260 879 q 225 885 239 879 l 224 883 l 221 885 l 178 875 l 175 888 l 219 897 q 232 910 225 904 l 175 901 l 172 914 l 233 922 l 235 911 q 260 922 244 917 l 264 910 q 233 894 243 903 q 250 892 244 892 q 261 897 254 892 l 269 888 m 867 422 l 856 415 q 496 743 685 674 q 416 769 469 751 q 322 785 363 786 q 196 756 258 785 q 82 690 157 739 l 75 701 q 240 788 200 782 q 321 799 268 792 q 419 781 365 799 q 513 749 488 758 q 601 706 564 729 q 867 422 735 622 m 279 871 l 276 858 q 235 861 256 861 q 153 843 189 860 l 147 854 q 238 874 186 872 q 279 871 260 874 m 294 847 l 292 835 q 263 838 278 838 q 138 811 211 836 l 133 822 q 261 850 208 849 q 294 847 279 850 m 861 372 l 849 368 q 794 464 826 444 q 849 333 842 382 l 836 332 q 778 469 828 383 l 778 469 q 772 478 775 474 l 772 478 q 647 630 726 563 q 476 728 567 697 q 406 744 457 735 q 381 753 397 747 q 315 761 350 761 q 217 738 276 760 q 133 686 149 713 l 133 686 l 119 674 l 111 683 l 119 690 q 76 650 99 689 l 65 657 q 119 703 92 703 q 132 701 126 703 q 315 774 218 772 q 385 765 350 774 q 410 757 393 763 q 499 735 439 751 q 785 482 682 665 q 861 372 828 479 m 307 817 l 260 807 q 224 786 253 788 q 174 771 200 786 l 167 782 q 229 799 194 799 q 247 810 242 800 q 226 814 239 814 q 129 776 190 814 l 122 788 q 226 825 185 825 q 257 819 244 826 l 304 829 l 307 817 m 168 764 q 121 740 149 764 l 113 750 q 161 776 144 776 l 168 778 l 168 764 m 803 131 q 768 78 786 92 l 761 88 q 693 29 738 54 l 688 40 q 771 140 758 79 l 783 138 q 764 90 778 113 q 790 135 775 99 l 803 131 m 719 135 q 653 88 686 88 q 581 143 614 86 q 533 225 564 171 q 419 418 489 300 l 415 424 l 426 431 l 429 425 q 542 236 497 311 q 590 149 557 207 q 650 100 622 100 q 710 143 679 101 l 719 135 m 774 72 q 721 25 747 35 l 715 36 q 763 79 739 46 l 774 72 m 849 274 l 836 271 q 808 342 832 313 q 643 608 776 489 q 394 728 547 694 q 318 736 350 738 q 176 679 247 735 q 139 638 163 656 q 154 643 146 640 q 219 689 183 679 q 315 721 250 719 q 479 689 393 722 q 729 499 644 626 q 800 349 781 419 q 844 213 840 294 l 832 211 q 811 304 829 260 q 821 219 821 257 q 810 154 822 176 l 799 160 q 808 218 810 181 q 793 327 808 261 q 758 426 778 393 q 717 494 731 472 q 668 557 692 531 q 475 678 599 629 q 314 708 390 710 q 228 679 256 707 q 318 701 267 700 q 511 647 413 703 q 517 647 514 647 q 631 585 553 649 q 768 382 708 521 q 799 225 797 314 q 793 156 799 190 l 781 158 q 785 232 786 190 q 714 462 783 344 q 546 626 644 579 q 697 463 635 565 q 775 253 760 360 l 776 251 l 775 250 q 778 214 778 231 q 738 93 779 143 q 701 54 713 65 q 657 25 681 33 q 585 -14 622 -12 q 475 61 526 -15 q 394 221 440 111 q 333 354 349 331 q 421 121 342 276 q 586 -22 496 -24 q 697 32 640 -21 l 707 22 q 657 -14 681 -1 q 747 29 699 3 l 754 18 q 554 -53 628 -51 q 533 -51 542 -53 q 514 -54 524 -54 q 401 14 450 -56 q 342 97 351 83 q 294 188 310 147 l 294 193 q 283 228 294 211 q 332 92 296 151 q 410 -19 390 0 q 532 -68 458 -69 q 563 -68 542 -68 q 621 -49 586 -67 q 738 -3 672 -22 l 743 -1 l 747 -14 l 740 -15 q 628 -60 676 -35 q 563 -81 589 -81 q 443 -60 485 -82 q 360 26 401 -39 q 269 242 278 151 l 267 243 l 268 246 q 240 389 242 325 q 251 464 240 431 l 263 460 q 254 390 253 429 q 281 249 254 328 q 307 190 308 226 q 421 8 342 99 q 513 -42 467 -43 q 533 -39 524 -42 q 554 -40 542 -40 q 599 -35 574 -40 q 588 -35 593 -35 q 410 117 482 -36 q 321 356 325 297 q 318 381 319 364 l 319 381 q 315 415 317 399 q 367 504 315 492 q 414 514 383 507 q 385 521 399 521 q 350 507 367 521 l 342 517 q 388 535 363 533 q 426 522 401 535 q 568 381 504 486 q 622 274 581 361 q 676 158 642 236 q 682 138 681 150 q 685 154 685 144 q 682 172 683 161 l 678 178 l 681 179 q 658 233 674 203 q 650 249 654 239 q 626 313 643 269 q 446 531 558 472 q 365 549 410 550 q 276 463 276 547 l 264 463 q 361 561 264 560 q 451 542 413 563 q 638 318 568 482 q 661 254 646 297 q 671 236 664 249 q 693 176 688 204 q 703 168 700 168 q 708 182 708 169 q 539 496 618 433 q 467 549 488 538 q 382 574 438 564 l 383 586 q 472 560 442 576 q 547 507 493 549 q 721 185 628 440 q 706 154 719 156 q 696 158 701 154 l 696 154 q 661 110 697 111 q 590 178 625 110 q 514 328 519 318 q 417 444 447 446 l 414 444 q 410 417 408 429 q 433 357 410 394 q 543 165 460 315 q 644 72 594 71 q 669 81 658 72 q 671 82 671 82 q 731 167 732 125 q 671 339 729 218 q 575 497 615 456 q 399 607 497 578 q 347 596 392 599 q 267 572 297 592 q 196 467 219 542 l 183 469 q 353 608 224 596 q 389 615 368 610 l 389 613 l 389 611 l 393 617 q 379 615 388 615 q 347 619 368 618 q 283 606 318 619 q 161 361 158 556 q 168 283 163 317 q 226 78 188 178 q 342 -87 282 -61 q 354 -92 346 -92 q 376 -86 363 -92 q 453 -110 390 -111 l 453 -122 l 447 -122 q 379 -110 403 -124 l 381 -114 q 353 -118 367 -118 q 297 -106 325 -119 l 303 -94 q 351 -106 328 -107 q 372 -104 365 -106 l 371 -101 q 354 -104 363 -104 q 333 -97 346 -104 q 299 -72 311 -83 q 204 93 247 -21 q 156 281 168 192 q 149 361 149 331 q 260 608 146 549 q 131 399 128 557 q 136 308 131 369 q 310 -85 164 42 l 301 -94 q 144 189 189 1 q 118 379 128 258 q 117 318 117 349 q 264 -64 122 61 l 256 -74 q 135 107 169 4 q 104 324 107 190 q 167 597 101 510 q 97 449 122 551 q 79 282 78 363 q 83 218 79 251 l 71 217 q 67 281 67 251 q 82 436 65 351 q 138 582 103 532 l 122 561 l 124 557 l 119 557 q 58 342 63 465 l 46 342 q 100 546 49 457 q 46 407 64 515 l 33 408 q 69 529 46 485 l 60 533 q 99 594 75 578 l 107 583 q 75 539 88 571 q 113 568 90 563 q 224 676 158 639 q 165 638 192 668 l 167 636 q 160 631 164 633 q 126 589 144 615 l 115 597 q 129 615 124 608 q 111 593 119 607 l 100 600 q 118 624 108 614 l 104 617 l 104 615 q 54 513 57 582 l 42 514 q 93 624 46 586 l 93 625 l 94 626 q 168 689 99 660 l 169 692 l 171 692 q 322 749 239 747 q 626 639 461 751 q 748 511 694 593 q 821 347 801 429 q 849 274 843 315 m 115 669 l 81 625 l 81 626 l 58 589 l 49 594 l 71 635 l 72 633 l 104 678 l 115 669 m 521 -28 l 517 -40 q 442 14 472 -22 q 383 86 411 50 l 382 86 l 382 88 q 264 413 267 228 q 264 443 264 426 l 278 442 q 276 414 276 428 q 383 107 279 249 q 321 261 375 147 q 285 418 286 336 q 374 547 282 535 l 376 535 q 297 419 296 524 q 333 267 299 343 q 394 92 399 121 q 449 22 422 57 q 521 -28 481 -12 m 547 -99 q 482 -106 513 -104 q 396 -92 422 -106 q 299 21 351 -65 q 235 157 251 97 q 197 390 199 281 q 226 517 196 453 q 240 543 238 538 q 260 563 249 557 l 265 551 q 236 506 250 543 l 231 508 l 235 504 q 210 392 208 475 q 246 160 211 283 q 308 28 263 103 q 403 -81 360 -57 q 481 -93 426 -93 q 546 -86 510 -92 l 547 -99 m 463 -74 l 461 -86 l 456 -85 q 396 -56 431 -83 q 229 290 276 39 q 221 372 222 329 q 358 588 217 586 q 378 588 365 588 l 376 575 q 363 575 369 575 q 235 376 231 572 q 242 293 235 333 q 314 75 258 188 q 463 -74 383 -67 m 713 -89 l 647 -117 l 642 -104 l 708 -78 l 713 -89 m 751 -39 q 461 -133 625 -124 l 461 -121 q 744 -28 617 -112 l 751 -39 m 636 -118 q 572 -147 621 -128 l 568 -135 q 628 -108 589 -128 l 636 -118 m 363 -78 l 354 -86 q 218 131 267 -12 q 175 388 176 253 q 178 464 174 428 l 190 463 q 186 367 185 414 q 328 -40 190 122 q 363 -78 349 -65 m 565 -144 q 458 -164 540 -156 l 457 -151 q 560 -133 493 -150 l 565 -144 m 561 -171 q 442 -193 513 -192 l 431 -193 l 431 -179 l 443 -179 q 556 -158 510 -179 l 561 -171 m 178 11 l 167 3 q 83 311 86 99 q 83 354 82 333 l 96 353 q 96 308 94 331 q 178 11 99 107 m 454 -167 l 375 -172 l 374 -160 l 453 -154 l 454 -167 m 403 -135 q 363 -142 382 -140 q 318 -136 340 -142 l 321 -124 q 363 -129 343 -129 q 399 -122 379 -128 l 403 -135 m 239 -61 l 232 -72 q 178 -17 192 -43 l 189 -10 q 239 -61 200 -33 m 510 633 l 507 635 l 510 633 l 510 633 m 507 635 l 503 638 l 503 638 l 507 635 m 538 568 q 496 597 519 592 q 538 568 507 583 m 742 207 q 729 260 742 233 q 706 311 717 286 q 693 347 701 324 q 608 490 660 432 q 550 553 590 513 l 550 550 q 479 600 493 572 q 411 631 460 615 q 400 619 408 624 q 583 507 510 588 q 740 186 668 414 q 742 207 742 196 m 757 285 q 657 499 732 400 q 478 650 581 603 q 319 689 393 690 q 157 606 232 686 q 325 678 225 676 q 418 664 350 679 q 463 654 433 663 q 601 548 521 631 q 706 407 682 465 q 757 285 736 328 m 765 217 q 764 247 765 232 q 725 322 749 267 q 693 401 694 399 q 649 469 685 421 q 458 642 550 606 q 417 651 446 646 q 325 665 344 665 q 300 664 313 665 q 397 648 339 664 q 485 611 456 632 l 488 613 l 488 611 q 554 565 531 608 q 618 499 567 557 q 700 360 661 449 q 717 317 706 346 q 728 297 721 310 q 754 208 754 249 q 742 158 756 181 q 682 74 736 111 q 629 40 675 40 q 483 176 569 39 q 535 94 492 143 l 525 86 q 469 183 469 149 q 471 196 469 190 q 369 425 371 363 q 390 460 369 458 q 407 456 399 460 q 415 457 411 457 q 522 340 453 458 q 601 182 565 267 q 661 124 629 122 q 644 143 653 129 q 606 215 643 144 q 510 392 575 274 q 401 478 460 478 q 356 431 356 476 q 369 381 356 408 l 368 381 q 456 179 432 224 q 588 18 529 31 l 586 6 q 408 249 501 24 q 347 400 388 299 l 347 401 q 343 431 343 417 q 401 490 342 489 q 521 399 467 492 q 617 221 535 374 q 656 149 629 196 q 669 132 664 136 q 665 154 671 140 q 640 210 665 154 q 557 378 583 336 q 428 508 499 474 q 402 497 419 500 q 369 492 385 494 q 326 419 325 481 q 335 374 326 399 q 401 236 349 358 q 471 92 443 135 q 583 -1 528 -1 q 632 18 608 0 q 624 18 628 18 q 535 72 571 17 l 544 79 q 625 31 578 29 q 649 35 638 31 l 654 40 l 657 38 q 735 111 692 54 q 765 217 767 153 m 399 635 q 300 651 344 651 q 140 517 183 649 q 223 606 168 574 q 342 638 278 639 l 349 638 l 349 632 q 379 628 364 628 q 399 635 393 628 m 153 667 q 110 633 119 649 q 153 667 136 647 m 663 64 q 644 60 654 61 q 518 185 578 60 q 422 350 493 238 q 396 417 397 392 q 400 444 396 429 q 392 446 396 446 q 382 429 382 446 q 475 211 383 363 q 631 53 572 51 q 663 64 653 53 m 485 197 l 485 197 l 483 199 l 485 197 z "},"&":{"ha":957,"x_min":33,"x_max":926,"o":"m 926 74 q 918 54 926 67 q 910 36 910 42 q 915 20 910 32 q 919 1 919 8 q 892 -25 919 -25 q 872 -17 881 -25 q 846 -37 865 -37 q 839 -36 846 -37 q 790 -17 822 -31 q 718 46 774 -10 q 683 42 713 42 q 544 3 589 42 q 560 -43 560 -8 q 538 -65 560 -65 q 494 -47 518 -65 q 456 -29 469 -29 q 428 -38 446 -29 q 400 -47 410 -47 q 365 7 376 -47 q 332 -17 358 -17 q 291 0 326 -17 q 236 17 256 17 q 215 4 231 17 q 189 -8 200 -8 q 158 17 158 -8 q 124 63 158 43 q 89 103 89 83 q 119 133 89 117 q 150 165 150 150 q 135 186 150 175 q 106 167 125 167 q 72 214 81 167 q 57 226 71 219 q 38 239 43 232 q 35 246 38 242 q 33 253 33 250 q 53 278 33 269 q 76 292 74 286 q 92 324 83 307 q 115 340 100 340 q 131 330 122 340 q 142 319 139 319 q 149 327 146 319 q 154 335 153 335 q 113 364 153 336 q 85 399 85 382 q 115 429 85 424 q 144 468 144 435 q 132 511 144 493 q 119 531 119 529 q 133 598 119 551 q 158 663 147 644 q 124 690 140 676 q 99 724 99 710 q 133 753 99 744 q 183 764 158 758 q 196 793 192 769 q 203 827 199 810 q 225 845 207 844 q 260 846 243 846 q 257 856 257 851 q 276 879 257 875 q 310 879 279 879 q 333 884 318 879 q 357 889 347 889 q 392 885 368 889 q 428 882 415 882 q 472 912 451 882 q 506 942 492 942 q 535 897 528 942 q 544 836 539 867 q 576 806 551 821 q 607 783 600 792 q 617 744 610 768 q 642 733 619 740 q 669 711 664 725 q 650 672 669 692 q 655 659 650 669 q 660 643 660 649 q 648 624 660 640 q 636 600 636 608 q 643 575 636 592 q 650 557 650 558 q 621 535 650 535 q 605 537 615 535 q 589 539 594 539 q 583 538 589 539 q 563 504 563 524 q 568 489 563 497 q 588 436 569 488 q 638 408 599 408 q 738 442 682 408 q 751 472 747 447 q 761 504 756 496 q 788 515 782 515 q 813 494 801 515 q 835 474 824 474 q 864 483 844 474 q 896 492 883 492 q 922 461 922 492 q 899 420 922 450 q 876 378 876 390 q 891 342 876 365 q 906 306 906 319 q 882 276 906 276 q 842 285 868 276 q 801 293 815 293 q 778 285 790 293 q 765 268 765 278 q 778 211 765 246 q 810 167 792 169 q 874 136 874 154 q 870 122 874 131 q 867 108 867 114 q 878 99 867 99 q 888 101 882 99 q 896 104 894 104 q 926 74 926 104 m 621 711 q 593 734 621 719 q 558 749 565 749 q 535 708 535 749 q 519 682 535 711 q 529 672 521 672 q 621 711 621 672 m 554 788 q 506 832 535 800 q 499 877 499 846 q 492 924 499 908 q 469 885 481 903 q 426 867 458 867 q 388 868 414 867 q 349 869 361 869 q 332 876 349 869 l 331 876 q 375 837 331 869 q 419 793 419 804 q 414 778 419 789 q 408 764 408 768 q 419 753 408 753 q 440 759 426 753 q 463 765 454 765 q 481 754 469 765 q 494 743 493 743 q 499 759 499 743 q 521 779 499 775 q 554 788 553 788 m 618 657 q 611 663 618 663 q 563 643 572 643 q 535 658 547 643 q 530 641 531 653 q 525 624 529 629 q 482 600 510 617 q 510 593 486 596 q 529 582 529 592 q 526 569 529 578 q 524 556 524 560 q 533 549 524 549 q 551 565 542 549 q 568 581 560 581 q 601 571 579 579 q 606 582 606 576 q 598 599 606 588 q 590 617 590 610 q 593 624 590 617 q 618 657 608 640 m 872 469 q 838 458 864 468 q 804 451 817 451 q 789 469 799 451 q 775 494 782 482 q 763 462 767 486 q 747 432 760 438 q 650 393 718 418 q 631 386 631 386 q 678 362 631 372 q 726 339 726 351 q 713 296 726 347 q 750 316 729 296 q 786 336 771 336 q 863 311 801 336 l 863 318 q 849 356 864 333 q 833 392 833 378 q 853 429 833 406 q 872 469 872 453 m 356 813 q 320 839 344 817 q 279 861 296 861 q 274 836 274 861 q 250 822 257 836 q 258 815 250 817 q 269 817 261 815 q 276 798 276 813 q 283 779 276 783 q 313 806 290 801 q 356 813 335 810 m 515 633 q 504 660 504 646 q 506 670 504 664 q 507 681 507 676 q 492 710 507 699 q 458 722 476 722 q 388 704 414 722 q 332 658 360 681 q 342 639 332 639 q 356 651 346 639 q 375 664 367 664 q 408 633 401 664 q 444 603 415 603 q 515 633 483 603 m 525 508 l 515 518 q 469 504 493 511 q 429 479 446 497 q 463 442 454 467 q 464 439 463 439 q 472 447 465 439 q 486 456 479 456 q 496 452 490 456 q 504 449 501 449 q 515 460 515 449 q 506 465 515 465 l 511 469 q 501 475 507 472 q 525 508 508 497 m 396 779 q 385 776 393 779 q 375 774 378 774 q 283 761 293 761 q 242 785 250 761 q 221 832 231 822 q 208 788 211 815 q 196 754 204 761 q 147 742 185 742 q 115 735 125 742 q 150 713 117 733 q 174 683 174 697 q 156 613 174 660 q 139 542 139 567 q 256 640 238 640 q 274 633 263 640 q 293 625 286 625 q 307 636 307 625 q 299 653 307 643 q 290 669 290 664 q 340 722 293 678 q 394 779 386 765 q 396 779 396 781 m 699 306 q 693 311 699 311 q 678 308 688 311 q 665 306 669 306 q 650 321 657 306 q 632 336 643 336 q 618 320 624 336 q 607 301 613 304 q 564 296 592 301 q 558 332 558 318 q 578 369 558 354 q 617 393 597 381 q 568 404 593 399 q 549 444 549 410 q 539 469 549 461 q 519 438 529 454 q 489 419 506 419 q 447 432 471 419 q 443 417 443 432 q 463 375 463 388 q 447 344 463 364 q 432 318 432 324 q 438 315 432 315 q 453 321 447 315 q 488 328 471 328 q 554 296 524 328 q 547 297 551 296 q 540 297 542 297 q 529 292 533 297 q 567 275 549 283 q 597 253 592 264 q 601 214 601 243 q 604 211 603 211 q 610 214 606 211 q 617 214 614 217 q 640 239 629 239 q 658 231 647 239 q 674 222 669 222 l 679 224 q 682 232 682 228 q 677 248 682 238 q 672 264 672 258 q 685 285 672 272 q 699 306 699 297 m 883 79 q 876 85 881 85 q 862 79 871 85 q 849 74 853 74 q 842 84 844 74 q 836 94 839 94 q 821 65 821 94 q 811 60 811 65 q 829 35 817 58 q 828 25 829 32 q 828 17 828 19 q 831 7 828 11 q 854 24 842 24 q 865 19 860 24 q 872 15 871 15 q 879 22 876 15 q 867 49 867 33 q 883 79 867 67 m 486 571 q 375 606 439 582 q 373 623 374 607 q 365 639 372 639 q 350 622 360 639 q 328 606 340 606 q 307 608 321 606 q 286 611 293 611 q 256 606 269 611 q 285 536 285 556 q 260 432 285 489 q 269 426 263 429 q 299 452 283 439 q 326 465 315 465 q 365 438 340 465 q 400 397 382 418 q 401 417 401 407 q 395 457 401 431 q 389 499 389 483 l 390 508 q 400 514 394 514 q 449 533 424 514 q 486 571 450 535 m 829 138 q 793 149 819 147 q 761 161 767 151 q 742 217 750 179 q 728 272 735 256 q 701 219 715 256 q 675 167 686 182 l 660 167 q 640 171 646 167 q 633 165 633 171 q 645 154 633 165 q 657 131 657 143 q 636 79 657 121 q 653 76 643 76 q 677 79 661 76 q 701 82 693 82 q 746 60 722 82 q 781 22 763 40 q 786 36 786 28 q 779 63 786 46 q 772 90 772 81 q 794 119 772 106 q 829 138 811 128 m 244 572 q 183 524 232 572 q 213 488 194 517 q 242 458 231 458 q 272 508 272 458 q 262 546 272 519 q 244 572 251 572 m 601 128 q 585 156 585 140 q 592 175 585 165 q 599 186 599 185 q 594 191 599 190 q 589 192 590 192 q 578 186 585 192 q 567 181 571 181 q 539 219 565 181 q 535 208 535 214 q 537 196 535 204 q 539 183 539 188 q 529 169 539 174 q 519 161 519 164 q 539 151 528 154 q 549 124 543 151 q 551 121 550 122 q 571 129 565 129 q 581 127 575 129 q 592 125 588 125 q 601 128 596 125 m 558 239 q 532 254 546 246 q 515 277 518 263 q 511 292 513 292 q 478 284 500 292 q 444 276 456 276 q 413 308 413 276 q 426 338 413 321 q 447 364 447 363 q 443 374 447 369 q 419 358 435 358 q 373 388 400 358 q 331 418 346 418 q 301 394 315 418 q 288 354 288 371 q 299 319 288 342 q 310 283 310 296 q 283 251 310 251 q 217 292 267 251 q 279 186 222 236 q 318 171 293 174 q 361 167 339 168 q 364 214 363 190 q 390 243 368 243 q 455 188 418 243 q 503 132 492 132 q 504 133 504 132 q 502 143 504 136 q 500 154 500 150 q 525 181 500 168 q 519 193 519 183 q 519 206 519 199 q 558 239 515 228 m 265 292 q 265 301 265 296 q 254 337 265 314 q 243 371 243 360 q 256 393 243 383 q 247 425 247 399 q 240 442 247 442 q 228 439 236 442 q 215 436 219 436 q 190 465 210 436 q 164 504 167 500 q 154 485 154 503 q 157 463 154 478 q 160 442 160 449 q 140 421 160 426 q 101 413 119 415 q 164 369 122 399 q 167 332 167 365 q 168 329 167 329 l 168 331 q 189 335 179 335 q 229 318 208 335 q 265 292 260 294 m 617 85 q 547 101 594 94 q 476 119 499 108 q 428 169 453 129 q 385 229 399 217 q 382 222 383 229 q 375 214 381 214 q 376 193 376 214 q 381 186 376 190 q 375 172 375 181 q 377 160 375 168 q 379 147 379 151 q 357 129 379 131 q 324 132 396 132 q 303 128 313 132 q 347 96 310 119 q 381 56 376 79 q 383 22 382 39 q 399 -3 388 -3 q 424 8 407 -3 q 450 18 440 18 q 483 0 460 18 q 515 -26 500 -12 q 517 -17 517 -22 q 509 6 517 -8 q 501 25 501 19 q 553 60 510 42 q 617 85 585 72 m 318 26 l 318 33 q 301 70 319 49 q 283 110 283 92 q 313 151 283 140 q 246 171 289 154 q 203 238 238 178 q 158 315 181 276 q 156 288 156 303 q 160 239 156 271 q 164 192 164 207 q 150 139 164 150 q 106 114 128 126 q 153 93 115 103 q 168 36 168 89 q 178 32 168 31 q 221 61 207 61 q 268 47 233 61 q 318 26 317 26 m 144 224 q 142 261 142 229 q 135 278 142 272 q 101 321 122 290 q 98 299 96 314 q 96 278 100 285 q 57 263 57 278 q 76 249 57 257 q 96 239 94 240 q 90 228 90 233 q 101 214 90 219 q 118 228 110 228 q 131 223 124 228 q 139 218 138 218 q 144 224 144 218 z "},"'":{"ha":469,"x_min":49,"x_max":421,"o":"m 421 715 q 387 689 421 703 q 347 660 353 675 q 335 590 347 660 q 306 547 328 547 q 274 577 282 547 q 251 607 265 607 q 194 581 232 607 q 135 556 156 556 q 104 585 104 556 q 147 668 104 592 q 199 761 172 715 q 189 781 199 781 q 168 790 179 781 q 149 800 157 800 q 117 786 144 800 q 86 818 86 786 q 89 833 86 824 q 92 849 92 843 q 70 870 88 858 q 49 892 53 882 q 56 924 49 918 q 90 929 63 929 q 109 960 103 929 q 139 990 115 990 q 174 954 167 990 q 197 965 186 965 q 243 935 215 965 q 286 906 271 906 q 307 931 293 906 q 343 957 321 957 q 372 929 372 957 q 367 872 372 911 q 363 814 363 833 q 392 767 363 794 q 421 715 421 739 m 203 872 q 154 901 185 881 q 142 933 149 908 q 126 969 136 958 q 121 935 124 965 q 106 913 119 913 q 93 914 101 913 q 82 914 86 914 q 68 911 74 914 q 90 893 79 901 q 107 872 107 881 q 101 829 107 843 l 106 828 q 127 836 114 828 q 146 844 140 844 q 179 819 154 844 q 182 828 182 824 q 178 839 182 832 q 174 850 174 846 q 174 853 174 851 q 188 865 174 858 q 203 872 201 871 m 381 738 q 322 840 322 785 q 326 879 322 853 q 331 919 331 906 q 328 940 331 931 q 275 868 310 917 q 193 950 249 896 q 183 940 183 944 q 213 895 183 917 q 242 858 242 874 q 217 829 242 838 q 222 808 222 819 q 208 776 222 790 q 213 761 213 771 q 121 597 183 706 q 190 632 144 601 q 256 660 231 660 q 274 631 263 660 q 290 593 282 611 q 300 649 300 607 q 320 698 300 685 q 381 738 340 711 z "},"(":{"ha":479,"x_min":42,"x_max":440,"o":"m 400 803 q 433 769 433 781 q 415 736 433 743 q 375 735 410 735 q 304 692 328 735 q 285 606 285 657 q 276 585 281 599 q 285 582 278 582 q 361 549 361 582 q 319 509 361 532 q 276 447 276 486 q 279 406 276 433 q 282 367 282 379 q 256 314 282 314 q 231 326 240 314 l 221 317 q 256 274 247 303 q 274 279 264 279 q 295 272 286 279 q 313 230 304 265 q 338 186 321 194 q 383 172 360 179 q 407 138 407 164 q 390 114 407 125 q 433 36 433 71 q 428 15 433 28 q 422 -3 422 1 q 425 -17 422 -7 q 428 -32 428 -28 q 401 -56 428 -56 q 385 -50 393 -56 q 350 -71 371 -71 q 326 -51 331 -71 q 318 -21 319 -24 q 281 -8 311 -12 q 246 8 251 -4 q 236 65 247 29 q 189 79 229 72 q 156 110 156 86 q 178 143 156 132 l 168 153 q 158 146 165 146 q 128 171 128 146 q 132 189 128 178 q 136 207 136 200 q 101 253 136 239 q 67 282 67 267 q 90 315 67 299 q 114 347 114 331 q 105 363 114 361 q 85 365 96 364 q 67 392 67 367 q 77 435 67 407 q 88 478 88 463 q 65 524 88 499 q 42 567 42 549 q 75 593 42 593 q 97 592 82 593 q 119 590 111 590 q 158 610 146 590 q 154 619 160 615 q 158 629 154 625 q 143 649 158 643 q 121 664 124 656 q 119 672 121 667 q 118 681 118 678 q 121 688 118 682 q 149 729 144 704 q 149 779 149 732 q 178 804 149 804 q 193 799 188 804 q 236 835 203 815 q 254 900 254 846 q 285 929 254 929 q 310 905 300 929 q 328 881 319 881 q 365 883 340 881 q 404 886 390 886 q 440 863 440 886 q 400 803 440 843 m 400 871 l 389 871 q 353 867 376 872 q 318 861 329 861 q 288 876 290 861 q 275 904 282 900 q 271 896 272 904 q 265 885 269 888 q 271 872 271 879 q 269 861 271 868 q 267 851 267 854 q 269 842 267 847 q 221 808 253 839 l 221 804 q 241 791 221 797 q 265 778 261 785 q 269 731 269 772 q 279 721 269 731 q 307 760 303 757 q 351 768 317 768 q 390 779 376 768 q 372 792 386 785 q 357 808 357 800 q 374 842 357 825 q 400 871 397 867 m 224 722 q 225 740 224 728 q 226 758 226 753 q 224 761 226 761 q 213 758 221 761 q 200 754 204 754 q 186 767 194 754 q 172 779 178 779 q 164 769 168 779 q 166 753 164 764 q 168 736 168 742 q 169 719 169 738 q 158 711 169 715 q 139 692 158 711 q 154 685 147 685 q 168 692 161 685 q 167 664 168 633 q 178 644 168 654 q 197 692 186 669 q 214 698 200 697 q 228 703 228 699 q 226 713 228 706 q 224 722 224 719 m 318 557 q 278 564 303 564 q 236 567 243 565 q 246 628 240 576 q 251 692 251 679 q 251 693 251 693 q 190 633 238 693 q 115 572 143 572 q 88 574 106 572 q 63 576 71 576 q 84 535 63 558 q 106 485 106 513 q 94 458 106 483 q 83 419 83 433 q 86 403 83 411 q 114 428 100 415 q 146 442 133 442 q 196 406 160 442 q 240 356 218 381 q 246 376 246 364 q 244 408 246 386 q 242 443 242 429 q 240 464 242 450 q 238 485 238 478 q 269 528 238 507 q 318 557 293 543 m 207 297 q 185 319 185 303 q 189 342 185 328 q 193 364 193 357 q 188 371 193 371 q 176 363 186 371 q 158 356 165 356 q 148 369 151 356 q 139 383 144 383 q 126 358 128 383 q 125 326 125 326 q 86 297 124 321 q 114 289 92 292 q 134 273 131 288 q 149 235 138 258 q 163 271 156 253 q 186 294 172 294 q 197 292 190 294 l 203 288 q 207 297 204 292 m 390 75 q 338 124 365 92 q 351 138 339 129 q 363 150 363 146 q 338 167 363 161 q 303 176 307 174 q 279 217 290 186 q 260 264 265 254 q 253 213 254 250 q 242 164 251 176 q 208 142 233 151 q 174 124 182 132 q 240 100 199 119 q 256 65 251 90 q 265 28 260 36 q 284 67 274 46 q 314 88 294 88 q 344 80 325 88 q 375 72 364 72 q 390 75 383 72 m 231 210 q 220 215 229 213 q 211 219 211 217 q 215 233 211 224 q 218 246 218 242 q 213 254 218 254 q 203 249 206 246 q 174 192 194 229 q 197 157 181 179 q 206 190 201 174 q 231 210 211 207 m 390 -11 q 381 31 381 -3 q 365 39 381 38 q 342 46 346 40 q 328 29 339 35 q 308 18 318 24 q 342 -31 333 14 q 365 -8 357 -8 q 376 -13 371 -8 q 383 -18 382 -18 q 390 -11 388 -18 z "},")":{"ha":476,"x_min":46,"x_max":451,"o":"m 440 311 q 415 313 432 311 q 389 313 397 313 q 339 272 339 313 q 361 247 339 257 q 383 224 383 238 q 369 198 383 213 q 354 176 356 183 q 349 114 353 154 q 326 93 346 93 q 311 99 318 93 q 301 79 308 92 q 263 54 282 67 q 256 4 256 47 q 239 -26 256 -22 q 213 -42 222 -31 q 193 -67 196 -64 q 184 -87 190 -69 q 165 -104 178 -104 q 160 -107 164 -104 q 156 -110 157 -110 q 153 -110 154 -110 q 122 -85 144 -99 q 74 -58 74 -75 q 76 -45 74 -54 q 81 -31 79 -36 q 82 -17 82 -25 q 76 9 82 -8 q 69 35 69 26 q 84 60 69 47 q 99 79 99 72 q 100 85 100 82 q 85 98 100 88 q 69 125 69 108 q 135 158 69 158 q 171 173 161 158 q 190 206 181 188 q 201 213 192 208 q 210 219 211 218 l 208 231 q 213 265 208 243 q 217 296 217 286 q 214 315 217 306 q 194 311 206 311 q 138 346 138 311 q 177 385 138 367 q 217 449 217 404 q 210 502 217 467 q 203 551 203 538 q 215 573 203 558 q 226 618 226 588 q 192 652 226 642 q 158 679 158 663 q 160 694 158 685 q 163 708 163 704 q 161 715 163 708 q 158 724 160 717 q 151 731 157 731 q 147 729 150 731 q 142 729 143 729 q 107 756 107 729 q 108 764 107 758 q 110 772 110 769 q 88 804 110 804 q 76 803 83 804 q 67 801 69 801 q 46 822 46 801 q 65 894 46 879 q 83 907 71 907 q 99 899 92 907 q 133 931 129 931 q 147 928 138 931 q 165 918 158 931 q 175 894 171 906 l 190 894 q 201 882 196 894 q 210 869 206 869 q 224 872 215 869 q 239 875 233 875 q 269 851 269 875 q 265 828 269 843 q 261 804 261 813 q 263 793 261 799 q 303 835 279 835 q 333 792 325 835 q 344 731 339 761 q 381 704 349 719 q 408 667 408 692 q 383 639 408 656 q 410 589 410 617 q 378 547 410 561 q 385 540 383 547 q 388 533 386 533 q 400 536 394 536 q 422 507 422 536 q 415 462 422 492 q 407 417 407 432 q 429 382 407 407 q 451 342 451 357 q 440 311 451 317 m 243 779 q 219 793 231 783 q 217 804 217 799 q 223 828 217 813 q 229 851 229 843 q 222 857 229 857 q 210 846 221 857 q 194 835 200 835 q 190 836 192 836 q 178 853 183 836 q 165 875 172 871 q 163 840 163 869 q 157 803 163 811 q 140 791 154 800 q 126 776 126 782 l 128 774 q 153 771 128 771 q 161 769 153 771 q 185 715 168 750 q 197 753 194 725 q 229 772 200 772 q 243 779 239 772 m 151 865 q 131 885 131 871 q 138 904 131 892 q 128 908 132 908 q 112 896 124 908 q 85 883 100 883 q 75 889 78 883 q 68 883 68 889 q 73 876 68 882 q 78 864 78 869 q 65 846 78 856 q 74 840 68 840 q 82 844 76 840 q 90 847 88 847 q 102 834 97 847 q 117 821 107 821 q 124 844 124 821 q 132 861 124 857 q 138 860 133 861 q 142 860 140 860 q 151 865 149 860 m 374 606 q 351 631 361 614 q 329 663 340 647 q 368 688 343 669 q 311 721 343 697 q 298 766 303 733 q 286 813 293 799 q 247 721 276 775 q 213 708 240 714 q 171 697 181 703 q 215 676 193 686 q 243 640 243 664 q 240 622 243 635 q 238 603 238 610 q 243 586 238 593 q 265 615 249 596 q 289 635 282 635 q 329 617 300 635 q 361 600 358 600 q 374 606 367 600 m 338 554 q 344 571 338 561 q 325 586 336 576 q 315 581 322 583 l 306 590 q 292 577 304 589 q 281 558 281 565 q 291 547 281 554 q 301 528 301 540 q 306 521 301 521 q 315 528 308 521 q 328 535 321 535 q 344 528 335 535 q 350 535 350 531 q 344 542 350 536 q 338 554 338 547 m 417 350 q 367 432 367 400 q 376 472 367 444 q 383 514 385 499 l 383 524 q 321 479 339 479 q 271 514 306 479 q 224 561 228 558 q 222 549 222 556 q 224 524 222 540 q 224 499 224 507 q 227 492 224 497 q 231 482 231 486 q 224 475 231 478 q 232 446 232 463 q 193 383 232 407 q 154 357 154 360 q 161 350 154 350 q 233 354 221 350 q 238 333 238 344 q 233 296 238 321 q 229 249 228 271 q 224 229 224 238 q 229 214 224 219 q 289 294 258 254 q 358 350 333 350 q 378 349 365 350 q 397 347 390 347 q 417 350 408 347 m 339 229 q 329 233 335 233 q 320 231 326 233 q 311 229 314 229 q 306 239 311 233 q 269 199 289 225 q 247 151 247 168 q 257 147 247 147 q 269 158 261 149 q 282 167 276 167 q 299 153 290 167 q 311 132 310 133 q 314 188 314 142 q 339 229 314 218 m 267 114 q 229 131 263 118 q 204 157 204 139 q 206 172 204 163 q 207 186 207 182 q 204 200 207 194 q 185 173 197 194 q 161 147 174 151 q 89 132 138 147 q 110 119 92 128 q 128 101 128 111 q 85 42 128 85 q 99 39 92 39 q 135 47 111 39 q 172 54 160 54 q 190 50 182 54 q 210 17 194 39 q 219 36 218 18 q 214 53 214 44 q 235 86 214 69 q 267 114 265 111 m 181 -17 q 167 -12 179 -15 q 154 -4 154 -8 q 161 3 154 3 q 149 8 158 8 q 139 6 144 8 q 121 2 133 3 q 108 -6 108 1 q 103 -23 108 -14 q 99 -36 99 -32 q 101 -42 99 -42 q 110 -38 104 -42 q 119 -35 115 -35 q 133 -51 126 -35 q 146 -67 140 -67 q 151 -60 151 -67 q 181 -17 151 -22 z "},"*":{"ha":569,"x_min":42,"x_max":540,"o":"m 540 718 q 525 686 540 704 q 510 654 510 668 q 511 640 510 649 q 511 626 511 631 q 493 607 511 617 q 462 614 482 607 q 429 621 442 621 q 420 626 426 621 q 411 631 414 631 q 402 627 410 631 q 394 621 394 624 q 415 606 394 613 q 439 593 435 599 q 468 603 449 603 q 485 592 476 603 q 493 571 493 581 q 485 553 493 563 q 478 538 478 543 q 483 527 478 538 q 489 508 489 517 q 461 479 489 479 q 444 486 451 479 q 410 465 428 465 q 387 479 390 465 q 382 506 383 493 q 352 531 376 514 q 321 549 328 549 q 301 531 301 549 q 300 501 300 501 q 324 467 308 499 q 310 451 324 460 q 294 433 296 442 q 256 390 288 390 q 231 407 256 390 q 179 424 207 424 q 182 429 182 426 q 178 440 182 433 q 174 449 174 446 q 189 472 174 464 q 182 492 182 483 q 202 518 182 513 q 222 525 222 524 q 226 556 226 547 q 193 597 226 597 q 174 590 185 597 q 154 582 164 582 l 106 582 q 78 607 78 582 q 80 615 78 610 q 83 621 82 619 q 56 644 69 632 q 42 668 42 656 q 78 694 42 694 q 107 722 85 706 q 110 724 108 724 q 113 722 111 724 q 117 719 115 719 q 121 722 119 719 q 146 703 132 713 q 206 688 176 688 q 237 707 221 688 q 253 743 253 726 q 246 756 253 743 q 239 781 239 769 q 251 810 239 797 q 238 843 238 824 q 267 867 249 867 q 291 876 276 867 q 314 886 306 886 q 347 849 340 886 q 363 836 349 843 q 378 814 378 829 q 363 783 378 799 q 347 757 347 767 q 379 721 347 721 q 415 732 410 721 q 450 768 415 768 q 458 767 450 768 q 481 740 469 753 q 514 739 482 739 q 536 728 529 739 l 531 722 q 540 718 535 721 m 501 718 l 493 728 q 471 723 486 724 q 449 718 456 722 q 438 743 438 743 q 427 729 429 743 q 415 713 425 715 q 438 706 433 707 q 453 689 450 699 q 457 669 456 679 q 465 654 458 654 q 472 660 472 654 q 469 672 472 664 q 465 685 465 681 q 481 702 465 689 q 501 718 496 715 m 333 821 q 322 828 333 824 q 310 840 311 832 q 300 867 310 849 q 283 849 297 853 q 256 843 269 846 q 268 818 268 831 q 264 808 268 813 q 260 800 260 803 q 265 794 260 794 q 285 810 272 799 l 310 808 q 333 821 333 808 m 449 574 q 440 583 449 583 q 413 563 422 583 q 396 525 404 543 q 401 506 396 506 q 415 519 403 507 q 431 528 422 528 q 439 525 435 528 q 444 535 442 528 q 433 549 433 546 q 441 563 433 554 q 449 574 449 571 m 415 689 q 374 701 404 696 q 334 717 344 707 q 285 790 324 726 q 271 776 279 786 q 247 699 261 750 q 203 674 246 693 q 160 649 160 656 q 192 631 160 638 q 231 614 225 624 q 238 554 238 604 q 247 531 238 535 q 269 569 257 549 q 301 590 282 590 q 333 581 315 590 q 367 564 351 572 q 372 583 372 564 q 356 635 356 614 q 379 667 356 654 q 415 689 413 686 m 160 679 q 126 685 156 681 q 101 703 107 686 q 100 685 100 703 l 97 679 q 86 681 93 679 q 76 681 79 681 q 58 675 65 681 q 86 661 61 671 q 97 629 97 656 q 101 621 97 624 q 117 636 103 621 q 126 631 121 636 q 136 636 136 631 q 131 646 136 640 q 160 679 133 653 m 281 482 q 249 494 279 485 q 215 503 219 503 q 208 501 215 503 q 204 482 204 496 q 193 463 204 468 q 201 457 197 457 q 210 460 206 457 q 219 463 215 463 q 235 449 228 463 q 247 429 244 431 q 257 462 251 444 q 281 482 263 479 z "},",":{"ha":425,"x_min":54,"x_max":392,"o":"m 392 -32 q 389 -41 392 -35 q 386 -50 386 -47 q 342 -67 372 -61 q 294 -79 306 -72 q 214 -160 274 -90 q 142 -222 161 -222 q 115 -187 115 -222 q 125 -128 115 -168 q 135 -69 135 -89 q 103 -50 135 -60 q 72 -7 72 -40 q 94 15 78 4 q 115 32 111 25 q 85 56 115 53 q 54 79 54 58 q 61 102 54 88 q 68 124 68 117 q 63 139 68 128 q 57 156 57 150 q 59 165 57 160 q 72 182 61 169 q 85 181 76 182 q 99 179 94 179 q 135 197 103 179 q 181 215 168 215 q 198 206 189 215 q 214 196 207 196 q 219 200 219 196 q 217 210 219 203 q 214 221 214 217 q 218 228 214 226 q 226 235 222 229 l 222 239 q 252 245 232 239 q 282 251 272 251 q 304 244 294 251 q 310 228 310 239 q 314 215 311 217 q 349 182 331 199 q 367 138 367 160 q 357 97 367 124 q 347 54 347 69 q 369 4 347 32 q 392 -32 392 -24 m 308 186 q 282 200 283 199 q 275 222 275 206 q 269 235 275 231 q 256 215 269 215 q 246 225 256 215 q 236 219 236 225 q 238 208 236 217 q 240 196 240 200 q 238 184 240 192 q 235 172 235 176 q 260 167 235 158 q 269 147 260 157 q 308 186 275 169 m 154 114 q 140 133 140 128 q 142 158 140 142 q 144 182 144 174 q 135 186 144 186 q 121 169 132 183 q 101 154 110 154 q 91 159 97 154 q 83 164 85 164 q 78 157 78 164 q 86 126 86 136 q 72 100 86 113 q 89 94 76 94 q 106 94 104 94 q 121 75 115 89 q 131 51 128 56 q 135 85 133 56 q 154 114 138 106 m 343 -10 q 324 20 343 0 q 304 51 306 40 q 303 54 303 53 q 315 97 303 68 q 328 138 328 126 q 324 153 328 146 q 260 114 272 114 q 215 150 249 114 q 169 196 174 193 q 163 169 163 185 q 167 122 163 154 q 171 74 171 89 q 143 26 171 46 q 92 -1 117 13 q 131 -21 99 -11 q 156 -47 156 -31 q 142 -115 156 -68 q 129 -169 129 -161 q 129 -171 129 -171 l 131 -171 q 200 -111 163 -157 q 265 -46 243 -60 q 311 -32 268 -43 q 343 -10 343 -24 z "},"-":{"ha":636,"x_min":53,"x_max":604,"o":"m 604 449 q 556 390 604 429 q 507 319 507 351 q 510 292 507 310 q 513 264 513 274 q 486 232 513 232 q 442 268 464 232 q 401 315 415 310 q 360 321 388 321 q 318 325 332 321 q 285 344 297 325 q 238 331 268 333 q 191 322 201 325 q 163 293 181 318 q 131 268 144 268 q 104 283 108 268 q 103 315 103 288 q 78 352 103 343 q 53 386 53 361 q 101 442 53 419 q 97 475 101 453 q 129 521 97 521 q 158 497 150 521 q 186 474 165 474 q 226 479 200 474 q 265 485 253 485 q 285 465 275 485 q 315 486 299 486 q 338 472 326 486 q 358 458 349 458 q 422 491 397 458 q 465 524 447 524 q 490 501 488 524 q 518 478 493 478 q 542 480 526 478 q 567 482 558 482 q 592 472 579 482 q 604 449 604 463 m 569 460 q 544 463 558 463 q 513 460 535 463 q 481 457 492 457 q 457 463 460 457 q 456 488 456 464 q 449 499 456 499 q 415 474 436 499 q 382 446 394 450 q 358 447 386 447 q 356 445 357 447 q 356 440 356 443 q 371 424 356 435 q 386 404 386 414 q 372 379 386 388 q 343 364 357 371 q 382 361 349 361 q 431 329 404 361 q 468 278 449 303 q 471 296 471 286 q 468 320 471 304 q 465 344 465 336 q 506 410 465 374 q 569 460 538 435 m 343 413 q 319 425 340 415 q 304 440 304 435 q 306 451 304 444 q 307 460 307 457 q 306 461 307 461 q 256 397 281 461 q 260 383 256 385 q 274 385 254 385 q 300 369 289 385 q 303 393 303 372 q 321 404 303 400 q 343 413 339 408 m 236 374 l 193 403 q 222 433 207 417 q 236 460 236 449 q 231 468 236 468 q 212 465 226 468 q 189 461 197 461 q 169 457 181 461 q 150 453 157 453 q 131 476 136 453 q 118 500 125 500 l 111 494 q 115 467 115 481 q 99 424 115 438 q 58 397 78 411 q 110 376 83 386 q 118 325 118 369 q 121 311 118 317 q 153 353 136 332 q 206 364 164 364 q 236 374 225 364 z "},".":{"ha":375,"x_min":56,"x_max":353,"o":"m 288 65 q 294 28 288 53 q 300 -10 300 4 q 269 -44 300 -44 q 223 -17 254 -44 q 171 11 192 11 q 133 -3 156 11 q 99 -17 111 -17 q 69 10 69 -17 q 85 49 69 22 q 101 90 101 76 q 78 135 101 106 q 56 178 56 164 q 104 201 56 201 q 153 189 132 201 q 179 240 167 215 q 215 281 197 272 q 251 242 243 281 q 269 175 263 185 q 317 163 275 165 q 353 129 353 158 q 320 97 353 110 q 288 65 288 83 m 313 142 q 273 151 303 147 q 234 167 243 156 q 218 211 225 178 q 206 261 211 251 q 182 210 194 236 q 143 175 163 175 q 116 180 133 175 q 89 185 99 185 q 75 182 75 185 q 86 165 75 178 q 105 133 86 153 q 124 103 124 113 q 86 25 124 90 q 128 42 103 25 q 161 60 153 60 q 260 -8 192 60 q 261 7 261 -1 q 253 45 261 19 q 246 83 246 71 q 268 119 246 108 q 313 142 290 131 z "},"/":{"ha":597,"x_min":32,"x_max":571,"o":"m 457 607 q 469 587 457 600 q 481 564 481 574 q 479 557 481 564 q 436 522 471 543 q 382 483 397 500 q 356 413 356 456 q 372 381 356 394 q 388 356 388 367 q 369 336 388 346 q 346 319 347 325 q 340 297 344 314 q 311 283 329 294 q 328 251 328 271 q 324 228 328 243 q 319 204 319 213 q 326 183 319 199 q 332 160 332 168 q 303 138 332 138 q 289 141 297 138 q 276 144 281 144 q 265 133 272 144 q 258 119 258 121 q 291 104 274 113 q 307 81 308 96 l 306 75 q 301 61 301 71 q 224 22 275 49 q 239 -11 229 11 q 206 -47 239 -47 q 178 -31 196 -47 q 146 -15 161 -15 q 115 -26 135 -15 q 82 -37 94 -37 q 54 -12 54 -37 q 63 25 54 1 q 72 61 72 49 q 52 110 72 82 q 32 157 32 139 q 60 182 32 182 q 80 176 67 182 q 100 171 93 171 q 108 172 100 171 q 99 201 106 185 q 65 243 65 229 q 75 264 65 254 q 94 268 81 265 q 122 311 103 283 q 132 336 122 331 q 92 389 92 368 q 114 414 92 410 q 150 414 115 414 q 179 429 169 414 q 190 461 182 433 q 231 489 208 479 q 251 507 247 497 q 258 572 258 522 q 281 600 258 594 q 321 601 286 601 q 325 611 326 601 l 315 621 q 278 611 297 611 q 247 636 247 611 q 276 685 247 654 q 306 726 306 715 q 290 765 306 739 q 275 807 275 792 q 299 836 275 836 q 342 822 315 836 q 371 807 368 807 q 374 808 372 807 q 439 874 393 818 q 493 924 481 924 q 521 879 521 924 q 510 814 521 853 q 494 750 496 760 q 539 728 517 739 q 571 694 571 711 q 528 660 571 667 q 469 639 478 654 q 457 607 457 617 m 528 707 q 456 746 496 719 q 454 765 454 756 q 467 835 454 789 q 479 904 479 881 q 365 788 401 788 q 331 800 354 788 q 296 818 303 815 l 296 813 q 310 775 294 799 q 326 740 326 751 q 297 691 326 722 q 268 654 268 660 q 286 649 268 649 q 327 660 300 657 q 364 668 354 664 q 407 576 396 590 q 422 633 417 590 q 446 683 428 669 q 485 694 456 690 q 528 707 515 697 m 393 553 q 364 583 393 583 q 354 582 360 583 q 358 598 354 588 q 361 614 361 608 q 360 621 361 614 q 351 625 354 625 q 336 606 346 625 q 325 586 326 588 q 290 585 324 585 q 272 572 272 585 q 276 556 272 567 q 279 539 279 544 q 239 475 279 531 q 249 472 243 472 q 267 480 256 472 q 282 488 278 488 q 301 461 289 488 q 315 428 308 444 q 335 469 326 435 q 349 519 346 511 q 373 536 353 526 q 393 553 393 546 m 278 442 q 247 421 247 442 q 265 411 247 411 q 290 428 290 411 q 278 442 290 442 m 340 375 q 325 381 340 378 q 306 399 310 385 q 296 413 303 413 q 263 389 285 396 q 281 376 278 382 q 281 357 281 374 q 301 331 281 331 l 303 331 q 304 350 304 331 q 308 355 306 351 q 325 363 310 358 q 340 375 340 367 m 204 406 q 207 423 204 411 q 210 440 210 435 q 204 457 210 449 q 176 406 182 410 q 118 399 167 399 q 111 393 111 399 q 132 376 111 388 q 153 351 153 364 q 142 336 153 346 q 147 326 142 326 q 176 340 147 326 q 189 331 181 331 q 200 336 194 331 q 197 339 197 338 q 200 344 197 340 q 200 350 203 349 q 239 371 239 364 q 222 385 239 379 q 204 406 204 392 m 292 192 q 278 225 278 208 q 283 247 278 233 q 288 260 288 260 q 272 267 288 264 q 253 274 256 269 q 229 336 244 299 q 219 278 219 317 q 199 285 206 285 q 183 278 183 285 q 199 261 183 278 q 215 226 215 244 q 211 194 215 215 q 207 163 207 174 q 214 129 207 144 q 236 168 225 149 q 263 199 253 199 q 275 188 267 199 q 286 176 283 178 q 292 192 292 176 m 200 221 q 196 229 200 231 q 188 221 188 226 q 196 211 188 214 q 198 215 196 213 q 200 221 200 218 m 153 274 q 144 271 150 274 q 136 268 139 268 q 128 278 128 268 q 122 288 128 288 q 117 275 117 285 q 114 258 114 261 q 79 249 79 258 q 118 225 93 242 q 113 214 113 219 q 122 201 113 206 q 138 213 126 213 q 151 206 144 213 q 157 215 157 210 q 151 224 157 218 q 146 235 146 231 q 154 249 146 240 q 163 265 163 258 q 153 274 163 274 m 200 172 q 190 176 200 176 q 181 164 181 176 q 190 143 181 153 q 192 151 190 144 q 194 163 194 157 q 200 172 194 169 m 263 90 q 213 110 249 101 q 161 133 178 118 q 144 161 151 143 q 132 192 132 192 q 122 164 132 190 q 104 146 117 146 q 81 153 96 146 q 57 160 65 160 q 46 157 51 160 q 90 75 90 101 q 81 44 90 63 q 72 19 72 25 q 86 7 72 7 q 111 19 93 7 q 139 32 129 32 q 169 15 150 32 q 189 -3 189 -3 q 196 3 196 -3 q 190 20 196 6 q 185 42 185 35 q 218 69 185 54 q 263 90 260 89 z "},":":{"ha":375,"x_min":56,"x_max":353,"o":"m 288 65 q 294 28 288 53 q 300 -10 300 4 q 269 -44 300 -44 q 223 -17 254 -44 q 171 11 192 11 q 133 -3 156 11 q 99 -17 111 -17 q 69 10 69 -17 q 85 49 69 22 q 101 90 101 76 q 78 135 101 106 q 56 178 56 164 q 104 201 56 201 q 153 189 132 201 q 179 240 167 215 q 215 281 197 272 q 251 242 243 281 q 269 175 263 185 q 317 163 275 165 q 353 129 353 158 q 320 97 353 110 q 288 65 288 83 m 313 142 q 273 151 303 147 q 234 167 243 156 q 218 211 225 178 q 206 261 211 251 q 182 210 194 236 q 143 175 163 175 q 116 180 133 175 q 89 185 99 185 q 75 182 75 185 q 86 165 75 178 q 105 133 86 153 q 124 103 124 113 q 86 25 124 90 q 128 42 103 25 q 161 60 153 60 q 260 -8 192 60 q 261 7 261 -1 q 253 45 261 19 q 246 83 246 71 q 268 119 246 108 q 313 142 290 131 m 288 482 q 294 445 288 469 q 300 407 300 421 q 269 372 300 372 q 223 400 254 372 q 171 428 192 428 q 133 414 156 428 q 99 400 111 400 q 69 426 69 400 q 85 466 69 439 q 101 507 101 493 q 78 551 101 522 q 56 594 56 581 q 104 618 56 618 q 153 606 132 618 q 179 657 167 632 q 215 697 197 689 q 251 658 243 697 q 269 592 263 601 q 317 579 275 582 q 353 546 353 575 q 320 513 353 526 q 288 482 288 500 m 313 558 q 273 568 303 564 q 234 583 243 572 q 218 628 225 594 q 206 678 211 668 q 182 626 194 653 q 143 592 163 592 q 116 597 133 592 q 89 601 99 601 q 75 599 75 601 q 86 582 75 594 q 105 549 86 569 q 124 519 124 529 q 86 442 124 507 q 128 459 103 442 q 161 476 153 476 q 260 408 192 476 q 261 424 261 415 q 253 462 261 436 q 246 500 246 488 q 268 536 246 525 q 313 558 290 547 z "},";":{"ha":425,"x_min":54,"x_max":392,"o":"m 392 -32 q 389 -41 392 -35 q 386 -50 386 -47 q 342 -67 372 -61 q 294 -79 306 -72 q 214 -160 274 -90 q 142 -222 161 -222 q 115 -187 115 -222 q 125 -128 115 -168 q 135 -69 135 -89 q 103 -50 135 -60 q 72 -7 72 -40 q 94 15 78 4 q 115 32 111 25 q 85 56 115 53 q 54 79 54 58 q 61 102 54 88 q 68 124 68 117 q 63 139 68 128 q 57 156 57 150 q 59 165 57 160 q 72 182 61 169 q 85 181 76 182 q 99 179 94 179 q 135 197 103 179 q 181 215 168 215 q 198 206 189 215 q 214 196 207 196 q 219 200 219 196 q 217 210 219 203 q 214 221 214 217 q 218 228 214 226 q 226 235 222 229 l 222 239 q 252 245 232 239 q 282 251 272 251 q 304 244 294 251 q 310 228 310 239 q 314 215 311 217 q 349 182 331 199 q 367 138 367 160 q 357 97 367 124 q 347 54 347 69 q 369 4 347 32 q 392 -32 392 -24 m 308 186 q 282 200 283 199 q 275 222 275 206 q 269 235 275 231 q 256 215 269 215 q 246 225 256 215 q 236 219 236 225 q 238 208 236 217 q 240 196 240 200 q 238 184 240 192 q 235 172 235 176 q 260 167 235 158 q 269 147 260 157 q 308 186 275 169 m 154 114 q 140 133 140 128 q 142 158 140 142 q 144 182 144 174 q 135 186 144 186 q 121 169 132 183 q 101 154 110 154 q 91 159 97 154 q 83 164 85 164 q 78 157 78 164 q 86 126 86 136 q 72 100 86 113 q 89 94 76 94 q 106 94 104 94 q 121 75 115 89 q 131 51 128 56 q 135 85 133 56 q 154 114 138 106 m 343 -10 q 324 20 343 0 q 304 51 306 40 q 303 54 303 53 q 315 97 303 68 q 328 138 328 126 q 324 153 328 146 q 260 114 272 114 q 215 150 249 114 q 169 196 174 193 q 163 169 163 185 q 167 122 163 154 q 171 74 171 89 q 143 26 171 46 q 92 -1 117 13 q 131 -21 99 -11 q 156 -47 156 -31 q 142 -115 156 -68 q 129 -169 129 -161 q 129 -171 129 -171 l 131 -171 q 200 -111 163 -157 q 265 -46 243 -60 q 311 -32 268 -43 q 343 -10 343 -24 m 315 482 q 322 445 315 469 q 328 407 328 421 q 297 372 328 372 q 251 400 282 372 q 199 428 219 428 q 161 414 183 428 q 126 400 139 400 q 97 426 97 400 q 113 466 97 439 q 129 507 129 493 q 106 551 129 522 q 83 594 83 581 q 132 618 83 618 q 181 606 160 618 q 207 657 194 632 q 243 697 225 689 q 279 658 271 697 q 297 592 290 601 q 344 579 303 582 q 381 546 381 575 q 348 513 381 526 q 315 482 315 500 m 340 558 q 301 568 331 564 q 262 583 271 572 q 246 628 253 594 q 233 678 239 668 q 210 626 222 653 q 171 592 190 592 q 144 597 161 592 q 117 601 126 601 q 103 599 103 601 q 114 582 103 594 q 133 549 114 569 q 151 519 151 529 q 114 442 151 507 q 156 459 131 442 q 189 476 181 476 q 288 408 219 476 q 289 424 289 415 q 281 462 289 436 q 274 500 274 488 q 296 536 274 525 q 340 558 318 547 z "},"=":{"ha":1679,"x_min":6,"x_max":1674,"o":"m 1447 631 q 1429 542 1447 583 q 1368 483 1407 489 q 1426 610 1426 542 q 1423 634 1426 618 q 1419 658 1419 650 q 1428 667 1419 667 q 1447 631 1447 667 m 1669 -158 l 1657 -172 l 1658 -192 q 1638 -154 1638 -186 q 1629 -147 1635 -151 q 1636 -133 1629 -133 l 1656 -133 q 1669 -143 1658 -133 l 1669 -158 m 1456 18 q 1439 7 1456 10 q 1429 17 1429 10 q 1436 33 1429 28 q 1454 28 1449 33 q 1456 18 1456 22 m 1418 7 q 1407 -3 1414 -3 q 1396 18 1396 -3 q 1404 33 1396 29 q 1418 17 1418 33 l 1418 7 m 1447 -99 q 1439 -111 1447 -107 q 1417 -100 1428 -110 q 1421 -90 1418 -96 q 1404 -57 1404 -69 q 1413 -37 1404 -47 q 1410 -26 1413 -33 q 1408 -17 1408 -19 l 1414 -8 q 1431 -17 1428 -11 q 1431 -35 1431 -18 q 1439 -67 1431 -46 q 1447 -99 1447 -87 m 1674 -3 q 1654 -24 1674 -24 q 1626 0 1658 -24 q 1568 24 1594 24 l 1563 22 l 1561 13 l 1554 11 q 1537 51 1553 26 q 1508 75 1521 75 l 1500 71 q 1488 -8 1486 46 q 1478 -90 1489 -67 l 1479 -100 l 1483 -101 q 1494 -97 1486 -101 q 1524 -93 1503 -93 q 1538 -74 1538 -93 q 1529 -61 1538 -65 q 1513 -75 1519 -68 q 1499 -67 1499 -75 q 1521 39 1499 -12 q 1528 -15 1528 24 q 1539 -40 1528 -40 q 1560 -38 1546 -40 q 1579 -36 1574 -36 q 1590 -22 1585 -36 q 1600 -7 1594 -7 q 1613 -25 1610 -7 q 1631 -46 1617 -43 q 1623 -65 1631 -54 q 1607 -76 1615 -76 q 1595 -67 1601 -76 q 1589 -57 1589 -58 l 1582 -56 l 1572 -64 q 1553 -83 1568 -72 q 1572 -110 1554 -110 q 1593 -99 1581 -110 q 1614 -89 1606 -89 q 1631 -97 1622 -89 l 1631 -111 l 1614 -111 q 1594 -125 1604 -118 q 1571 -125 1585 -131 q 1561 -136 1561 -129 q 1571 -147 1561 -143 q 1589 -137 1578 -147 q 1625 -165 1625 -146 q 1601 -181 1619 -181 q 1593 -182 1593 -181 q 1626 -201 1593 -201 q 1667 -219 1639 -201 q 1604 -235 1639 -235 q 1553 -228 1581 -235 l 1549 -219 q 1564 -199 1554 -212 l 1558 -196 q 1529 -212 1549 -201 l 1528 -219 q 1544 -232 1528 -224 l 1490 -232 l 1490 -214 q 1469 -186 1490 -186 q 1463 -197 1463 -186 q 1464 -214 1463 -206 l 1450 -212 q 1438 -217 1440 -212 q 1438 -232 1433 -222 l 1394 -232 q 1417 -199 1417 -217 q 1407 -194 1413 -194 q 1390 -201 1401 -194 q 1372 -208 1378 -208 q 1358 -193 1358 -208 q 1381 -178 1358 -185 q 1407 -167 1403 -172 q 1444 -119 1422 -151 q 1464 -126 1464 -119 q 1447 -153 1464 -137 q 1431 -172 1431 -168 l 1439 -179 q 1453 -171 1443 -178 q 1472 -164 1464 -164 q 1492 -179 1481 -164 q 1513 -194 1503 -194 q 1535 -181 1529 -194 q 1471 -142 1503 -174 q 1481 -124 1475 -136 q 1467 -78 1467 -103 q 1472 -39 1467 -65 q 1476 1 1476 -12 q 1439 125 1476 125 q 1426 122 1435 125 q 1414 119 1418 119 q 1401 128 1404 119 q 1401 146 1400 135 q 1404 163 1404 163 q 1400 171 1404 168 q 1353 210 1385 186 l 1353 206 q 1366 145 1351 185 q 1381 86 1381 106 q 1376 -17 1381 17 q 1390 -33 1383 -26 q 1386 -44 1390 -40 q 1375 -47 1382 -49 l 1360 -47 q 1362 1 1360 -31 q 1364 50 1364 33 q 1322 192 1364 144 q 1260 111 1301 160 q 1192 43 1213 54 q 1175 18 1189 35 q 1161 -8 1161 1 q 1163 -15 1161 -12 q 1232 54 1196 3 q 1288 138 1260 96 q 1219 14 1276 88 q 1114 -67 1157 -67 q 1101 -62 1110 -67 q 1088 -56 1092 -57 q 1081 -72 1082 -58 q 1074 -89 1079 -85 q 1046 -103 1064 -94 q 913 -131 947 -132 q 837 -157 901 -142 q 749 -172 772 -172 q 736 -162 743 -172 l 721 -172 q 793 -197 754 -197 q 894 -168 832 -197 q 993 -125 986 -128 q 913 -179 972 -154 q 814 -204 853 -204 q 785 -218 806 -218 q 744 -224 771 -218 q 704 -231 718 -231 q 644 -199 679 -231 q 592 -167 610 -167 q 581 -189 582 -167 q 576 -221 578 -218 l 569 -222 q 556 -207 565 -218 q 563 -169 556 -193 q 571 -132 571 -144 q 560 -99 571 -118 q 538 -81 550 -81 q 492 -150 517 -86 q 453 -240 461 -231 q 506 -79 460 -171 l 500 -75 q 486 -97 492 -82 q 474 -124 476 -119 q 450 -144 472 -128 q 433 -174 433 -158 l 438 -174 q 443 -172 440 -172 q 451 -178 451 -172 l 447 -185 q 436 -194 443 -187 l 433 -182 q 390 -214 390 -193 q 425 -225 390 -225 l 425 -232 l 379 -233 q 313 -203 313 -235 q 318 -183 313 -194 l 315 -181 q 284 -211 304 -186 q 247 -236 264 -236 q 209 -206 224 -236 q 185 -176 194 -176 q 179 -185 179 -176 q 201 -232 179 -208 q 6 -233 142 -232 l 6 1101 l 435 1101 q 413 1032 424 1067 q 388 974 394 974 q 367 979 379 974 q 347 950 347 972 q 369 881 347 935 q 392 803 392 826 q 428 746 392 746 q 439 718 428 718 q 500 725 460 718 q 558 743 546 733 q 541 755 550 749 q 533 775 532 761 q 574 775 531 775 q 617 765 586 775 q 661 750 639 757 q 700 721 675 747 q 768 700 721 700 q 888 746 810 700 q 1004 792 965 792 q 1014 764 1006 790 q 1099 754 1096 754 l 1118 756 q 1176 772 1142 772 q 1197 765 1181 772 q 1225 758 1213 758 q 1278 826 1278 758 q 1232 967 1278 901 q 1231 990 1226 974 q 1201 1019 1211 999 q 1181 1058 1190 1039 q 1171 1065 1178 1061 l 1161 1074 q 1156 1101 1161 1083 l 1443 1101 q 1414 956 1439 1094 q 1389 806 1389 818 l 1393 792 q 1419 792 1392 792 q 1471 713 1457 792 q 1444 731 1456 731 q 1421 726 1436 731 q 1396 721 1406 721 q 1415 743 1400 735 q 1431 757 1431 751 q 1417 775 1431 775 q 1372 764 1393 775 q 1347 726 1347 750 q 1375 706 1347 699 l 1357 672 l 1363 663 q 1383 644 1383 651 q 1374 632 1383 638 q 1358 621 1365 626 q 1376 603 1376 615 q 1359 584 1376 597 q 1342 557 1342 571 q 1356 533 1342 533 q 1376 547 1363 533 q 1386 538 1386 543 l 1385 532 q 1353 479 1353 514 q 1356 448 1353 468 q 1360 415 1360 428 q 1364 403 1360 403 q 1424 489 1386 403 q 1463 604 1456 565 l 1469 603 q 1425 465 1461 532 q 1364 371 1414 444 q 1332 299 1332 325 q 1415 189 1332 264 q 1532 93 1474 142 q 1597 49 1556 72 q 1666 10 1658 15 q 1674 -3 1674 6 m 510 767 q 492 764 504 767 q 472 761 479 761 q 458 765 469 761 l 467 774 l 468 779 q 481 779 475 776 q 492 782 488 782 q 510 767 499 782 m 1328 93 q 1158 -171 1328 -39 l 1153 -167 q 1242 -83 1197 -125 q 1293 21 1293 -29 q 1290 43 1293 29 q 1286 64 1286 57 q 1306 86 1293 71 q 1303 103 1303 94 q 1318 154 1303 125 q 1328 93 1328 125 m 1257 -15 q 1250 -28 1254 -24 q 1231 -22 1238 -28 q 1242 -7 1231 -7 q 1257 -15 1257 -7 m 1390 -117 q 1376 -150 1381 -146 q 1346 -169 1361 -160 q 1336 -143 1346 -143 q 1317 -160 1325 -143 q 1301 -185 1307 -181 l 1306 -189 l 1318 -193 q 1332 -179 1321 -187 q 1339 -197 1339 -179 q 1319 -219 1329 -204 q 1336 -225 1325 -225 l 1336 -232 q 1186 -233 1303 -232 q 1276 -158 1231 -196 q 1342 -65 1325 -112 q 1356 -57 1350 -57 q 1363 -60 1358 -57 q 1361 -103 1361 -58 l 1361 -108 l 1365 -108 q 1374 -111 1368 -108 q 1382 -114 1379 -114 q 1386 -112 1383 -112 q 1390 -117 1392 -112 m 1146 697 q 1090 742 1146 733 q 1007 749 1049 746 q 997 753 1004 749 q 985 757 989 757 q 914 732 961 757 q 861 685 861 706 q 867 661 861 675 q 874 644 874 647 q 869 632 874 639 q 914 586 878 628 q 978 564 933 564 q 1067 576 1019 564 q 1129 624 1129 594 q 1106 647 1129 647 q 1085 631 1099 647 q 1067 607 1076 619 q 1054 615 1064 614 q 1044 622 1044 617 q 1058 645 1044 626 q 1072 674 1072 664 q 1065 688 1072 682 q 1018 640 1043 640 q 974 688 989 640 q 951 664 951 681 q 954 653 951 664 q 975 643 957 650 q 989 628 989 636 q 975 610 989 610 q 956 615 961 610 l 951 615 q 928 597 942 607 q 940 632 940 632 q 932 642 940 639 q 906 657 911 653 q 888 679 900 661 q 997 728 963 728 q 1022 724 1004 728 q 1047 721 1040 719 q 1072 724 1078 724 q 1131 675 1092 724 l 1143 679 q 1146 697 1146 689 m 1322 482 q 1313 521 1322 499 q 1304 544 1304 543 q 1309 556 1304 549 q 1314 567 1314 563 q 1306 589 1311 574 q 1308 612 1306 597 q 1311 635 1311 626 q 1297 694 1311 663 q 1258 735 1281 735 q 1213 721 1238 728 q 1175 722 1218 722 q 1164 706 1164 722 q 1173 682 1164 697 q 1182 657 1182 667 q 1178 638 1182 650 q 1172 622 1174 626 q 1125 550 1164 568 q 1031 531 1103 540 q 1020 522 1025 531 q 1007 513 1015 513 q 965 521 996 513 q 924 531 935 529 q 892 549 913 532 q 864 568 872 565 q 840 551 840 568 q 848 533 840 542 q 856 522 856 524 q 849 511 856 517 q 864 463 864 465 q 865 410 865 456 q 886 383 865 383 q 913 406 913 383 q 901 432 913 415 q 889 461 889 449 l 890 472 q 932 419 932 429 q 925 385 932 401 q 900 363 915 363 q 885 367 897 363 q 867 371 874 371 q 822 351 846 371 q 790 332 799 332 q 776 335 786 332 q 763 338 767 338 q 754 335 763 338 q 767 308 767 324 q 757 277 767 297 q 747 249 747 257 q 776 231 747 231 q 811 240 797 231 q 804 263 810 246 q 799 283 799 275 q 814 319 799 304 q 850 335 829 335 q 863 325 860 335 q 874 315 867 315 l 882 322 l 883 326 l 893 335 q 925 317 907 332 q 954 292 950 294 l 961 294 q 989 311 976 314 q 1003 326 993 313 q 1019 339 1014 339 q 1062 303 1038 339 q 1086 247 1086 268 q 1050 213 1086 213 q 1063 190 1050 204 q 1076 171 1076 176 q 1063 158 1076 163 q 1047 153 1049 154 q 1042 133 1042 142 q 1060 111 1042 111 q 1099 136 1072 111 q 1126 172 1126 161 q 1103 215 1126 168 q 1117 214 1111 214 q 1138 228 1128 214 q 1154 243 1149 243 q 1162 240 1157 243 q 1169 238 1167 238 q 1179 251 1178 238 q 1179 279 1181 261 q 1178 301 1178 301 q 1182 322 1178 310 q 1198 290 1197 313 q 1208 268 1199 268 q 1258 304 1240 268 q 1239 308 1250 306 q 1228 318 1228 311 q 1232 328 1228 318 q 1236 331 1233 331 q 1247 325 1238 331 q 1260 347 1260 333 q 1226 374 1260 374 q 1239 390 1226 390 q 1254 386 1244 390 q 1269 382 1264 382 q 1306 424 1288 382 q 1322 482 1322 461 m 1213 215 q 1206 217 1211 217 l 1203 217 l 1200 211 l 1208 206 l 1213 215 m 1549 -119 q 1546 -110 1549 -119 q 1539 -107 1542 -107 q 1524 -126 1524 -107 q 1535 -137 1524 -137 q 1549 -119 1549 -137 m 1171 219 l 1161 226 q 1153 211 1153 219 l 1157 200 q 1167 211 1167 204 l 1171 219 m 1196 188 l 1194 194 l 1189 193 q 1182 178 1188 188 l 1192 176 q 1196 188 1196 179 m 713 646 q 700 699 713 686 q 693 692 697 699 q 706 636 706 681 l 710 633 q 713 646 713 639 m 1183 138 l 1182 143 q 1172 132 1176 142 l 1176 131 l 1183 138 m 1153 149 l 1150 157 l 1143 157 q 1140 150 1140 154 q 1143 144 1140 147 l 1153 149 m 863 422 q 838 489 863 435 q 815 572 813 543 q 818 608 818 615 q 775 685 818 685 q 728 617 728 685 q 729 590 728 607 q 731 565 731 572 q 728 538 731 556 q 725 511 725 519 q 727 501 725 507 q 729 492 729 496 q 681 422 710 453 q 669 403 669 411 q 682 386 669 386 q 689 397 683 386 q 701 408 694 408 q 730 383 706 408 q 775 356 754 358 q 785 350 779 350 q 830 379 797 350 q 863 422 863 408 m 1003 256 q 971 269 972 269 q 965 257 965 269 l 975 251 q 997 247 983 251 l 1003 256 m 551 707 q 525 724 551 724 q 454 692 454 724 l 460 681 q 467 678 463 678 q 493 693 472 678 q 513 700 503 701 q 535 697 540 697 q 551 707 551 697 m 682 633 q 674 654 682 644 q 656 664 667 664 q 614 624 656 624 q 631 666 617 628 q 644 707 644 704 q 635 722 644 714 q 618 731 625 731 q 593 711 593 731 q 608 688 593 706 q 624 667 622 671 q 599 640 611 663 q 563 617 586 617 q 534 633 542 617 q 519 667 526 650 l 507 663 l 507 660 q 521 633 507 647 q 535 608 535 618 q 514 594 535 597 q 483 589 488 592 l 483 574 q 475 572 479 572 q 454 593 458 572 q 450 626 453 610 q 446 636 449 636 q 432 594 432 636 q 471 543 432 554 q 543 539 486 539 q 681 629 629 539 l 682 633 m 1139 67 l 1128 68 q 1118 56 1118 68 l 1124 53 q 1139 67 1139 53 m 899 254 q 893 272 897 263 l 889 272 q 879 251 879 261 l 885 242 l 888 240 q 899 254 892 240 m 849 256 q 841 276 849 264 q 826 288 833 288 q 817 271 817 288 q 842 246 817 256 l 847 250 l 849 256 m 731 282 l 729 282 q 725 276 726 281 l 728 275 l 731 282 m 1042 178 q 1023 209 1039 196 q 989 222 1007 222 q 828 213 936 222 q 668 203 721 203 q 650 208 661 203 q 633 213 639 213 q 615 193 625 203 q 601 199 608 193 q 591 185 596 196 q 583 175 586 175 l 581 175 q 549 261 549 182 q 551 278 549 269 q 571 288 558 279 q 596 319 583 303 q 632 335 608 335 q 647 326 647 335 q 635 310 642 314 q 614 285 614 303 q 624 278 618 278 l 626 278 q 658 314 643 296 q 692 340 683 340 q 706 338 697 340 q 719 335 715 335 q 728 347 728 335 q 703 369 728 369 q 690 367 699 369 q 676 364 681 364 q 646 401 646 364 q 696 476 646 443 q 704 539 704 492 q 701 575 704 543 q 703 611 700 597 l 699 614 q 678 576 690 608 q 647 528 665 543 q 563 503 618 503 q 506 515 542 503 q 463 528 469 528 q 451 524 457 528 l 443 522 q 372 592 390 547 l 368 592 l 368 572 q 372 489 367 543 q 378 410 378 435 q 394 395 378 397 q 411 388 411 393 l 404 375 q 386 349 386 365 q 398 314 386 338 q 419 290 410 290 q 433 299 425 290 q 444 307 440 307 q 451 304 449 307 q 517 199 478 272 q 494 168 494 193 q 508 130 494 146 q 533 99 521 114 l 544 94 q 553 107 553 99 l 551 111 q 533 115 547 115 l 532 128 q 546 136 538 136 q 563 122 542 136 q 589 156 571 126 q 624 176 604 176 q 632 157 632 176 q 601 119 601 146 q 604 106 601 119 q 618 97 613 97 q 625 101 624 97 q 622 114 622 114 l 622 125 q 657 163 657 143 q 678 154 678 163 q 632 39 661 117 l 635 29 l 643 31 q 646 57 650 47 q 680 72 667 57 q 706 103 693 88 q 743 119 731 101 q 765 136 756 136 q 781 131 771 136 q 797 125 792 125 q 842 135 826 125 q 874 154 858 144 q 892 135 882 151 q 904 115 901 118 q 890 118 899 115 q 879 121 882 121 l 872 117 q 844 39 864 89 q 821 29 843 36 l 821 21 q 842 -39 819 1 q 851 -36 847 -36 q 872 -51 867 -36 l 881 -46 q 913 10 913 19 q 868 33 913 24 q 875 65 871 36 q 894 85 878 85 q 910 63 907 85 q 918 33 914 36 l 933 29 q 944 42 942 33 q 946 56 947 46 q 944 72 944 69 q 957 81 944 81 q 967 61 965 76 q 1019 143 1019 64 q 1018 168 1019 157 q 1024 166 1019 168 q 1029 164 1028 164 q 1042 178 1033 167 m 713 301 l 708 304 q 694 286 699 300 q 688 265 689 268 l 692 260 q 713 301 701 272 m 963 17 q 950 29 963 29 q 936 10 936 29 q 949 -8 936 -8 q 958 7 958 -8 l 963 17 m 981 -42 l 978 -37 l 975 -36 q 954 -46 974 -36 l 958 -54 l 969 -50 q 981 -42 975 -43 m 333 631 q 317 667 333 640 q 296 693 301 693 q 274 676 282 693 q 265 644 265 660 q 317 518 265 621 l 325 514 l 326 525 q 320 542 326 528 q 314 563 314 556 q 324 590 314 567 q 333 631 333 614 m 947 -33 l 943 -24 l 938 -24 q 922 -40 922 -24 l 924 -43 q 926 -47 924 -47 q 947 -33 947 -47 m 924 -79 q 911 -65 924 -71 q 900 -81 900 -65 q 911 -87 900 -87 l 919 -86 q 924 -79 924 -83 m 758 83 q 756 93 758 83 q 750 94 753 94 q 731 72 731 94 q 732 67 731 69 l 739 67 q 758 83 758 67 m 828 86 q 825 97 828 86 l 815 99 q 785 83 790 100 q 785 46 785 81 q 758 65 776 56 l 751 61 q 750 53 750 57 q 768 22 750 33 q 751 3 758 13 q 781 -50 763 -51 l 783 -50 l 786 -44 q 778 -19 778 -32 q 803 46 778 13 q 828 86 828 79 m 824 -54 l 818 -39 l 810 -33 q 793 -67 793 -39 q 804 -78 793 -74 q 824 -54 815 -71 m 715 43 q 713 53 715 43 l 707 56 q 692 47 704 54 l 692 36 q 703 26 697 26 q 714 33 708 26 l 715 43 m 726 13 l 724 18 q 706 -1 706 14 q 721 -12 706 -12 l 726 -10 l 726 13 m 454 267 l 450 275 l 442 282 q 428 260 428 279 q 442 244 428 244 q 454 267 454 244 m 485 221 l 479 231 l 476 231 q 461 213 461 231 q 472 199 461 199 q 485 221 485 199 m 672 29 q 669 36 672 32 q 643 -1 643 28 q 664 -35 643 -35 q 671 -11 672 -35 q 667 17 669 3 q 672 29 672 29 m 719 -46 q 718 -40 719 -43 q 692 -60 692 -42 l 692 -61 l 700 -64 q 719 -46 719 -49 m 714 -200 q 688 -169 714 -187 q 647 -151 661 -151 q 636 -164 636 -151 q 658 -192 636 -181 q 694 -207 676 -199 l 704 -208 l 714 -204 l 714 -200 m 446 -11 l 442 0 l 436 1 q 414 -15 425 1 q 403 -43 403 -31 l 403 -47 q 428 -31 403 -46 q 446 -11 446 -18 m 451 -62 q 450 -60 451 -60 q 442 -51 449 -51 q 415 -74 425 -51 l 418 -86 q 437 -78 422 -87 q 451 -62 451 -68 m 392 -22 l 386 -10 l 383 -10 q 368 -31 378 -10 q 379 -44 368 -44 q 392 -22 392 -39 m 417 -117 l 414 -106 q 399 -101 407 -101 q 355 -143 379 -101 q 331 -207 331 -185 q 335 -211 331 -211 q 347 -207 336 -211 q 361 -203 357 -203 q 381 -162 363 -186 q 394 -133 383 -136 q 417 -117 411 -129 m 385 -67 l 374 -61 q 267 -181 307 -61 l 272 -183 q 301 -153 283 -178 q 336 -119 319 -128 q 336 -94 342 -111 l 346 -96 q 385 -67 376 -96 m 271 -60 q 257 -46 271 -46 l 247 -50 q 258 -75 250 -75 q 271 -60 271 -75 m 340 -158 l 339 -157 l 332 -153 q 322 -167 322 -153 l 328 -169 q 340 -158 340 -164 m 231 -97 q 213 -89 231 -89 l 201 -96 l 201 -100 q 217 -114 201 -114 q 231 -97 231 -104 m 264 -136 q 254 -131 263 -131 q 243 -135 251 -131 q 235 -142 235 -139 q 253 -147 235 -144 q 264 -136 264 -147 m 250 -201 q 236 -194 247 -194 l 229 -197 q 240 -211 231 -211 q 250 -201 250 -211 m 126 -197 q 111 -181 126 -181 l 107 -181 q 100 -196 100 -185 q 114 -212 100 -212 q 126 -197 126 -212 m 868 -1 q 856 -14 868 -14 q 839 6 839 -14 q 851 21 839 21 q 868 -1 868 21 m 429 338 q 428 329 429 338 l 421 322 q 413 343 413 329 q 408 361 413 357 l 414 365 q 429 338 429 350 z "},"?":{"ha":771,"x_min":33,"x_max":749,"o":"m 675 546 q 707 510 707 532 q 694 488 706 500 q 643 478 693 486 q 603 460 603 471 q 605 448 603 456 q 607 438 607 440 q 578 415 607 415 q 564 413 558 415 q 567 396 567 403 q 544 365 567 371 q 515 360 531 363 q 508 341 513 357 q 488 325 504 325 q 451 343 485 325 q 415 364 417 361 q 397 315 413 360 q 367 283 386 283 q 342 298 353 283 q 325 313 331 313 q 312 303 322 313 q 301 290 301 293 q 301 279 301 279 q 324 267 310 275 q 403 201 351 246 q 471 214 422 203 q 539 224 514 224 q 549 218 543 224 q 558 211 556 213 q 563 193 563 201 q 515 136 563 176 q 467 68 467 96 q 469 47 467 61 q 471 25 471 32 q 443 -4 471 -4 q 419 3 435 -4 q 397 11 404 11 q 354 -21 381 11 q 311 -53 328 -53 q 282 61 271 -53 q 214 90 249 76 q 165 135 165 114 q 224 167 165 160 q 283 200 283 175 q 275 247 283 208 q 253 257 267 249 q 236 249 247 249 q 210 263 214 249 q 208 294 208 268 q 185 331 208 308 l 188 335 q 185 351 185 342 q 180 366 185 357 q 175 381 175 375 q 203 410 175 397 q 231 438 231 424 q 219 460 231 443 q 207 488 207 476 q 328 513 207 525 q 353 558 340 536 q 392 586 371 586 q 408 583 399 586 q 424 579 418 579 q 484 616 456 579 q 513 682 513 653 q 474 708 513 706 q 417 707 499 707 q 389 728 400 707 q 381 712 383 724 q 376 697 379 700 q 322 674 368 690 q 285 649 285 660 q 287 635 286 646 q 288 619 288 625 q 256 561 288 561 q 216 586 243 561 q 171 611 189 611 q 128 597 156 611 q 86 583 101 583 q 56 604 56 583 q 93 678 56 622 q 57 708 93 681 q 33 744 33 728 q 50 768 33 765 q 83 772 67 771 q 97 799 88 782 q 78 831 78 808 q 95 855 78 851 q 129 860 113 858 q 144 876 135 861 q 165 892 153 892 q 188 878 178 892 q 204 857 200 860 q 233 857 204 857 q 249 853 239 857 q 263 849 258 849 q 273 860 267 849 q 279 876 279 872 q 289 883 286 876 q 303 883 286 883 q 338 869 317 883 q 363 900 343 881 q 393 919 383 919 q 551 874 422 919 q 621 919 597 919 q 650 890 647 919 q 649 842 649 907 q 688 781 649 813 q 728 742 728 749 q 726 731 728 729 q 721 718 721 724 q 707 708 715 714 q 699 706 704 707 q 690 704 693 704 q 682 708 686 704 q 679 689 679 699 q 714 660 679 663 q 749 629 749 658 q 719 599 749 608 q 688 581 690 589 q 675 546 686 568 m 707 639 q 669 646 700 646 q 644 661 646 646 q 639 692 642 676 q 619 610 635 664 q 633 597 626 608 q 642 585 640 586 q 649 588 646 585 q 646 601 646 594 q 671 625 646 613 q 707 639 689 632 m 610 842 q 611 869 610 850 q 613 896 613 888 l 607 899 q 574 872 590 885 q 535 858 557 858 q 463 877 524 858 q 389 903 403 896 l 386 896 q 471 796 415 864 q 408 750 447 782 q 454 743 426 743 q 503 747 474 743 q 578 619 528 704 q 592 686 582 631 q 610 743 600 733 q 679 746 611 746 q 682 746 682 744 q 646 783 682 753 q 610 842 610 813 m 418 811 q 379 826 399 819 q 372 868 372 831 q 365 881 372 881 q 350 865 360 881 q 331 850 340 850 q 292 867 324 850 q 290 861 290 864 q 299 841 290 853 q 308 821 308 829 q 292 799 308 815 q 301 792 299 792 q 309 794 304 792 q 317 796 314 796 q 333 776 324 796 q 347 750 347 750 q 369 799 350 768 q 418 811 386 800 m 665 522 q 544 590 622 543 q 538 626 540 594 q 519 665 536 657 q 483 585 510 638 q 449 571 478 575 q 421 554 421 567 q 435 533 421 540 q 457 519 457 519 l 458 517 q 453 505 458 513 q 447 493 447 497 q 454 486 447 486 q 473 490 461 486 q 490 493 485 493 q 561 454 515 493 l 568 458 q 558 503 565 474 q 665 522 594 508 m 221 835 q 207 840 215 840 q 194 838 201 840 q 182 836 186 836 q 167 845 171 836 q 156 874 164 854 q 139 847 147 860 q 110 840 132 840 q 97 838 101 840 q 110 828 100 833 q 119 819 119 824 q 100 776 119 815 l 107 775 q 135 787 117 775 q 158 799 153 799 q 169 792 163 799 q 179 786 175 786 q 185 789 182 786 q 178 808 183 796 q 200 824 183 817 q 221 835 217 831 m 338 728 q 253 738 311 738 q 251 764 251 749 q 256 828 251 786 q 253 832 254 832 q 203 790 246 832 q 132 747 161 747 q 97 751 121 747 q 61 754 74 754 l 51 753 q 119 697 75 736 q 94 661 118 693 q 78 619 79 639 l 175 658 q 246 607 236 607 q 246 619 246 607 q 248 656 246 632 q 250 692 250 679 q 338 728 308 711 m 529 406 q 502 423 522 413 q 476 444 482 433 q 451 419 471 433 q 425 393 431 404 q 435 390 429 390 q 461 396 443 390 q 471 367 463 386 q 476 396 472 376 q 503 402 482 400 q 529 406 524 404 m 438 464 q 394 486 417 475 q 383 535 383 493 q 376 568 383 557 q 333 497 360 546 l 233 497 q 226 488 226 493 q 269 435 226 488 q 197 393 244 422 l 204 386 q 299 399 240 393 q 353 325 318 375 q 389 428 361 361 q 413 449 396 439 q 438 464 435 461 m 292 338 q 244 353 271 353 q 207 344 225 353 q 219 333 208 342 q 231 315 231 324 q 228 305 231 311 q 225 296 225 299 q 226 289 225 296 q 246 301 236 301 q 260 292 254 301 q 263 300 263 296 q 260 308 263 303 q 258 315 258 313 l 260 318 q 275 331 261 319 q 292 338 285 339 m 519 206 q 453 194 504 206 q 383 182 401 183 q 341 216 375 185 q 299 257 307 247 q 299 165 293 211 q 185 143 260 161 q 299 94 196 138 q 301 -12 297 58 q 383 57 363 57 q 406 47 390 57 q 429 38 421 38 l 435 39 q 425 110 433 63 q 519 206 463 138 z "},"@":{"ha":978,"x_min":39,"x_max":963,"o":"m 963 558 q 927 519 963 529 q 892 493 892 508 q 913 468 892 481 q 935 443 935 456 q 913 406 935 432 q 890 364 890 379 q 910 317 890 357 q 883 282 910 282 q 862 286 876 282 q 840 290 847 290 q 805 262 824 290 q 771 233 786 233 q 746 244 758 233 q 726 225 746 243 l 708 225 q 688 228 701 225 q 668 232 675 232 q 660 231 668 232 q 628 204 647 224 q 597 178 608 185 q 638 144 603 169 q 678 118 672 118 q 688 120 682 118 q 699 122 694 122 q 708 119 704 122 q 715 153 711 136 q 739 169 719 169 q 771 153 760 169 q 808 174 790 174 q 829 167 821 174 q 838 129 838 160 q 850 112 838 122 q 863 92 863 101 q 856 68 863 75 q 843 57 843 58 q 833 60 838 60 q 818 47 831 60 q 792 6 818 6 q 756 38 771 6 q 750 26 750 32 q 756 14 750 24 q 738 -10 756 -7 q 704 -10 743 -10 q 640 -44 665 -10 q 624 -50 633 -50 q 597 -35 607 -50 q 594 -22 597 -31 q 592 -7 592 -12 q 583 -1 592 -1 q 572 4 575 -1 q 567 1 571 1 q 556 4 563 1 q 544 7 549 7 q 539 -1 542 7 q 510 -21 533 -21 q 442 -3 486 -21 q 375 14 399 14 q 349 -10 365 14 q 322 -40 333 -35 q 285 -14 289 -40 q 274 38 278 31 q 183 81 258 60 q 118 124 118 97 q 129 143 118 138 q 100 175 103 153 q 96 221 97 197 q 66 240 93 231 q 39 268 39 249 q 63 303 39 285 q 88 332 88 321 q 84 346 88 336 q 81 360 81 356 q 81 399 81 374 q 78 412 81 403 q 75 426 75 421 q 93 452 75 446 q 111 465 111 458 q 99 487 111 472 q 86 506 86 501 q 142 532 86 532 q 164 542 164 532 q 138 567 164 561 q 113 592 113 572 q 129 624 113 606 q 146 658 146 642 q 142 676 146 664 q 139 693 139 688 q 149 722 139 703 q 164 728 156 728 q 194 715 176 728 q 222 701 213 701 q 269 726 232 701 q 235 756 265 731 q 213 790 213 775 q 235 824 213 819 q 332 842 294 831 q 358 869 344 846 q 394 893 372 893 q 419 869 411 893 q 433 842 426 846 q 482 822 474 822 q 500 828 492 822 q 474 881 474 861 q 508 903 474 903 q 565 885 528 903 q 617 867 601 867 q 638 874 622 867 q 654 881 653 881 q 688 843 688 881 q 683 832 688 838 q 735 811 722 821 q 751 760 751 796 q 775 742 751 750 q 808 736 794 736 q 824 753 814 736 q 849 769 833 769 q 881 743 876 769 q 881 697 881 743 q 890 625 881 657 q 929 593 896 611 q 963 558 963 575 m 722 736 q 717 751 722 751 q 661 732 661 751 q 664 721 661 728 q 667 711 667 714 q 664 694 667 706 q 661 678 661 683 q 672 664 661 664 q 685 679 675 664 q 700 694 696 694 q 719 688 703 694 q 740 681 735 681 q 751 683 746 681 q 742 703 742 693 q 747 713 742 710 q 760 713 751 714 q 772 713 774 713 q 775 714 775 713 q 722 736 775 736 m 919 568 q 879 592 900 579 q 852 626 858 606 q 844 690 846 647 q 838 751 842 732 q 803 693 838 750 q 763 649 775 649 q 740 657 756 649 q 715 665 725 665 q 708 664 711 665 q 726 601 726 638 q 710 556 726 585 q 693 515 693 528 q 694 513 693 513 q 713 519 700 513 q 750 524 725 519 q 786 529 775 529 q 826 490 807 529 q 861 451 844 451 q 864 457 864 451 q 860 471 864 461 q 857 486 857 481 q 858 501 857 490 q 860 517 860 511 q 853 539 860 531 q 919 568 900 549 m 713 794 q 681 813 711 800 q 640 828 651 825 q 645 842 646 831 q 650 857 644 854 q 640 860 646 860 q 625 853 635 860 q 610 846 615 846 q 551 866 592 846 q 500 886 510 886 q 496 876 494 886 q 535 814 513 856 l 535 811 q 527 806 535 810 q 519 800 519 803 l 519 799 q 538 785 519 789 q 563 775 557 781 q 590 738 575 764 q 611 703 604 711 q 621 742 615 710 q 635 775 625 769 q 713 794 674 781 m 563 736 q 528 750 554 747 q 496 765 503 753 q 451 740 451 736 q 463 732 451 736 q 433 688 454 715 q 443 686 438 686 q 463 694 450 686 q 482 703 475 703 q 506 690 493 703 q 525 669 521 671 q 529 681 529 674 q 524 696 529 686 q 518 711 518 706 q 519 717 518 711 q 563 736 535 722 m 867 336 q 857 363 861 342 q 843 385 853 379 q 857 404 847 390 q 822 454 850 410 q 786 492 800 492 q 763 461 763 492 q 751 418 763 465 q 718 395 747 400 q 689 379 689 390 q 713 364 689 367 q 751 356 744 361 q 756 342 751 347 q 760 333 760 336 q 757 322 760 331 q 756 313 754 314 q 756 300 756 308 q 754 288 754 292 q 758 278 754 278 q 784 305 769 278 q 821 332 799 332 q 841 327 828 332 q 863 322 854 322 q 867 336 867 322 m 481 804 q 438 815 469 810 q 399 828 407 821 q 381 876 393 846 q 351 839 360 857 q 297 817 343 821 q 231 799 246 811 q 300 721 300 753 q 292 690 300 711 q 285 658 285 669 q 289 640 285 649 q 336 707 306 661 q 363 678 342 693 q 389 654 383 663 q 399 708 397 665 q 408 760 401 750 q 442 786 419 776 q 481 804 481 803 m 588 519 q 544 549 588 519 q 542 557 542 551 q 545 572 542 561 q 549 588 549 582 q 544 601 549 594 q 511 572 515 572 q 492 583 504 572 q 475 594 479 594 q 465 582 465 594 q 474 561 465 576 q 482 536 482 546 q 466 506 482 525 q 450 471 450 486 q 453 457 450 464 q 515 486 490 476 q 525 467 515 467 q 532 481 531 469 q 535 496 533 493 q 588 519 553 501 m 717 342 q 688 344 713 344 q 631 408 663 344 q 611 369 614 393 q 599 346 607 351 q 532 338 583 338 q 496 332 510 338 q 582 288 501 328 q 583 279 583 283 q 580 258 583 272 q 576 236 576 243 q 582 215 576 225 q 651 271 624 271 q 672 267 658 271 q 692 264 685 264 q 708 268 700 264 q 683 313 700 283 q 717 342 690 314 m 746 486 q 689 476 726 476 q 679 485 683 476 q 674 496 675 494 l 674 503 q 692 552 674 521 q 711 596 711 583 q 669 619 711 619 q 646 642 646 619 q 649 653 646 646 q 651 665 651 661 q 650 669 650 667 q 646 669 647 669 q 631 666 640 669 q 617 663 622 663 q 597 678 608 663 q 582 697 586 694 q 563 688 563 697 q 566 672 563 683 q 569 656 569 661 q 543 628 569 628 q 515 642 533 628 q 485 657 497 657 q 463 651 478 657 q 438 644 447 644 q 426 629 435 643 q 394 615 418 615 q 375 630 390 615 q 351 644 360 644 q 325 624 340 644 q 307 592 310 604 q 279 556 303 560 q 231 549 256 551 q 246 510 244 513 q 279 486 256 496 q 293 464 293 479 q 276 433 293 439 q 250 424 251 425 q 260 414 260 414 q 257 379 260 401 q 254 346 254 357 q 275 343 256 343 q 327 278 281 343 q 403 213 374 213 q 442 222 417 213 q 482 231 468 231 q 528 197 513 231 q 553 163 544 163 q 563 172 556 163 q 572 182 569 181 q 558 201 571 189 q 568 254 568 215 q 549 268 568 268 q 521 263 536 263 q 486 278 497 263 q 442 258 460 258 q 418 277 421 258 q 414 313 415 296 q 388 336 410 322 q 365 367 365 350 q 408 399 365 388 q 399 408 400 408 q 376 404 388 404 q 342 432 342 404 q 353 453 342 440 q 365 471 364 465 q 369 510 367 483 q 418 519 371 519 q 461 544 461 540 q 452 562 461 550 q 443 582 443 574 q 471 617 443 617 q 519 592 494 617 q 558 621 539 621 q 585 603 581 621 q 586 568 586 600 q 607 535 586 550 q 628 507 628 519 q 602 478 628 490 q 572 457 576 467 q 542 422 561 422 q 523 430 535 422 q 506 438 511 438 q 495 431 504 436 q 486 424 486 425 q 513 383 486 397 q 563 356 539 368 q 575 351 568 351 q 607 390 594 351 q 640 429 619 429 q 665 414 656 429 q 679 399 675 399 q 750 464 750 399 q 746 486 750 475 m 443 476 q 435 488 435 479 q 436 497 435 490 q 438 507 438 504 q 433 519 438 514 q 385 500 418 500 q 382 499 383 500 q 387 491 382 497 q 392 482 392 485 q 378 467 392 476 q 365 450 365 457 q 371 443 365 443 q 381 447 374 443 q 394 451 389 451 q 407 442 403 451 q 414 432 411 432 q 424 461 424 438 l 428 457 q 443 476 431 464 m 824 100 q 808 109 822 101 q 793 124 793 117 q 797 138 793 129 q 800 150 800 146 q 794 154 800 154 q 778 144 788 154 q 764 133 769 133 l 761 133 q 732 153 749 139 q 728 143 728 149 q 735 128 728 138 q 743 115 743 119 q 742 110 743 115 q 713 86 732 104 q 725 81 718 81 q 738 83 729 81 q 751 86 746 86 q 767 69 761 86 q 776 51 772 51 q 785 61 781 51 l 785 68 q 798 88 785 82 q 824 100 811 94 m 274 707 l 268 708 q 233 693 254 708 q 207 678 213 678 q 183 692 194 678 q 163 713 165 710 q 158 694 158 704 q 162 675 158 688 q 165 656 165 663 q 129 606 165 631 q 165 601 142 606 q 171 575 171 601 q 179 567 171 567 q 194 580 188 567 q 215 593 201 593 q 232 591 221 593 q 249 589 243 589 q 264 592 257 589 q 238 643 238 632 q 251 672 238 650 q 274 707 271 701 m 519 356 q 438 442 476 365 q 431 425 431 436 q 432 412 431 421 q 433 399 433 403 q 422 381 433 383 q 399 381 421 381 q 389 375 389 381 q 412 358 389 371 q 435 324 435 344 q 428 317 435 319 q 431 306 429 315 q 438 297 432 297 q 464 312 450 304 q 481 333 478 319 q 497 349 485 346 q 519 356 517 353 m 717 104 q 701 108 711 108 q 684 106 696 108 q 667 104 672 104 q 572 163 643 104 q 569 146 569 154 q 579 113 569 135 q 589 85 589 92 q 575 64 589 74 q 549 47 561 54 q 597 32 565 44 q 605 12 601 29 q 611 -11 608 -6 q 638 22 624 6 q 679 29 644 29 q 708 22 696 29 q 713 32 710 26 q 688 71 688 57 q 701 90 688 79 q 717 104 715 101 m 245 470 q 245 472 245 470 q 246 475 246 474 q 225 490 246 479 q 207 525 213 497 q 188 549 201 549 q 175 531 183 549 q 153 513 167 513 q 136 516 147 513 q 119 519 125 519 q 106 514 111 519 q 125 489 115 501 q 135 457 135 476 q 146 454 135 456 q 158 451 157 453 q 192 418 169 451 q 211 461 199 422 q 232 467 215 465 q 245 470 244 467 m 572 129 q 541 141 564 136 q 510 153 518 146 q 500 172 507 163 q 463 119 463 143 q 478 92 463 107 q 506 76 493 76 q 513 92 511 76 q 515 110 514 108 q 544 122 519 117 q 572 129 568 126 m 568 71 q 565 76 565 71 l 563 81 l 561 81 q 549 76 549 81 q 558 67 549 67 q 563 69 560 67 q 568 71 565 71 m 500 18 q 408 129 472 57 q 476 211 431 157 q 463 213 469 213 q 421 202 447 213 q 382 192 394 192 q 306 257 358 192 q 249 322 253 322 q 249 318 249 322 q 254 303 254 303 q 260 244 254 272 q 274 172 271 178 q 204 153 251 163 q 135 133 157 143 q 213 111 174 122 q 283 76 263 96 q 296 40 292 68 q 303 -1 300 6 q 360 57 338 57 q 426 36 379 57 q 488 15 474 15 q 500 18 493 15 m 244 201 q 247 231 247 215 q 231 281 247 251 q 215 333 215 310 q 220 371 215 346 q 225 408 225 396 q 217 414 225 414 q 192 390 204 401 q 163 375 175 375 q 125 401 147 375 q 96 442 110 422 q 93 419 93 431 q 97 382 93 407 q 101 344 101 357 q 88 306 101 318 q 57 283 74 294 q 106 254 74 276 q 115 220 115 244 q 125 186 115 196 q 150 215 136 200 q 178 229 164 229 q 209 216 179 229 q 244 201 239 203 m 221 172 q 193 186 210 186 q 167 158 167 186 q 168 157 167 158 q 176 161 169 157 q 188 163 182 165 q 194 161 192 161 q 221 172 210 161 z "},"A":{"ha":826,"x_min":-4,"x_max":813,"o":"m 813 83 q 804 63 813 71 q 813 43 813 53 q 788 3 813 25 q 796 -24 796 -6 q 769 -49 796 -49 q 740 -40 756 -49 q 710 -58 728 -58 q 683 -15 683 -58 q 680 -14 683 -14 q 678 -12 676 -14 q 664 -46 671 -28 q 638 -64 657 -64 q 600 -19 615 -64 l 592 -15 q 563 -36 590 -17 q 532 -49 546 -49 q 504 -21 504 -49 q 554 78 504 6 l 529 133 q 519 115 525 124 q 499 106 513 106 q 451 133 485 106 q 407 172 429 153 q 281 111 303 111 l 272 115 q 271 102 271 113 q 235 56 271 92 q 256 28 238 51 q 271 -1 271 11 q 238 -31 271 -31 q 205 -23 226 -31 q 172 -15 183 -15 q 144 -49 160 -32 q 114 -65 129 -65 q 88 -53 92 -65 q 85 -24 85 -47 q 72 -17 85 -17 q 50 -19 65 -17 q 28 -22 35 -22 q -4 3 -4 -22 q 31 49 -4 22 q 82 86 57 68 q 69 154 82 129 q 99 197 75 174 q 133 238 128 229 q 114 310 114 289 q 124 322 114 315 q 140 329 133 329 q 156 326 146 329 q 172 324 167 324 q 178 333 178 324 q 142 359 178 353 q 107 390 107 365 q 133 422 107 411 q 174 444 169 439 q 171 488 171 474 q 201 526 171 526 q 224 515 214 526 q 239 549 239 538 q 223 574 239 564 q 207 600 207 583 q 289 722 207 608 q 267 769 267 750 q 306 797 267 797 l 311 799 q 311 800 311 799 q 308 808 311 800 q 308 818 306 814 q 281 850 281 826 q 290 874 281 868 q 308 885 299 879 q 307 886 307 885 q 310 901 307 889 q 313 917 314 914 l 317 915 q 338 925 325 925 q 367 907 357 925 q 383 911 375 911 q 413 882 413 911 q 406 857 413 868 q 428 836 425 849 q 438 813 432 819 q 464 833 450 818 q 471 867 467 850 q 494 885 475 885 q 526 869 504 885 q 542 876 532 876 q 572 847 572 876 q 567 826 572 838 q 589 792 589 808 q 572 768 589 772 q 538 761 554 764 q 526 745 532 760 q 515 726 521 731 q 567 682 567 704 q 565 671 567 676 l 572 669 q 601 678 592 678 q 631 651 631 678 q 601 604 631 633 q 615 571 615 579 q 588 540 615 554 q 596 522 592 531 q 615 513 600 513 q 633 514 621 513 q 653 515 646 515 q 688 488 688 515 q 674 460 688 475 q 649 432 660 444 l 653 426 q 666 439 660 433 q 690 444 672 444 q 714 415 714 444 q 704 364 714 397 q 733 317 733 332 q 724 297 733 306 l 725 271 q 717 150 725 226 q 774 124 744 136 q 813 83 813 101 m 549 807 q 532 819 540 813 q 524 833 524 825 q 529 854 524 829 l 526 856 q 510 843 519 853 q 488 864 503 850 q 485 838 485 861 q 472 818 485 826 q 446 803 458 810 q 472 801 447 801 l 485 800 q 485 775 485 806 q 488 761 485 767 q 506 799 501 796 q 546 803 510 803 l 549 807 m 375 839 q 367 853 375 843 q 358 867 358 864 q 372 889 358 874 l 371 893 q 347 883 338 883 q 328 907 344 883 q 326 888 326 904 q 313 867 326 871 q 299 860 299 864 q 303 857 300 858 q 322 852 318 857 q 326 833 326 847 q 328 825 326 833 q 333 835 328 825 q 346 844 339 844 q 358 840 350 844 q 369 836 365 836 q 375 839 374 836 m 592 657 l 583 660 q 533 644 567 653 q 525 653 532 653 q 499 632 508 653 q 472 625 490 631 q 486 618 475 621 q 493 601 493 615 q 488 573 493 592 q 482 544 482 554 l 483 536 q 536 597 501 557 q 572 582 549 593 l 572 583 q 565 600 574 590 q 556 615 556 610 q 592 657 556 615 m 526 694 q 417 751 489 713 q 389 838 410 781 q 342 774 374 815 q 286 782 324 776 q 296 758 288 771 q 311 733 304 744 q 231 618 275 676 q 225 611 228 615 q 226 610 226 610 q 294 632 239 610 q 351 654 350 654 q 436 578 358 654 l 440 579 q 429 675 438 611 q 526 694 463 679 m 646 496 q 628 497 638 497 q 601 495 619 497 q 572 493 582 493 q 538 565 572 503 q 532 513 535 539 q 494 492 525 485 l 493 488 q 519 450 519 456 q 506 350 519 432 l 510 342 q 538 375 511 343 q 565 401 560 401 q 574 391 568 401 q 586 381 581 381 q 589 389 586 385 q 586 408 586 399 q 608 457 586 432 q 646 496 628 476 m 692 328 q 676 349 690 336 q 663 371 663 363 q 671 401 663 361 l 671 404 l 674 410 q 674 422 674 410 q 672 424 674 424 q 642 393 663 424 q 611 426 633 406 l 611 422 q 616 399 611 414 q 621 378 621 385 q 596 340 621 361 q 613 339 597 339 q 639 322 635 339 q 639 289 639 322 q 644 276 639 279 q 653 324 649 300 q 692 328 656 328 m 386 582 q 374 599 386 586 q 358 613 363 613 l 354 608 q 365 589 354 593 q 386 582 375 585 m 581 344 l 572 349 q 565 338 568 340 q 571 336 567 336 q 581 344 578 336 m 503 435 q 474 479 474 463 q 483 497 474 489 q 464 539 460 511 q 455 538 461 539 q 446 536 449 536 q 419 554 433 536 q 403 524 418 543 q 369 509 386 517 q 343 483 351 501 q 368 472 356 478 q 381 449 381 465 q 342 407 381 433 q 304 361 304 381 q 304 322 304 321 l 318 321 q 348 322 329 321 q 375 324 367 324 q 397 378 375 325 q 436 413 411 413 q 468 388 453 413 q 489 350 478 369 q 503 435 492 379 m 376 561 q 319 582 340 578 l 319 583 q 319 593 319 594 q 281 584 308 593 q 254 568 254 575 q 257 560 254 565 q 260 551 260 554 q 247 530 260 546 q 235 504 235 514 q 242 497 235 497 q 257 503 247 497 q 272 508 267 508 q 280 490 275 508 q 289 471 285 471 q 305 498 297 471 q 315 528 313 525 q 346 547 322 538 q 376 561 369 556 m 624 268 q 619 276 622 272 q 536 236 597 276 q 529 219 535 235 q 565 215 542 218 q 564 208 564 213 q 575 188 564 188 q 586 199 579 188 q 604 211 593 211 q 611 210 604 211 q 621 208 611 208 q 622 210 622 208 q 615 223 622 215 q 607 236 607 231 q 624 268 607 249 m 771 94 q 679 143 725 118 q 679 168 679 146 q 683 226 679 188 q 688 283 688 264 q 685 290 688 285 q 649 228 669 269 q 614 164 625 182 q 540 175 589 167 q 575 90 542 168 q 524 -6 557 58 l 528 -8 q 596 39 551 7 q 626 -24 604 18 q 657 64 635 6 q 713 78 674 72 q 771 94 753 85 m 767 46 q 761 47 764 47 q 724 40 756 47 q 689 29 693 32 l 688 21 q 706 13 689 18 q 700 -15 700 -18 q 713 -6 706 -15 q 724 3 721 3 q 735 -2 728 3 q 747 -7 743 -7 q 753 -1 753 -7 q 749 8 753 1 q 746 19 746 15 q 767 46 746 25 m 597 318 l 593 322 q 475 314 554 319 q 424 396 450 350 q 386 310 401 353 q 303 301 358 308 q 354 258 335 272 q 274 156 326 225 l 281 154 q 399 217 321 174 q 483 146 401 215 q 490 260 492 183 q 597 318 503 271 m 338 458 l 333 463 q 242 449 303 457 q 190 508 224 468 q 190 443 190 486 l 190 435 q 125 401 168 422 q 192 385 140 394 q 196 297 192 326 q 231 361 206 319 q 265 336 243 353 q 268 397 265 357 l 265 400 l 268 401 l 265 403 q 338 458 290 422 m 307 217 q 246 279 283 235 l 256 301 q 251 307 256 307 q 233 274 243 292 q 207 256 224 256 q 179 281 183 256 q 133 311 175 306 q 153 240 140 288 q 113 193 139 225 l 114 189 l 121 189 q 138 176 139 176 q 152 179 143 176 q 165 182 161 182 q 181 158 174 182 q 192 125 189 129 q 215 194 208 136 q 307 217 276 207 m 260 158 q 254 160 257 160 q 246 138 246 160 l 244 136 q 251 133 244 133 l 254 133 q 256 135 256 133 q 254 138 256 136 q 253 142 253 140 q 260 158 253 151 m 231 11 q 186 65 215 28 q 231 115 200 83 l 226 119 q 157 103 204 115 q 96 172 138 126 q 94 154 94 164 q 97 118 94 142 q 100 82 100 94 q 14 17 72 60 l 22 17 q 104 29 28 17 q 101 1 101 17 l 103 -26 q 153 28 156 28 q 191 19 165 28 q 231 11 217 11 z "},"B":{"ha":833,"x_min":51,"x_max":786,"o":"m 697 103 q 672 115 682 103 q 624 40 657 90 q 647 10 635 26 q 660 -19 660 -7 q 615 -50 660 -50 q 593 -48 608 -50 q 571 -46 578 -46 q 550 -77 561 -61 q 521 -93 539 -93 q 490 -62 508 -93 q 429 -32 471 -32 q 385 -37 407 -32 q 385 -39 385 -37 q 386 -47 385 -42 q 388 -56 388 -53 q 358 -81 388 -81 q 306 -67 336 -81 q 254 -49 267 -51 q 178 -83 204 -83 q 147 -51 158 -83 q 140 -6 140 -29 q 86 14 113 4 q 51 51 51 26 q 85 83 51 76 q 118 92 118 89 q 111 119 118 94 q 107 146 104 143 q 83 172 83 163 q 100 228 83 185 q 122 286 121 279 q 94 311 121 288 q 74 338 74 329 q 83 367 74 360 q 92 376 92 374 q 121 488 103 413 q 94 504 108 496 q 86 533 86 513 q 111 558 86 554 q 149 565 146 564 q 128 578 149 567 q 117 599 117 585 q 142 649 117 615 q 178 697 160 674 l 176 701 q 136 681 142 681 q 106 718 106 681 q 108 740 106 726 q 110 761 110 754 q 74 782 92 772 q 51 814 51 797 q 83 846 51 839 q 135 861 132 858 q 164 901 144 867 q 199 929 181 929 q 230 892 222 929 q 281 856 238 856 q 299 860 288 856 q 318 865 311 865 q 346 814 346 865 q 342 785 346 800 q 370 797 353 786 q 396 810 388 807 q 418 871 407 840 q 456 914 435 914 q 488 886 476 914 q 504 842 496 864 q 624 828 546 840 q 642 800 642 824 q 632 776 642 783 q 622 767 622 768 q 631 761 625 765 q 656 795 643 778 q 686 813 669 813 q 717 782 711 813 q 719 733 719 774 q 761 719 740 726 q 786 689 786 708 q 765 658 786 667 q 724 642 743 649 q 729 536 729 601 q 700 506 729 506 q 678 513 688 506 q 657 494 674 501 q 640 479 640 488 q 667 465 640 471 q 693 435 693 460 q 676 406 693 417 q 658 360 658 396 q 663 353 658 360 q 708 324 667 346 q 736 283 736 308 q 743 267 736 275 q 750 253 750 258 q 748 240 750 249 q 746 228 746 232 q 765 214 746 222 q 785 185 785 206 q 765 158 785 167 q 735 146 735 146 q 725 126 729 142 q 713 107 721 111 q 697 103 706 103 m 743 699 q 678 722 721 707 q 672 792 679 746 q 631 738 651 763 q 517 776 583 758 q 549 725 526 754 q 588 678 568 701 q 569 653 586 675 q 553 631 553 632 q 556 628 553 628 q 584 637 565 628 q 614 646 603 646 q 685 549 636 608 l 689 550 q 681 674 686 592 q 743 699 701 681 m 599 813 q 596 814 599 813 q 467 828 553 815 q 443 893 454 871 q 411 804 433 863 q 382 785 408 797 q 346 765 351 769 q 399 744 364 757 q 393 725 393 733 q 396 717 393 725 q 400 714 397 714 q 415 721 404 714 q 431 728 425 728 q 493 701 446 728 l 493 704 q 488 726 493 713 q 483 747 483 740 q 489 757 483 756 q 494 765 494 758 q 524 796 494 796 q 540 793 529 796 q 556 790 550 790 q 581 799 563 790 q 599 813 599 807 m 638 538 q 618 556 618 551 q 621 567 618 560 q 624 579 624 575 q 622 581 624 581 q 615 581 615 581 q 592 574 608 574 q 582 579 588 574 q 575 585 576 585 q 560 581 564 585 q 564 572 564 576 q 547 557 564 569 q 525 542 526 544 q 571 538 532 538 q 600 513 589 538 q 610 529 603 519 q 638 538 619 531 m 560 667 q 538 697 560 675 q 507 661 535 661 q 443 685 506 661 q 439 679 442 682 q 444 672 439 681 q 449 654 449 663 q 392 617 449 626 q 336 590 336 607 q 353 564 336 567 q 385 560 369 561 q 396 549 390 557 q 404 540 401 540 q 442 531 435 540 q 449 509 449 522 q 457 493 450 496 q 510 513 464 513 q 506 529 506 519 q 522 556 506 547 q 539 576 539 565 q 537 596 539 583 q 535 615 535 608 q 547 645 535 631 q 560 667 560 660 m 653 444 q 575 471 624 450 q 563 496 567 478 q 556 521 560 514 q 542 497 549 508 q 522 482 533 482 q 499 488 514 482 q 478 494 485 494 q 475 494 475 494 q 506 447 475 478 q 478 404 494 428 l 481 400 q 501 407 485 401 q 525 413 518 413 q 553 374 531 413 q 572 419 557 390 q 611 435 585 431 q 653 444 643 440 m 278 835 q 242 843 264 842 q 204 847 206 847 q 185 910 200 869 q 146 850 175 888 q 110 835 135 840 q 71 824 81 829 q 131 788 92 814 q 125 725 131 767 q 167 772 167 736 q 196 799 167 799 q 222 794 204 799 q 278 835 242 808 m 408 667 q 301 749 400 674 l 301 760 q 301 789 300 771 q 304 818 304 810 q 301 846 304 833 q 240 761 281 818 q 188 781 222 767 l 185 775 q 213 722 193 757 q 138 617 175 671 q 142 611 138 614 q 260 632 183 619 q 293 565 267 608 l 297 568 q 294 583 294 572 q 296 610 294 592 q 297 639 297 629 q 408 667 335 647 m 740 200 q 708 213 731 206 l 706 208 q 713 192 713 201 l 717 186 q 740 200 728 186 m 704 250 q 704 256 704 254 q 690 241 699 254 q 676 228 682 228 q 664 233 672 228 q 650 238 656 238 q 643 225 643 238 q 650 210 643 210 q 674 215 658 210 q 697 219 689 219 q 704 250 704 219 m 696 301 q 614 346 667 315 q 624 415 615 369 l 618 417 q 549 365 594 400 q 504 375 542 367 q 458 381 476 381 q 490 350 467 374 q 514 322 514 326 q 510 307 514 317 q 506 293 506 297 q 517 285 506 285 q 527 286 519 285 q 539 288 535 288 q 546 285 539 288 q 599 229 553 282 q 607 290 601 236 q 696 301 638 290 m 461 464 q 430 479 444 472 q 413 504 415 486 q 404 521 411 511 q 383 478 397 506 q 336 463 336 478 q 353 444 336 456 q 363 446 358 446 q 400 428 379 446 q 428 411 421 411 l 431 415 q 428 428 431 419 q 425 442 425 438 q 440 456 425 450 q 461 464 450 460 m 463 396 q 454 396 458 396 q 433 393 447 396 q 411 390 418 390 q 383 403 396 390 q 360 428 371 415 q 342 389 356 411 q 311 382 332 382 q 279 381 286 382 q 278 378 278 379 q 306 365 279 375 q 332 351 332 354 q 326 334 332 350 q 319 317 319 318 q 321 315 319 315 q 342 326 328 315 q 367 336 357 336 q 394 326 378 336 q 419 314 411 315 l 424 318 q 414 354 414 342 q 417 363 414 354 q 438 382 421 372 q 463 396 461 394 m 361 542 q 338 549 353 543 q 304 522 331 522 q 278 542 289 522 q 251 561 268 561 q 240 575 247 564 q 218 582 235 582 q 169 572 197 582 q 154 549 167 564 q 126 543 149 543 q 107 538 114 543 q 128 525 111 533 q 139 501 139 519 q 127 447 139 482 q 114 396 115 413 q 224 460 150 419 q 317 396 254 439 q 302 449 315 415 q 286 497 289 482 q 361 542 311 511 m 615 185 q 573 217 592 192 q 544 244 554 243 q 515 244 549 244 q 485 275 485 244 q 488 288 485 279 q 492 301 492 297 q 480 320 492 307 q 464 333 468 333 q 458 329 461 332 q 465 301 465 313 q 438 271 465 271 q 406 281 426 271 q 375 290 386 290 q 337 273 367 290 q 307 250 307 256 q 314 239 307 244 q 343 251 328 251 q 372 224 372 251 q 366 197 372 214 q 360 172 360 179 q 372 162 360 171 q 385 138 385 153 q 360 106 385 118 q 392 100 371 104 l 394 106 q 389 119 389 111 q 421 149 389 149 q 469 139 440 149 q 517 124 493 132 q 615 185 549 146 m 267 388 q 247 400 258 400 l 247 400 q 247 389 247 389 q 256 368 247 381 q 267 388 257 375 m 672 200 q 513 106 646 197 q 411 133 472 113 q 426 97 414 118 q 446 64 443 69 l 368 13 q 418 8 383 8 l 419 8 q 478 0 461 8 q 497 -26 488 -6 q 513 -53 507 -47 q 543 -3 524 -36 q 570 -5 551 -3 q 597 -7 589 -7 q 615 -6 607 -7 q 576 49 604 14 q 672 200 607 100 m 290 297 q 217 340 265 310 q 201 394 217 394 q 181 380 192 394 q 168 354 171 365 q 143 353 156 353 q 94 358 121 353 l 92 354 q 149 306 111 338 q 118 224 135 279 q 128 225 122 225 q 150 215 143 225 q 208 247 193 247 q 236 224 207 247 l 240 225 q 232 264 239 239 q 290 297 256 278 m 340 150 q 322 160 339 151 q 311 174 311 165 q 319 203 311 185 q 332 229 331 229 l 326 232 q 289 201 314 222 q 267 253 282 219 q 258 182 254 226 q 239 165 254 174 q 219 150 224 156 q 247 150 221 150 q 266 130 261 150 q 281 110 271 110 q 293 126 288 110 q 303 146 299 143 q 340 150 315 144 m 236 181 q 214 197 228 197 q 200 192 208 197 q 185 182 188 183 l 208 158 q 236 181 217 169 m 388 81 q 232 94 336 85 q 119 204 179 147 q 114 200 117 204 q 142 75 125 157 l 74 63 q 150 29 100 54 q 160 -3 157 25 q 172 -42 164 -32 q 243 -3 172 -42 q 342 -39 281 -19 l 344 -35 q 299 24 331 -15 q 388 81 329 42 z "},"C":{"ha":832,"x_min":35,"x_max":822,"o":"m 822 154 q 782 113 822 129 q 789 82 789 93 q 760 50 789 50 q 718 76 739 50 q 714 71 714 74 q 716 64 714 68 q 718 57 718 60 q 701 32 718 39 q 682 22 683 25 q 675 -15 678 3 q 646 -36 668 -36 q 622 -22 628 -36 q 610 6 615 -8 q 592 0 601 0 q 561 15 574 0 l 556 3 q 560 -14 560 -7 q 531 -40 560 -40 q 498 -28 517 -40 q 471 -17 479 -17 q 431 -29 458 -17 q 396 -42 404 -42 q 374 -28 376 -42 q 342 18 368 -4 q 299 54 321 36 q 238 22 299 54 q 178 0 194 0 q 153 22 153 0 q 184 79 153 44 q 215 124 215 114 q 201 139 215 125 q 167 114 188 114 q 139 140 147 114 q 126 168 131 165 q 94 174 111 171 q 76 200 76 178 q 97 231 76 217 q 119 251 117 246 q 118 256 118 253 q 121 260 121 263 l 119 261 q 88 293 88 275 q 94 317 88 301 q 101 342 101 333 q 68 382 101 369 q 35 414 35 394 q 104 547 35 436 q 69 606 69 582 q 104 631 69 628 q 156 629 88 629 q 172 644 156 629 q 146 651 158 647 q 128 676 128 656 q 147 710 128 686 q 165 750 165 735 q 159 778 165 760 q 153 806 153 796 q 175 833 153 833 q 193 829 182 833 q 210 825 204 825 q 228 838 219 825 q 253 851 236 851 q 282 831 274 851 q 284 815 283 824 q 289 807 285 807 q 317 801 299 807 q 346 794 336 794 q 383 838 364 794 q 417 882 401 882 q 433 877 424 882 q 449 872 443 872 q 494 858 461 871 q 540 849 524 849 q 582 871 558 849 q 621 893 606 893 q 650 869 647 893 q 649 826 649 876 q 653 822 651 822 q 656 824 654 822 q 665 853 660 838 q 688 868 671 868 q 718 850 710 868 q 736 854 726 854 q 767 831 767 854 q 763 813 767 824 q 760 796 760 801 q 767 782 760 792 q 774 765 774 772 q 761 742 774 753 q 749 731 749 731 q 753 726 750 728 q 764 728 758 728 q 800 700 800 728 q 792 677 800 692 q 785 657 785 663 q 799 625 785 654 l 799 610 q 788 594 799 601 q 769 586 778 586 q 749 594 764 586 q 728 603 735 603 q 711 590 722 603 q 688 576 700 576 q 658 611 658 576 q 660 627 658 617 q 663 642 663 638 q 649 651 663 640 l 643 649 q 639 612 642 631 q 619 586 636 593 q 614 586 618 586 q 607 585 610 585 q 600 586 607 585 q 553 653 592 594 q 507 703 519 703 q 474 668 474 703 q 478 631 474 656 q 482 594 482 607 q 453 553 482 553 q 429 567 436 553 q 371 533 422 560 q 332 492 332 514 q 336 463 332 482 q 340 433 340 444 q 338 427 340 431 q 335 421 335 424 q 321 411 331 418 q 289 418 299 411 l 289 415 q 294 403 289 410 q 299 394 299 397 q 297 385 299 392 q 296 375 296 379 q 278 361 292 365 q 253 353 265 357 q 285 331 275 331 q 321 331 303 331 q 338 292 326 328 q 386 210 346 264 q 434 213 403 210 q 481 217 465 217 q 507 211 500 217 q 519 188 510 208 q 551 200 532 190 q 575 244 557 204 q 608 276 589 276 q 638 259 619 276 q 679 242 657 242 q 707 254 696 242 q 733 267 718 267 q 761 243 751 267 q 769 203 761 243 q 797 183 772 193 q 822 154 822 172 m 731 781 q 710 811 710 813 q 716 821 710 815 q 722 831 722 826 q 721 836 722 833 q 701 828 711 828 q 688 836 692 831 q 678 850 679 849 q 675 825 676 846 q 658 810 674 813 q 649 804 649 808 q 660 796 649 797 q 673 793 671 794 q 675 772 675 792 l 678 768 l 681 768 q 689 777 683 768 q 694 788 694 786 q 728 775 699 785 l 731 781 m 760 707 q 721 717 746 708 l 711 729 l 708 729 q 704 717 706 729 q 696 701 703 704 q 653 697 689 697 l 646 690 q 667 679 649 689 q 679 661 679 674 q 678 647 679 657 q 676 632 676 638 q 678 619 676 625 q 693 636 682 621 q 711 651 704 651 q 753 629 722 651 q 754 635 754 632 q 747 658 754 644 q 739 676 739 671 q 760 707 739 692 m 663 739 q 622 769 660 742 q 608 821 608 781 q 614 872 608 847 l 604 875 q 533 829 557 829 q 468 853 515 829 l 454 850 q 478 818 454 849 q 493 785 493 799 q 454 749 493 772 q 495 744 464 744 q 556 700 526 744 q 597 629 576 664 q 603 658 603 635 q 605 699 603 672 q 607 739 607 726 q 625 737 613 739 q 643 735 638 735 q 663 739 654 735 m 444 719 q 442 751 442 722 q 425 756 442 754 q 422 790 422 768 l 422 806 q 410 863 422 843 q 364 771 383 817 q 296 788 342 778 q 292 785 292 786 q 340 722 315 754 q 319 688 331 706 q 308 653 308 669 q 315 629 308 640 q 379 674 336 643 q 442 596 399 647 l 442 608 q 438 660 443 626 q 432 710 432 694 q 444 719 436 710 m 318 707 q 310 714 315 714 q 300 706 300 714 q 301 693 300 689 l 308 690 q 318 707 310 697 m 393 613 q 381 622 388 622 q 369 613 369 622 q 383 610 369 607 l 389 606 l 393 613 m 282 751 q 272 774 278 763 q 253 785 267 785 q 251 796 251 786 q 240 833 251 822 q 231 816 239 832 q 214 800 222 800 q 195 806 207 800 q 176 811 183 811 q 169 810 172 811 q 186 760 186 776 q 150 693 186 738 l 153 688 q 173 698 160 689 q 193 707 186 707 q 204 703 199 707 q 210 690 207 690 l 211 690 q 232 710 219 693 q 250 732 244 728 q 282 751 261 738 m 782 161 q 757 176 776 168 q 733 193 738 183 q 721 251 731 214 q 681 215 693 215 q 646 232 679 215 q 644 226 644 231 q 652 206 644 222 q 660 178 660 190 q 644 124 660 158 q 629 86 629 89 q 636 81 629 83 q 710 119 692 119 q 728 107 717 119 q 743 90 742 90 l 750 96 q 742 128 742 111 q 756 150 742 144 q 782 161 769 156 m 383 586 q 279 600 371 592 q 257 719 278 640 q 140 610 167 610 q 123 612 135 610 q 104 614 111 614 q 90 608 90 614 q 105 592 90 607 q 119 567 119 576 q 93 494 119 539 q 58 424 63 447 q 199 496 106 447 q 249 471 224 483 q 299 453 286 453 q 301 458 301 453 q 296 494 301 471 q 290 528 290 517 q 329 563 290 543 q 383 586 356 574 m 639 183 q 636 189 638 185 l 633 193 q 601 200 606 193 q 601 235 601 201 q 597 251 601 246 q 565 197 588 240 q 540 182 560 188 q 519 167 519 176 q 530 159 519 164 q 540 149 540 154 q 533 136 540 143 q 526 126 526 129 q 532 122 526 122 q 547 128 538 122 q 561 135 557 135 q 596 115 569 135 q 604 122 597 115 l 600 125 l 604 129 l 600 132 l 604 135 l 600 139 l 604 142 l 600 144 l 604 149 l 600 151 l 604 154 l 600 158 q 620 171 607 163 q 639 183 633 179 m 617 54 q 606 74 617 74 q 594 67 594 74 q 599 46 594 54 q 614 47 618 46 l 617 54 m 636 6 q 644 28 644 38 q 629 44 644 38 q 628 35 628 40 q 636 6 628 40 m 558 71 q 507 93 510 90 q 500 149 499 101 l 493 154 q 466 130 481 150 q 442 110 451 110 q 433 111 439 110 q 424 113 426 113 q 414 110 415 113 q 414 100 413 107 q 415 90 415 92 q 413 59 415 79 q 410 29 410 39 q 413 8 410 18 q 454 25 440 25 q 490 13 467 25 q 518 1 514 1 q 519 3 519 1 q 517 22 519 10 q 514 39 514 33 q 529 58 514 51 q 558 71 544 64 m 301 278 l 292 288 l 292 292 q 295 303 292 296 q 299 314 299 310 q 294 317 297 317 q 283 313 288 314 q 279 294 279 313 q 269 276 279 286 q 258 260 258 267 q 269 232 258 249 q 277 247 275 236 q 282 261 279 258 q 301 278 290 267 m 257 401 q 179 431 215 431 q 104 392 124 431 q 113 379 104 388 q 121 361 121 371 q 115 337 121 353 q 110 313 110 321 q 110 304 110 308 q 146 343 133 343 q 188 329 161 343 q 231 311 222 313 l 238 317 l 233 324 q 222 354 233 336 q 204 382 207 375 q 257 401 222 388 m 478 197 q 457 199 468 199 q 417 195 443 199 q 378 192 390 192 q 357 193 367 192 q 311 268 353 204 q 288 212 300 240 q 244 183 275 183 q 201 178 213 183 q 247 139 217 164 q 209 92 233 124 q 172 44 185 60 q 233 69 199 50 q 292 103 263 86 q 367 35 318 81 q 375 53 374 42 q 374 73 375 60 q 372 90 372 86 q 379 144 372 131 q 478 197 413 161 m 218 213 q 202 223 214 218 q 190 242 190 228 q 197 267 190 253 q 208 292 207 289 l 201 294 q 165 265 181 281 q 143 314 160 282 q 138 278 139 303 q 129 242 136 254 q 97 213 118 233 q 122 211 101 211 q 144 190 139 211 q 160 158 151 164 q 189 211 181 211 q 197 211 192 211 q 207 210 203 210 q 218 213 213 210 z "},"D":{"ha":868,"x_min":44,"x_max":857,"o":"m 857 528 q 831 494 857 511 q 792 469 793 471 q 799 410 792 451 q 807 347 807 369 q 792 301 807 308 l 794 285 q 775 263 790 271 q 748 248 751 251 q 744 211 744 244 q 715 185 744 185 q 688 197 699 185 q 671 168 671 181 q 705 147 671 157 q 739 110 739 136 q 625 81 739 68 q 599 29 622 76 q 564 -7 581 -7 q 522 28 540 -7 q 494 64 504 64 q 470 51 481 64 q 460 24 460 39 q 462 5 460 18 q 464 -14 464 -8 q 453 -34 464 -25 q 432 -43 443 -43 q 395 -13 414 -43 q 353 17 376 17 q 316 10 340 17 q 279 6 292 4 l 272 6 q 253 18 265 10 q 236 -31 244 -6 q 201 -60 225 -60 q 139 51 171 -60 q 133 54 138 54 l 129 57 q 71 47 113 47 q 44 75 44 47 q 75 124 44 90 q 106 176 106 157 q 100 208 106 188 q 94 239 94 228 q 106 265 94 256 q 86 300 86 285 q 108 326 86 317 q 129 343 129 336 q 122 353 129 349 q 108 350 115 350 q 81 392 81 350 q 65 409 81 403 q 49 431 49 415 q 106 472 49 454 q 97 493 97 482 q 105 521 97 503 q 113 547 113 539 q 85 590 113 564 q 57 636 57 615 q 66 652 57 646 q 76 661 75 658 q 103 749 88 681 q 68 790 68 768 q 119 824 68 815 q 150 866 132 825 q 189 907 168 907 q 235 867 203 907 q 310 826 267 826 q 338 840 331 826 q 357 854 346 854 q 385 839 368 854 q 413 824 401 824 q 444 837 424 824 q 475 850 465 850 q 499 837 486 850 q 518 824 513 824 q 541 845 526 824 q 572 867 556 867 q 601 835 601 867 q 597 810 601 826 q 593 785 592 793 l 593 778 q 610 775 594 775 q 626 769 617 775 q 638 764 636 764 q 650 771 642 764 q 664 778 658 778 q 696 743 696 778 q 693 719 696 733 q 688 697 688 701 l 697 693 q 711 717 701 697 q 733 731 718 731 q 765 707 761 731 q 778 581 772 653 l 788 571 q 832 561 810 565 q 857 528 857 553 m 671 664 q 660 686 671 675 q 649 703 649 697 q 653 728 649 711 q 657 753 657 746 q 654 756 657 756 q 631 729 642 756 q 612 692 615 696 q 596 687 608 689 q 576 671 583 685 q 613 664 592 671 q 629 619 617 649 q 635 650 632 624 q 651 668 638 668 q 671 664 660 668 m 581 732 q 565 747 581 736 q 549 776 549 757 q 553 807 549 786 q 558 838 558 828 l 557 846 q 513 790 543 826 q 469 824 479 824 q 467 819 468 822 q 486 758 486 781 q 399 642 449 711 q 453 666 417 644 q 508 688 489 688 q 521 668 515 688 q 528 642 528 643 q 542 703 531 664 q 563 717 544 710 q 581 732 581 724 m 589 632 q 576 625 583 632 q 600 619 590 619 q 604 624 604 621 q 589 632 604 632 m 817 540 q 743 561 783 556 q 724 710 738 639 q 690 644 714 697 q 649 586 672 603 q 567 610 575 604 q 560 607 564 606 q 557 606 557 608 q 625 518 557 586 q 551 369 574 421 l 557 365 q 681 447 625 413 q 765 340 708 410 l 765 351 q 760 411 767 372 q 754 468 754 450 q 774 514 754 504 q 817 540 810 533 m 450 814 q 453 822 453 819 q 450 826 453 826 q 392 794 411 807 l 393 796 q 389 800 393 799 q 384 804 385 801 q 382 807 383 807 q 375 804 378 807 q 379 790 379 797 q 357 758 379 772 q 324 739 340 749 q 361 736 329 736 q 379 725 378 736 q 385 703 381 708 q 401 731 393 708 q 440 739 406 739 q 444 743 444 740 q 435 752 444 746 q 426 763 426 758 q 438 787 426 769 q 450 814 450 804 m 681 397 q 669 390 676 397 q 661 382 663 383 q 683 365 669 378 q 694 383 694 376 q 681 397 694 397 m 340 800 q 250 821 294 811 q 178 889 221 828 q 150 829 172 882 q 96 804 140 803 l 90 797 q 108 785 90 797 q 122 771 122 776 q 110 717 122 753 q 97 664 97 682 q 100 661 97 661 q 151 688 108 661 q 204 722 190 713 q 249 690 217 710 q 294 658 282 671 l 294 663 q 283 705 296 678 q 269 744 269 732 q 297 779 269 764 q 340 800 318 790 m 753 301 l 746 307 q 736 307 742 307 q 704 307 697 307 q 704 350 704 307 l 707 356 q 700 369 700 360 q 681 333 692 360 q 658 297 669 306 q 615 282 643 294 q 632 272 618 278 q 642 258 642 268 q 632 239 638 253 l 642 236 q 663 244 653 244 q 700 226 672 244 q 704 258 704 232 q 720 284 704 275 q 753 301 736 293 m 644 356 l 639 363 q 574 324 625 363 q 586 292 586 318 q 592 288 589 288 q 599 297 592 288 q 615 306 607 306 q 629 301 621 306 l 635 307 q 626 328 626 317 q 644 356 626 343 m 617 242 q 613 246 615 244 q 597 243 604 243 q 581 249 586 243 q 567 282 578 261 q 547 301 557 290 q 536 322 536 311 q 538 333 536 328 q 533 338 533 333 q 560 424 533 375 q 603 501 581 463 q 503 632 517 631 l 499 632 q 454 617 483 633 q 407 600 425 600 q 378 624 378 600 q 394 661 378 644 q 371 681 383 663 q 343 699 358 699 q 326 690 326 699 q 332 668 326 683 q 338 644 338 653 q 311 618 338 618 q 275 635 297 618 l 268 632 q 297 594 268 606 q 326 564 326 583 q 315 543 326 551 q 292 528 303 535 q 306 501 304 522 q 312 472 307 476 q 354 457 317 467 q 383 429 383 449 q 357 396 383 407 q 321 375 325 383 q 319 333 319 372 q 282 306 319 306 q 267 296 267 306 q 278 282 267 282 q 309 294 283 282 q 347 307 335 307 q 371 276 371 307 q 350 224 371 256 q 317 174 321 183 q 321 169 319 171 q 331 181 324 169 q 349 192 339 192 q 362 189 353 192 q 375 186 371 186 q 397 211 386 186 q 424 236 408 236 q 456 211 449 236 q 461 183 458 197 q 468 206 468 188 q 466 228 468 214 q 464 250 464 243 q 497 288 464 288 q 535 256 513 288 q 579 225 557 225 q 601 231 586 225 q 617 242 617 236 m 200 664 q 178 656 190 664 q 158 642 160 643 q 169 636 164 636 q 188 648 175 636 q 200 664 200 660 m 285 576 q 239 596 267 581 q 231 631 232 604 q 219 668 231 657 q 169 615 193 615 q 151 620 163 615 q 132 625 139 625 q 96 615 111 625 q 139 564 139 572 q 127 538 139 556 q 115 508 115 519 l 115 506 q 196 532 163 532 q 222 522 204 532 q 249 511 239 511 q 243 544 243 542 q 258 565 243 560 q 285 576 285 576 m 693 125 q 615 154 693 125 q 632 187 621 165 q 649 219 643 208 q 594 213 631 219 q 538 207 557 206 l 486 268 q 482 239 482 256 q 484 220 482 233 q 486 200 486 207 q 444 158 486 186 q 493 132 461 151 q 524 85 510 117 q 547 32 543 38 q 585 99 567 65 q 660 119 599 119 q 693 125 681 119 m 339 439 q 336 443 339 442 q 306 449 326 443 q 272 453 285 454 q 265 508 272 492 q 264 511 265 511 q 256 501 264 510 q 236 463 246 463 q 217 467 231 463 q 197 472 204 472 q 194 469 194 472 q 209 445 194 464 q 224 421 224 426 q 207 379 224 411 l 213 378 q 227 383 218 378 q 239 389 236 389 q 263 372 253 389 q 278 346 278 347 q 281 358 281 351 q 278 375 281 364 q 276 392 276 386 q 308 423 276 411 q 339 439 339 435 m 168 453 q 173 463 168 457 q 178 468 178 468 q 175 472 178 471 q 151 467 158 472 l 144 472 q 131 468 142 468 q 115 463 119 468 l 115 457 q 67 443 83 450 q 110 433 82 440 q 96 392 104 424 q 119 408 107 393 q 142 424 132 424 q 188 418 171 424 q 192 422 192 419 q 180 434 192 424 q 168 453 168 444 m 214 304 q 233 326 219 311 l 229 333 q 217 332 222 332 q 144 375 183 332 q 144 368 144 372 q 148 356 144 364 q 151 343 151 347 q 132 324 147 332 q 106 311 107 311 q 128 299 114 303 q 156 292 142 294 l 147 269 q 149 265 147 267 l 156 261 q 196 279 181 279 q 246 261 213 279 q 250 265 250 264 q 214 304 250 268 m 476 103 q 424 128 450 115 q 417 189 417 135 q 414 217 417 206 q 397 182 410 211 q 375 154 389 161 q 346 174 376 154 l 340 171 q 339 168 339 169 q 358 154 339 163 q 378 128 378 146 q 358 99 378 104 q 321 90 339 94 q 265 47 301 75 l 274 47 q 313 53 288 47 q 350 58 338 58 q 397 28 378 58 q 421 -1 417 -1 q 425 3 424 0 q 423 26 425 10 q 421 51 421 43 q 439 86 421 78 q 476 103 471 97 m 336 139 q 265 174 292 164 q 333 288 286 213 q 257 256 304 281 q 181 219 206 228 l 176 219 q 165 226 175 221 q 113 251 147 235 q 111 242 111 247 q 117 210 111 231 q 124 179 124 189 q 101 132 124 158 q 64 93 83 113 l 67 86 q 105 93 81 86 q 142 100 129 100 q 190 -21 157 58 q 243 119 203 8 q 336 139 275 121 z "},"E":{"ha":768,"x_min":50,"x_max":736,"o":"m 686 697 q 690 666 686 686 q 694 636 694 646 q 663 611 694 611 q 638 631 647 611 q 619 651 629 651 q 606 646 615 651 q 592 640 597 640 q 583 640 586 640 q 569 650 578 640 q 558 661 561 660 q 476 697 531 671 q 453 664 464 689 q 435 632 443 639 q 389 600 411 615 q 386 540 386 594 q 376 518 386 528 q 367 503 367 508 q 396 488 367 497 q 431 479 421 479 q 463 503 444 479 q 500 528 482 528 q 525 508 522 528 q 535 482 529 485 q 547 519 540 500 q 571 538 553 538 q 610 506 593 538 q 642 496 613 499 q 667 468 667 493 q 656 441 667 457 q 644 424 644 425 q 649 410 644 418 q 653 394 653 401 q 622 365 653 365 q 610 369 615 365 q 590 338 596 343 q 554 328 581 328 q 540 317 553 328 q 515 307 526 307 q 490 319 508 307 q 461 331 471 331 q 375 299 449 331 q 294 258 301 268 q 292 210 292 254 q 274 183 292 190 q 256 171 256 176 q 265 154 256 174 q 307 207 275 161 q 353 243 332 243 q 382 201 378 243 q 389 139 388 142 q 410 154 403 154 q 430 149 418 154 q 447 144 442 144 q 474 165 456 144 q 503 185 492 185 q 568 151 564 154 q 608 183 593 183 q 636 171 624 183 q 649 113 636 150 q 678 96 651 107 q 699 69 699 85 q 681 38 699 57 q 663 15 663 19 q 664 1 663 10 q 665 -12 665 -8 q 635 -37 665 -37 q 612 -26 624 -37 q 592 -14 600 -14 q 558 -30 582 -14 q 522 -46 533 -46 q 472 -21 497 -46 q 450 6 461 -7 q 425 8 433 8 q 391 -22 396 8 q 368 -51 386 -51 q 336 -37 351 -51 q 308 -11 321 -24 q 167 -65 189 -65 q 139 -43 150 -65 q 146 -17 139 -26 q 153 -8 153 -8 q 149 -4 151 -7 q 122 -12 133 -12 q 112 -11 117 -12 q 93 25 107 -10 q 71 37 92 31 q 50 63 50 43 q 65 89 50 75 q 90 110 90 110 q 88 129 90 122 q 93 142 88 138 q 89 158 89 149 q 93 174 89 167 q 82 192 82 182 q 102 247 82 210 q 122 306 122 285 q 113 337 122 317 q 103 368 103 357 q 125 397 103 397 q 148 393 133 397 q 168 389 163 389 l 171 399 q 139 438 158 411 q 113 426 128 426 q 81 460 81 426 q 88 475 81 463 q 94 494 94 488 q 83 519 94 504 q 70 540 72 535 q 68 557 68 544 q 77 573 68 565 q 94 581 86 581 q 110 578 100 581 q 126 576 121 576 q 132 583 129 576 q 117 599 132 583 q 106 617 106 607 q 112 641 106 625 q 118 667 118 657 q 97 702 118 682 q 76 736 76 722 q 78 756 76 743 q 81 776 81 769 q 67 812 81 800 q 54 833 54 824 q 81 865 54 853 q 90 888 85 868 q 115 907 96 907 q 140 897 126 907 q 158 888 154 888 q 167 888 161 888 q 175 889 172 889 q 184 883 178 889 q 194 875 190 876 q 219 856 211 871 q 236 826 228 842 q 257 836 239 833 q 268 872 268 839 q 279 893 278 892 q 303 900 286 900 q 333 875 321 900 q 367 850 346 850 q 388 853 374 850 q 410 856 403 856 q 438 840 429 856 q 450 878 440 843 q 481 901 457 901 q 508 881 500 901 q 525 843 517 861 q 554 824 533 831 q 588 810 571 817 q 597 864 592 838 q 635 896 604 896 q 660 861 653 896 q 678 814 668 821 q 708 813 679 813 q 736 785 736 813 q 711 743 736 768 q 686 697 686 718 m 694 790 l 690 797 q 653 790 651 790 q 626 826 632 790 q 619 879 622 853 q 603 808 603 807 q 606 795 603 804 q 608 782 608 786 q 590 756 608 772 q 583 711 583 733 q 594 689 583 689 q 622 710 608 689 q 650 661 633 685 l 656 668 q 646 729 646 688 q 667 760 646 738 q 694 790 694 790 m 568 794 q 496 826 540 801 q 481 853 488 835 q 469 882 471 879 q 447 826 465 860 q 418 820 444 824 q 392 813 392 817 q 411 786 392 806 q 431 758 431 767 q 418 713 431 731 q 421 703 418 703 q 438 721 425 703 q 454 739 450 739 q 500 724 472 739 q 544 700 522 713 q 513 775 542 722 q 568 794 532 779 m 392 833 l 386 840 q 343 832 363 832 q 313 850 321 832 q 292 879 301 874 q 285 846 285 875 q 278 824 285 831 q 246 817 267 825 q 278 797 257 811 q 282 775 276 789 q 296 782 288 782 q 318 772 304 782 q 339 761 332 761 l 340 761 q 343 769 343 764 q 342 782 343 774 q 340 794 340 790 q 361 818 340 807 q 392 833 376 825 m 399 697 q 411 736 411 725 q 386 775 411 749 l 379 771 q 382 742 379 761 q 393 719 392 735 q 399 697 394 703 m 626 476 l 622 482 q 608 481 615 481 q 581 486 594 481 q 572 499 575 488 q 564 511 569 511 q 556 499 560 511 q 547 479 550 482 q 532 456 532 461 q 559 438 532 450 q 593 408 586 426 q 597 408 594 408 q 602 407 599 408 q 607 406 606 406 q 610 408 610 406 q 606 421 610 413 q 603 433 603 429 q 626 476 603 444 m 406 668 q 350 678 386 668 l 354 683 l 350 688 q 285 658 328 678 q 292 600 292 647 l 299 593 q 311 603 303 603 q 326 581 315 603 q 340 551 339 551 q 346 590 346 563 q 353 629 346 617 q 379 650 358 638 q 406 668 400 663 m 156 865 l 151 872 q 129 864 126 864 q 116 876 121 864 q 108 889 111 889 q 103 885 106 889 q 106 872 106 879 q 92 851 106 856 q 78 843 78 847 q 90 835 78 840 q 101 813 101 829 q 93 785 101 800 q 99 781 96 781 q 110 797 99 781 q 126 813 121 813 q 149 797 126 813 q 150 804 150 801 q 143 821 150 811 q 136 833 136 831 q 156 865 136 836 m 340 732 q 229 756 325 738 q 183 853 210 804 l 178 846 q 156 765 178 801 q 126 755 150 757 q 93 746 103 753 q 138 689 138 701 q 131 665 138 681 q 125 642 125 650 q 132 635 125 635 q 152 643 139 635 q 172 651 165 651 q 213 615 181 651 q 253 571 232 593 q 256 592 256 581 q 251 630 256 604 q 247 668 247 656 q 249 690 247 681 q 340 732 279 706 m 547 418 q 496 438 531 424 q 499 443 499 439 q 496 451 499 446 q 493 460 493 457 q 494 467 494 463 q 493 475 494 469 q 493 482 493 481 q 489 506 489 489 q 485 510 488 510 q 464 484 482 510 q 426 458 446 458 q 385 468 410 458 q 343 482 353 481 q 339 478 339 481 q 370 448 339 476 q 401 408 401 419 q 390 380 401 399 q 379 350 379 361 q 450 375 440 375 q 482 362 458 375 q 507 349 506 349 q 510 358 510 349 q 508 375 510 364 q 506 392 506 386 q 522 408 506 403 q 547 418 546 415 m 308 540 q 303 544 306 544 q 288 537 297 544 q 275 528 279 529 q 296 518 296 518 q 303 526 301 518 q 308 540 306 535 m 219 561 q 204 583 219 578 q 200 574 203 579 l 200 571 q 207 557 200 560 l 218 557 q 221 558 221 557 l 219 561 m 350 428 q 319 474 319 449 q 326 492 319 482 q 332 507 332 503 q 321 535 332 514 q 299 493 310 493 q 274 503 292 493 q 247 513 257 513 l 243 511 q 265 479 254 496 q 282 449 282 456 q 276 438 282 444 q 272 428 271 431 q 283 404 272 404 q 293 408 286 404 q 303 411 300 411 q 322 378 308 411 q 342 346 336 346 l 347 346 q 346 399 346 336 q 350 428 346 415 m 236 531 q 168 551 213 533 q 163 578 163 554 q 153 593 163 593 q 142 575 146 593 q 117 557 139 557 q 97 564 104 557 q 90 563 96 561 q 86 563 86 563 q 101 539 86 560 q 115 510 115 518 q 108 488 115 501 q 100 469 101 475 q 139 486 117 469 q 171 438 150 469 q 175 449 175 442 q 172 471 175 456 q 169 493 169 486 q 199 513 169 499 q 236 531 235 531 m 658 76 q 625 96 657 79 q 607 125 607 106 q 597 164 607 151 q 581 144 589 154 q 560 131 568 131 q 544 137 553 131 q 532 143 535 143 q 525 135 525 143 q 532 117 525 129 q 539 99 539 106 q 528 51 539 78 q 508 -1 518 24 q 550 17 526 -1 q 588 35 574 35 q 604 20 593 35 q 622 6 615 6 q 626 7 625 6 q 626 18 626 18 q 619 40 619 29 q 633 62 619 54 q 658 76 646 69 m 331 326 q 253 346 304 335 q 236 408 244 365 q 219 469 228 450 q 195 417 210 453 q 171 365 181 382 q 122 379 163 371 l 119 369 q 146 317 146 336 q 126 261 146 299 q 103 207 106 224 q 150 238 111 214 q 192 263 189 263 q 249 222 210 263 q 254 271 254 231 q 281 306 254 296 q 331 326 307 317 m 518 71 q 501 83 517 75 q 486 100 486 90 q 489 123 486 107 q 492 146 492 139 q 489 168 492 158 q 444 118 457 118 q 425 126 436 118 q 408 139 410 138 l 406 132 q 436 101 411 121 q 457 74 457 85 q 450 51 457 63 q 466 31 458 46 q 479 13 474 17 q 483 44 482 28 q 513 54 486 54 q 518 71 518 57 m 418 83 q 368 100 414 86 q 342 149 342 108 q 343 169 342 156 q 344 190 344 183 q 338 226 344 211 q 258 122 314 189 q 233 125 251 126 q 207 129 215 124 l 204 122 q 236 93 219 110 q 194 31 231 81 q 158 -22 158 -19 q 158 -24 158 -24 q 301 35 185 -24 q 350 -11 317 18 q 357 -1 350 -1 q 353 22 353 3 q 351 33 353 25 q 350 44 350 40 l 353 51 q 386 69 363 61 q 418 83 410 78 m 229 154 l 204 181 q 224 200 211 186 q 217 207 219 207 q 206 203 215 207 q 193 199 197 199 q 181 207 186 199 q 153 189 179 204 q 132 168 132 175 q 140 165 132 168 q 149 161 147 163 q 142 149 147 157 q 154 138 153 138 l 156 139 q 169 147 161 139 q 181 154 176 154 q 226 149 194 154 l 229 154 m 197 51 q 185 69 185 60 q 188 81 185 74 q 192 92 192 89 q 172 101 192 99 q 147 105 149 104 q 110 142 146 106 q 108 135 108 139 q 112 122 108 129 q 115 110 115 114 q 96 90 111 97 q 71 76 72 78 q 97 66 78 69 q 117 51 117 63 q 115 42 117 49 q 113 32 113 35 l 119 28 q 163 46 140 46 q 186 40 175 46 q 191 45 186 40 q 197 51 196 50 z "}}}
